<svg width="393" height="852" viewBox="0 0 393 852" fill="none" xmlns="http://www.w3.org/2000/svg">
<g clip-path="url(#clip0_52_5215)">
<rect width="393" height="852" fill="white"/>
<g clip-path="url(#clip1_52_5215)">
<rect width="393" height="100" fill="#7079D8"/>
<path d="M49 72V71C49 68.2386 51.2386 66 54 66V66C56.7614 66 59 68.2386 59 71V72" stroke="white" stroke-width="1.5" stroke-linecap="round"/>
<path d="M54 66C55.6569 66 57 64.6569 57 63C57 61.3431 55.6569 60 54 60C52.3431 60 51 61.3431 51 63C51 64.6569 52.3431 66 54 66Z" stroke="white" stroke-width="1.5" stroke-linecap="round" stroke-linejoin="round"/>
<circle cx="54" cy="66" r="10" stroke="white" stroke-width="1.5"/>
<path d="M149.425 81V67.25H153.932C155.175 67.25 156.254 67.4537 157.171 67.8611C158.098 68.2685 158.862 68.8083 159.462 69.4806C160.063 70.1528 160.512 70.8963 160.807 71.7111C161.102 72.5157 161.25 73.3204 161.25 74.125C161.25 74.9296 161.102 75.7394 160.807 76.5542C160.512 77.3588 160.063 78.0972 159.462 78.7694C158.862 79.4417 158.098 79.9815 157.171 80.3889C156.254 80.7963 155.175 81 153.932 81H149.425ZM151.167 79.4417H153.749C154.808 79.4417 155.699 79.2787 156.422 78.9528C157.145 78.6167 157.731 78.1838 158.179 77.6542C158.627 77.1144 158.948 76.5338 159.142 75.9125C159.345 75.2912 159.447 74.6954 159.447 74.125C159.447 73.5546 159.345 72.9588 159.142 72.3375C158.948 71.7162 158.627 71.1407 158.179 70.6111C157.731 70.0713 157.145 69.6384 156.422 69.3125C155.699 68.9764 154.808 68.8083 153.749 68.8083H151.167V79.4417ZM167.567 81.1222C166.732 81.1222 165.968 80.9134 165.275 80.4958C164.583 80.0681 164.028 79.4977 163.61 78.7847C163.203 78.0718 162.999 77.2824 162.999 76.4167C162.999 75.5509 163.203 74.7616 163.61 74.0486C164.028 73.3356 164.583 72.7704 165.275 72.3528C165.968 71.925 166.732 71.7111 167.567 71.7111C168.198 71.7111 168.789 71.8282 169.339 72.0625C169.899 72.2968 170.383 72.6227 170.79 73.0403V71.8333H172.318V81H170.79V79.7931C170.383 80.2005 169.899 80.5264 169.339 80.7708C168.789 81.0051 168.198 81.1222 167.567 81.1222ZM167.781 79.625C168.361 79.625 168.886 79.4824 169.354 79.1972C169.833 78.9019 170.21 78.5148 170.485 78.0361C170.77 77.5472 170.913 77.0074 170.913 76.4167C170.913 75.8259 170.77 75.2912 170.485 74.8125C170.21 74.3236 169.833 73.9366 169.354 73.6514C168.886 73.356 168.361 73.2083 167.781 73.2083C167.2 73.2083 166.671 73.356 166.192 73.6514C165.723 73.9366 165.347 74.3236 165.061 74.8125C164.786 75.2912 164.649 75.8259 164.649 76.4167C164.649 77.0074 164.786 77.5472 165.061 78.0361C165.347 78.5148 165.723 78.9019 166.192 79.1972C166.671 79.4824 167.2 79.625 167.781 79.625ZM177.61 81.1833C177.142 81.1833 176.637 81.0968 176.098 80.9236C175.568 80.7403 175.11 80.4398 174.723 80.0222L175.181 78.2194C175.466 78.6981 175.833 79.0801 176.281 79.3653C176.729 79.6403 177.208 79.7778 177.717 79.7778C178.206 79.7778 178.573 79.6606 178.817 79.4264C179.062 79.1819 179.184 78.8866 179.184 78.5403C179.184 78.1431 179.051 77.8528 178.787 77.6694C178.532 77.4861 178.303 77.3588 178.099 77.2875L176.862 76.8139C176.637 76.7222 176.368 76.5898 176.052 76.4167C175.736 76.2333 175.461 75.9736 175.227 75.6375C174.993 75.3014 174.875 74.8634 174.875 74.3236C174.875 73.8347 174.993 73.3866 175.227 72.9792C175.461 72.5718 175.792 72.2509 176.22 72.0167C176.648 71.7722 177.152 71.65 177.732 71.65C178.191 71.65 178.669 71.7315 179.168 71.8944C179.668 72.0574 180.09 72.3324 180.437 72.7194L179.978 74.5222C179.734 74.0741 179.403 73.7176 178.985 73.4528C178.568 73.188 178.135 73.0556 177.687 73.0556C177.269 73.0556 176.938 73.1727 176.693 73.4069C176.459 73.6412 176.342 73.9111 176.342 74.2167C176.342 74.4611 176.424 74.6801 176.587 74.8736C176.749 75.0671 176.994 75.225 177.32 75.3472L178.557 75.8208C178.781 75.9023 179.056 76.0347 179.382 76.2181C179.718 76.4014 180.014 76.6662 180.268 77.0125C180.523 77.3588 180.65 77.8273 180.65 78.4181C180.65 79.2431 180.36 79.9102 179.78 80.4194C179.209 80.9287 178.486 81.1833 177.61 81.1833ZM183.041 81V66.3333H184.691V73.1319C185.037 72.6532 185.465 72.2866 185.974 72.0319C186.483 71.7773 187.028 71.65 187.609 71.65C188.261 71.65 188.862 71.813 189.412 72.1389C189.972 72.4546 190.425 72.9181 190.771 73.5292C191.118 74.1301 191.291 74.8634 191.291 75.7292V81H189.641V75.9583C189.641 75.2352 189.422 74.5986 188.984 74.0486C188.556 73.4884 187.95 73.2083 187.166 73.2083C186.524 73.2083 185.949 73.4426 185.439 73.9111C184.94 74.3694 184.691 75.0366 184.691 75.9125V81H183.041ZM198.792 81.1222C198.161 81.1222 197.57 81.0051 197.02 80.7708C196.47 80.5264 195.986 80.2005 195.569 79.7931V81H194.041V66.3333H195.691V72.9181C196.098 72.5412 196.567 72.2458 197.096 72.0319C197.626 71.8181 198.191 71.7111 198.792 71.7111C199.638 71.7111 200.402 71.925 201.084 72.3528C201.777 72.7704 202.327 73.3356 202.734 74.0486C203.152 74.7616 203.36 75.5509 203.36 76.4167C203.36 77.2824 203.152 78.0718 202.734 78.7847C202.327 79.4977 201.777 80.0681 201.084 80.4958C200.402 80.9134 199.638 81.1222 198.792 81.1222ZM198.578 79.625C199.159 79.625 199.683 79.4824 200.152 79.1972C200.631 78.9019 201.008 78.5148 201.283 78.0361C201.568 77.5472 201.71 77.0074 201.71 76.4167C201.71 75.8259 201.568 75.2912 201.283 74.8125C201.008 74.3236 200.631 73.9366 200.152 73.6514C199.683 73.356 199.159 73.2083 198.578 73.2083C197.998 73.2083 197.468 73.356 196.989 73.6514C196.521 73.9366 196.144 74.3236 195.859 74.8125C195.584 75.2912 195.446 75.8259 195.446 76.4167C195.446 77.0074 195.584 77.5472 195.859 78.0361C196.144 78.5148 196.521 78.9019 196.989 79.1972C197.468 79.4824 197.998 79.625 198.578 79.625ZM209.829 81.1833C208.942 81.1833 208.133 80.9694 207.399 80.5417C206.666 80.1139 206.08 79.5384 205.642 78.8153C205.215 78.0921 205.001 77.2926 205.001 76.4167C205.001 75.5306 205.215 74.731 205.642 74.0181C206.08 73.2949 206.666 72.7194 207.399 72.2917C208.133 71.8639 208.942 71.65 209.829 71.65C210.725 71.65 211.535 71.8639 212.258 72.2917C212.991 72.7194 213.572 73.2949 213.999 74.0181C214.437 74.731 214.656 75.5306 214.656 76.4167C214.656 77.2926 214.437 78.0921 213.999 78.8153C213.572 79.5384 212.991 80.1139 212.258 80.5417C211.535 80.9694 210.725 81.1833 209.829 81.1833ZM209.829 79.625C210.419 79.625 210.954 79.4824 211.433 79.1972C211.911 78.9019 212.293 78.5148 212.579 78.0361C212.864 77.5472 213.006 77.0074 213.006 76.4167C213.006 75.8259 212.864 75.2912 212.579 74.8125C212.293 74.3236 211.911 73.9366 211.433 73.6514C210.954 73.356 210.419 73.2083 209.829 73.2083C209.238 73.2083 208.703 73.356 208.224 73.6514C207.746 73.9366 207.364 74.3236 207.079 74.8125C206.793 75.2912 206.651 75.8259 206.651 76.4167C206.651 77.0074 206.793 77.5472 207.079 78.0361C207.364 78.5148 207.746 78.9019 208.224 79.1972C208.703 79.4824 209.238 79.625 209.829 79.625ZM220.87 81.1222C220.034 81.1222 219.271 80.9134 218.578 80.4958C217.885 80.0681 217.33 79.4977 216.913 78.7847C216.505 78.0718 216.302 77.2824 216.302 76.4167C216.302 75.5509 216.505 74.7616 216.913 74.0486C217.33 73.3356 217.885 72.7704 218.578 72.3528C219.271 71.925 220.034 71.7111 220.87 71.7111C221.501 71.7111 222.092 71.8282 222.642 72.0625C223.202 72.2968 223.686 72.6227 224.093 73.0403V71.8333H225.621V81H224.093V79.7931C223.686 80.2005 223.202 80.5264 222.642 80.7708C222.092 81.0051 221.501 81.1222 220.87 81.1222ZM221.084 79.625C221.664 79.625 222.189 79.4824 222.657 79.1972C223.136 78.9019 223.513 78.5148 223.788 78.0361C224.073 77.5472 224.215 77.0074 224.215 76.4167C224.215 75.8259 224.073 75.2912 223.788 74.8125C223.513 74.3236 223.136 73.9366 222.657 73.6514C222.189 73.356 221.664 73.2083 221.084 73.2083C220.503 73.2083 219.973 73.356 219.495 73.6514C219.026 73.9366 218.649 74.3236 218.364 74.8125C218.089 75.2912 217.952 75.8259 217.952 76.4167C217.952 77.0074 218.089 77.5472 218.364 78.0361C218.649 78.5148 219.026 78.9019 219.495 79.1972C219.973 79.4824 220.503 79.625 221.084 79.625ZM228.545 81V71.8333H230.073V73.5139C230.398 72.9741 230.831 72.5463 231.371 72.2306C231.911 71.9046 232.553 71.7417 233.296 71.7417L233.709 73.3917C233.515 73.3306 233.291 73.3 233.036 73.3C232.181 73.3 231.493 73.575 230.974 74.125C230.455 74.6648 230.195 75.4389 230.195 76.4472V81H228.545ZM239.045 81.1222C238.21 81.1222 237.446 80.9134 236.754 80.4958C236.061 80.0681 235.506 79.4977 235.088 78.7847C234.681 78.0718 234.477 77.2824 234.477 76.4167C234.477 75.5509 234.681 74.7616 235.088 74.0486C235.506 73.3356 236.061 72.7704 236.754 72.3528C237.446 71.925 238.21 71.7111 239.045 71.7111C239.646 71.7111 240.212 71.8181 240.741 72.0319C241.271 72.2458 241.739 72.5412 242.147 72.9181V66.3333H243.797V81H242.269V79.7931C241.862 80.2005 241.378 80.5264 240.818 80.7708C240.268 81.0051 239.677 81.1222 239.045 81.1222ZM239.259 79.625C239.84 79.625 240.364 79.4824 240.833 79.1972C241.312 78.9019 241.688 78.5148 241.963 78.0361C242.249 77.5472 242.391 77.0074 242.391 76.4167C242.391 75.8259 242.249 75.2912 241.963 74.8125C241.688 74.3236 241.312 73.9366 240.833 73.6514C240.364 73.356 239.84 73.2083 239.259 73.2083C238.679 73.2083 238.149 73.356 237.67 73.6514C237.202 73.9366 236.825 74.3236 236.54 74.8125C236.265 75.2912 236.127 75.8259 236.127 76.4167C236.127 77.0074 236.265 77.5472 236.54 78.0361C236.825 78.5148 237.202 78.9019 237.67 79.1972C238.149 79.4824 238.679 79.625 239.259 79.625Z" fill="white"/>
<rect width="393" height="652" transform="translate(0 100)" fill="white"/>
<g clip-path="url(#paint0_diamond_52_5215_clip_path)" data-figma-skip-parse="true"><g transform="matrix(0.077 0.2165 -0.566107 0.201341 148 103)"><rect x="0" y="0" width="956.919" height="345.466" fill="url(#paint0_diamond_52_5215)" opacity="1" shape-rendering="crispEdges"/><rect x="0" y="0" width="956.919" height="345.466" transform="scale(1 -1)" fill="url(#paint0_diamond_52_5215)" opacity="1" shape-rendering="crispEdges"/><rect x="0" y="0" width="956.919" height="345.466" transform="scale(-1 1)" fill="url(#paint0_diamond_52_5215)" opacity="1" shape-rendering="crispEdges"/><rect x="0" y="0" width="956.919" height="345.466" transform="scale(-1)" fill="url(#paint0_diamond_52_5215)" opacity="1" shape-rendering="crispEdges"/></g></g><rect x="20.5" y="120.5" width="352" height="134" rx="4.5" data-figma-gradient-fill="{&#34;type&#34;:&#34;GRADIENT_DIAMOND&#34;,&#34;stops&#34;:[{&#34;color&#34;:{&#34;r&#34;:0.46763819456100464,&#34;g&#34;:0.41436296701431274,&#34;b&#34;:0.94711536169052124,&#34;a&#34;:1.0},&#34;position&#34;:0.0},{&#34;color&#34;:{&#34;r&#34;:0.16470588743686676,&#34;g&#34;:0.20784313976764679,&#34;b&#34;:0.66666668653488159,&#34;a&#34;:1.0},&#34;position&#34;:1.0}],&#34;stopsVar&#34;:[{&#34;color&#34;:{&#34;r&#34;:0.46763819456100464,&#34;g&#34;:0.41436296701431274,&#34;b&#34;:0.94711536169052124,&#34;a&#34;:1.0},&#34;position&#34;:0.0},{&#34;color&#34;:{&#34;r&#34;:0.16470588743686676,&#34;g&#34;:0.20784313976764679,&#34;b&#34;:0.66666668653488159,&#34;a&#34;:1.0},&#34;position&#34;:1.0}],&#34;transform&#34;:{&#34;m00&#34;:154.00001525878906,&#34;m01&#34;:-1132.214843750,&#34;m02&#34;:637.10736083984375,&#34;m10&#34;:433.0,&#34;m11&#34;:402.68151855468750,&#34;m12&#34;:-314.84072875976562},&#34;opacity&#34;:1.0,&#34;blendMode&#34;:&#34;NORMAL&#34;,&#34;visible&#34;:true}"/>
<rect x="20.5" y="120.5" width="352" height="134" rx="4.5" stroke="#7079D8"/>
<path d="M111.732 191.183C110.866 191.183 110.097 190.995 109.425 190.618C108.753 190.231 108.223 189.701 107.836 189.029C107.46 188.347 107.271 187.562 107.271 186.676V177.25H109.013V186.615C109.013 187.522 109.272 188.25 109.792 188.8C110.311 189.35 110.968 189.625 111.763 189.625C112.547 189.625 113.199 189.355 113.718 188.815C114.248 188.265 114.513 187.552 114.513 186.676V177.25H116.193V186.615C116.193 187.512 116 188.306 115.613 188.999C115.236 189.681 114.711 190.216 114.039 190.603C113.377 190.99 112.608 191.183 111.732 191.183ZM119.312 195.583V181.833H120.84V183.04C121.258 182.623 121.742 182.297 122.292 182.062C122.842 181.828 123.432 181.711 124.064 181.711C124.909 181.711 125.673 181.925 126.355 182.353C127.048 182.77 127.598 183.336 128.005 184.049C128.423 184.762 128.632 185.551 128.632 186.417C128.632 187.282 128.423 188.072 128.005 188.785C127.598 189.498 127.048 190.068 126.355 190.496C125.673 190.913 124.909 191.122 124.064 191.122C123.463 191.122 122.898 191.015 122.368 190.801C121.838 190.587 121.37 190.292 120.962 189.915V195.583H119.312ZM123.85 189.625C124.43 189.625 124.955 189.482 125.423 189.197C125.902 188.902 126.279 188.515 126.554 188.036C126.839 187.547 126.982 187.007 126.982 186.417C126.982 185.826 126.839 185.291 126.554 184.812C126.279 184.324 125.902 183.937 125.423 183.651C124.955 183.356 124.43 183.208 123.85 183.208C123.269 183.208 122.74 183.356 122.261 183.651C121.792 183.937 121.416 184.324 121.13 184.812C120.855 185.291 120.718 185.826 120.718 186.417C120.718 187.007 120.855 187.547 121.13 188.036C121.416 188.515 121.792 188.902 122.261 189.197C122.74 189.482 123.269 189.625 123.85 189.625ZM147.223 191.458L137.598 181.146V191H135.948V176.792L145.573 187.104V177.25H147.223V191.458ZM154.985 191.183C154.027 191.183 153.166 190.969 152.403 190.542C151.649 190.114 151.053 189.533 150.615 188.8C150.187 188.056 149.973 187.231 149.973 186.325C149.973 185.459 150.182 184.675 150.6 183.972C151.017 183.259 151.578 182.694 152.28 182.276C152.993 181.859 153.778 181.65 154.633 181.65C155.479 181.65 156.253 181.854 156.955 182.261C157.658 182.658 158.218 183.198 158.636 183.881C159.054 184.563 159.262 185.337 159.262 186.203V186.875H153.273C153.009 186.875 152.739 186.865 152.464 186.844C152.189 186.824 151.919 186.794 151.654 186.753C151.766 187.568 152.133 188.25 152.754 188.8C153.385 189.35 154.134 189.625 155 189.625C155.58 189.625 156.12 189.493 156.619 189.228C157.118 188.963 157.521 188.612 157.826 188.174L158.285 190.053C157.847 190.409 157.342 190.689 156.772 190.893C156.212 191.087 155.616 191.183 154.985 191.183ZM151.608 185.637C152.158 185.546 152.713 185.5 153.273 185.5H156.314C156.538 185.5 156.757 185.51 156.971 185.531C157.195 185.541 157.419 185.556 157.643 185.576C157.5 184.863 157.144 184.278 156.573 183.819C156.003 183.351 155.356 183.117 154.633 183.117C153.89 183.117 153.238 183.366 152.678 183.865C152.117 184.354 151.761 184.945 151.608 185.637ZM159.763 191L162.987 186.142L160.115 181.833H162.04L162.926 183.239C163.119 183.534 163.308 183.845 163.491 184.171C163.684 184.487 163.853 184.812 163.995 185.149C164.148 184.812 164.316 184.487 164.499 184.171C164.693 183.855 164.886 183.544 165.08 183.239L165.951 181.833H167.845L164.973 186.142L168.196 191H166.241L164.988 188.999C164.805 188.703 164.621 188.408 164.438 188.112C164.255 187.807 164.092 187.491 163.949 187.165C163.807 187.491 163.644 187.807 163.46 188.112C163.277 188.408 163.094 188.703 162.91 188.999L161.658 191H159.763ZM170.505 191V183.208H168.427V181.833H170.551V178.778H172.109V181.833H174.385V183.208H172.155V191H170.505ZM178.51 184.858C178.174 184.858 177.889 184.746 177.655 184.522C177.431 184.288 177.319 184.003 177.319 183.667C177.319 183.331 177.431 183.05 177.655 182.826C177.889 182.592 178.174 182.475 178.51 182.475C178.857 182.475 179.142 182.592 179.366 182.826C179.59 183.05 179.702 183.331 179.702 183.667C179.702 184.003 179.59 184.288 179.366 184.522C179.142 184.746 178.857 184.858 178.51 184.858ZM178.51 190.358C178.174 190.358 177.889 190.246 177.655 190.022C177.431 189.788 177.319 189.503 177.319 189.167C177.319 188.831 177.431 188.55 177.655 188.326C177.889 188.092 178.174 187.975 178.51 187.975C178.857 187.975 179.142 188.092 179.366 188.326C179.59 188.55 179.702 188.831 179.702 189.167C179.702 189.503 179.59 189.788 179.366 190.022C179.142 190.246 178.857 190.358 178.51 190.358ZM192.46 191.458L186.929 177.25H188.763L192.002 185.531C192.104 185.795 192.195 186.05 192.277 186.294C192.368 186.529 192.455 186.804 192.536 187.119C192.618 186.804 192.699 186.529 192.781 186.294C192.872 186.05 192.969 185.795 193.071 185.531L196.295 177.25H198.021L192.491 191.458H192.46ZM199.664 191V181.833H201.314V191H199.664ZM200.489 180.183C200.183 180.183 199.924 180.076 199.71 179.862C199.496 179.649 199.389 179.389 199.389 179.083C199.389 178.768 199.496 178.508 199.71 178.304C199.924 178.09 200.183 177.983 200.489 177.983C200.805 177.983 201.064 178.09 201.268 178.304C201.482 178.508 201.589 178.768 201.589 179.083C201.589 179.389 201.482 179.649 201.268 179.862C201.064 180.076 200.805 180.183 200.489 180.183ZM207.586 191.458L202.957 181.833H204.836L206.7 185.806C206.873 186.162 207.036 186.513 207.189 186.86C207.341 187.206 207.489 187.629 207.632 188.128C207.785 187.629 207.937 187.206 208.09 186.86C208.253 186.503 208.416 186.152 208.579 185.806L210.458 181.833H212.215L207.586 191.458ZM213.865 191V181.833H215.515V191H213.865ZM214.69 180.183C214.385 180.183 214.125 180.076 213.911 179.862C213.697 179.649 213.59 179.389 213.59 179.083C213.59 178.768 213.697 178.508 213.911 178.304C214.125 178.09 214.385 177.983 214.69 177.983C215.006 177.983 215.266 178.09 215.469 178.304C215.683 178.508 215.79 178.768 215.79 179.083C215.79 179.389 215.683 179.649 215.469 179.862C215.266 180.076 215.006 180.183 214.69 180.183ZM222.368 191.122C221.532 191.122 220.769 190.913 220.076 190.496C219.383 190.068 218.828 189.498 218.411 188.785C218.003 188.072 217.8 187.282 217.8 186.417C217.8 185.551 218.003 184.762 218.411 184.049C218.828 183.336 219.383 182.77 220.076 182.353C220.769 181.925 221.532 181.711 222.368 181.711C222.999 181.711 223.59 181.828 224.14 182.062C224.7 182.297 225.184 182.623 225.591 183.04V181.833H227.119V191H225.591V189.793C225.184 190.2 224.7 190.526 224.14 190.771C223.59 191.005 222.999 191.122 222.368 191.122ZM222.582 189.625C223.162 189.625 223.687 189.482 224.155 189.197C224.634 188.902 225.011 188.515 225.286 188.036C225.571 187.547 225.713 187.007 225.713 186.417C225.713 185.826 225.571 185.291 225.286 184.812C225.011 184.324 224.634 183.937 224.155 183.651C223.687 183.356 223.162 183.208 222.582 183.208C222.001 183.208 221.471 183.356 220.993 183.651C220.524 183.937 220.147 184.324 219.862 184.812C219.587 185.291 219.45 185.826 219.45 186.417C219.45 187.007 219.587 187.547 219.862 188.036C220.147 188.515 220.524 188.902 220.993 189.197C221.471 189.482 222.001 189.625 222.582 189.625ZM230.043 191V181.833H231.571V183.315C231.907 182.775 232.34 182.363 232.869 182.078C233.409 181.793 233.99 181.65 234.611 181.65C235.263 181.65 235.864 181.813 236.414 182.139C236.974 182.455 237.427 182.918 237.773 183.529C238.12 184.13 238.293 184.863 238.293 185.729V191H236.643V185.958C236.643 185.235 236.424 184.599 235.986 184.049C235.558 183.488 234.952 183.208 234.168 183.208C233.526 183.208 232.951 183.443 232.441 183.911C231.942 184.369 231.693 185.037 231.693 185.912V191H230.043ZM244.427 191L250.248 176.792H250.279L256.1 191H254.251L252.632 186.921H247.819L246.184 191H244.427ZM248.4 185.469H252.051L250.966 182.75C250.834 182.404 250.707 182.062 250.584 181.726C250.462 181.39 250.34 180.988 250.218 180.519C250.095 180.988 249.978 181.39 249.866 181.726C249.754 182.052 249.627 182.394 249.484 182.75L248.4 185.469ZM257.844 191V176.333H259.494V191H257.844ZM262.42 191V176.333H264.07V191H262.42ZM271.365 191.183C270.408 191.183 269.547 190.969 268.783 190.542C268.03 190.114 267.434 189.533 266.996 188.8C266.568 188.056 266.354 187.231 266.354 186.325C266.354 185.459 266.563 184.675 266.981 183.972C267.398 183.259 267.958 182.694 268.661 182.276C269.374 181.859 270.158 181.65 271.014 181.65C271.859 181.65 272.633 181.854 273.336 182.261C274.039 182.658 274.599 183.198 275.017 183.881C275.434 184.563 275.643 185.337 275.643 186.203V186.875H269.654C269.389 186.875 269.12 186.865 268.845 186.844C268.57 186.824 268.3 186.794 268.035 186.753C268.147 187.568 268.514 188.25 269.135 188.8C269.766 189.35 270.515 189.625 271.381 189.625C271.961 189.625 272.501 189.493 273 189.228C273.499 188.963 273.902 188.612 274.207 188.174L274.665 190.053C274.227 190.409 273.723 190.689 273.153 190.893C272.593 191.087 271.997 191.183 271.365 191.183ZM267.989 185.637C268.539 185.546 269.094 185.5 269.654 185.5H272.695C272.919 185.5 273.138 185.51 273.352 185.531C273.576 185.541 273.8 185.556 274.024 185.576C273.881 184.863 273.525 184.278 272.954 183.819C272.384 183.351 271.737 183.117 271.014 183.117C270.271 183.117 269.619 183.366 269.058 183.865C268.498 184.354 268.142 184.945 267.989 185.637ZM277.846 191V181.833H279.373V183.315C279.709 182.775 280.142 182.363 280.672 182.078C281.212 181.793 281.792 181.65 282.414 181.65C283.065 181.65 283.666 181.813 284.216 182.139C284.777 182.455 285.23 182.918 285.576 183.529C285.922 184.13 286.096 184.863 286.096 185.729V191H284.446V185.958C284.446 185.235 284.227 184.599 283.789 184.049C283.361 183.488 282.755 183.208 281.971 183.208C281.329 183.208 280.753 183.443 280.244 183.911C279.745 184.369 279.496 185.037 279.496 185.912V191H277.846Z" fill="white"/>
<path d="M259.636 222.792L256.117 213.75H257.283L259.344 219.019C259.409 219.188 259.468 219.35 259.519 219.506C259.578 219.655 259.633 219.83 259.685 220.031C259.737 219.83 259.788 219.655 259.84 219.506C259.899 219.35 259.96 219.188 260.025 219.019L262.076 213.75H263.175L259.656 222.792H259.636ZM264.22 222.5V216.667H265.27V222.5H264.22ZM264.745 215.617C264.551 215.617 264.386 215.549 264.25 215.412C264.113 215.276 264.045 215.111 264.045 214.917C264.045 214.716 264.113 214.55 264.25 214.421C264.386 214.285 264.551 214.217 264.745 214.217C264.946 214.217 265.112 214.285 265.241 214.421C265.377 214.55 265.445 214.716 265.445 214.917C265.445 215.111 265.377 215.276 265.241 215.412C265.112 215.549 264.946 215.617 264.745 215.617ZM269.913 222.617C269.304 222.617 268.756 222.481 268.27 222.208C267.79 221.936 267.411 221.567 267.133 221.1C266.86 220.627 266.724 220.102 266.724 219.525C266.724 218.974 266.857 218.475 267.123 218.028C267.389 217.574 267.745 217.214 268.192 216.949C268.646 216.683 269.145 216.55 269.689 216.55C270.227 216.55 270.72 216.68 271.167 216.939C271.614 217.192 271.971 217.535 272.237 217.969C272.502 218.404 272.635 218.896 272.635 219.447V219.875H268.824C268.656 219.875 268.484 219.869 268.309 219.856C268.134 219.843 267.962 219.823 267.794 219.797C267.865 220.316 268.098 220.75 268.494 221.1C268.896 221.45 269.372 221.625 269.923 221.625C270.292 221.625 270.636 221.541 270.953 221.372C271.271 221.204 271.527 220.98 271.721 220.701L272.013 221.897C271.734 222.124 271.414 222.302 271.051 222.432C270.694 222.555 270.315 222.617 269.913 222.617ZM267.764 219.087C268.114 219.029 268.468 219 268.824 219H270.759C270.902 219 271.041 219.006 271.177 219.019C271.32 219.026 271.462 219.036 271.605 219.049C271.514 218.595 271.287 218.222 270.924 217.931C270.561 217.632 270.15 217.483 269.689 217.483C269.216 217.483 268.802 217.642 268.445 217.96C268.089 218.271 267.862 218.647 267.764 219.087ZM275.975 222.792L273.029 216.667H274.225L275.401 219.194C275.511 219.434 275.615 219.668 275.712 219.894C275.816 220.121 275.916 220.406 276.013 220.75C276.117 220.413 276.221 220.128 276.325 219.894C276.435 219.661 276.538 219.428 276.636 219.194L277.812 216.394L278.979 219.194C279.076 219.434 279.176 219.668 279.28 219.894C279.384 220.121 279.484 220.406 279.582 220.75C279.679 220.406 279.779 220.121 279.883 219.894C279.987 219.661 280.094 219.428 280.204 219.194L281.4 216.667H282.518L279.572 222.792L278.386 220.186C278.282 219.953 278.178 219.723 278.075 219.496C277.977 219.262 277.877 218.984 277.773 218.66C277.676 218.984 277.576 219.262 277.472 219.496C277.368 219.723 277.261 219.953 277.151 220.186L275.975 222.792ZM286.799 222.5V213.75H288.996C289.547 213.75 290.02 213.86 290.416 214.081C290.811 214.301 291.116 214.593 291.33 214.956C291.55 215.312 291.66 215.704 291.66 216.132C291.66 216.612 291.524 217.043 291.252 217.425C290.98 217.807 290.607 218.089 290.134 218.271L293.07 222.5H291.777L288.996 218.475H287.907V222.5H286.799ZM287.907 217.542H288.996C289.372 217.542 289.677 217.474 289.91 217.337C290.15 217.195 290.325 217.017 290.435 216.803C290.552 216.582 290.61 216.359 290.61 216.132C290.61 215.724 290.461 215.39 290.163 215.131C289.871 214.871 289.482 214.742 288.996 214.742H287.907V217.542ZM296.464 222.617C295.855 222.617 295.307 222.481 294.821 222.208C294.341 221.936 293.962 221.567 293.683 221.1C293.411 220.627 293.275 220.102 293.275 219.525C293.275 218.974 293.408 218.475 293.674 218.028C293.939 217.574 294.296 217.214 294.743 216.949C295.197 216.683 295.696 216.55 296.24 216.55C296.778 216.55 297.271 216.68 297.718 216.939C298.165 217.192 298.522 217.535 298.788 217.969C299.053 218.404 299.186 218.896 299.186 219.447V219.875H295.375C295.206 219.875 295.035 219.869 294.86 219.856C294.685 219.843 294.513 219.823 294.344 219.797C294.416 220.316 294.649 220.75 295.044 221.1C295.446 221.45 295.923 221.625 296.474 221.625C296.843 221.625 297.187 221.541 297.504 221.372C297.822 221.204 298.078 220.98 298.272 220.701L298.564 221.897C298.285 222.124 297.964 222.302 297.601 222.432C297.245 222.555 296.866 222.617 296.464 222.617ZM294.315 219.087C294.665 219.029 295.019 219 295.375 219H297.31C297.452 219 297.592 219.006 297.728 219.019C297.87 219.026 298.013 219.036 298.156 219.049C298.065 218.595 297.838 218.222 297.475 217.931C297.112 217.632 296.7 217.483 296.24 217.483C295.767 217.483 295.352 217.642 294.996 217.96C294.639 218.271 294.413 218.647 294.315 219.087ZM303.271 222.617C302.701 222.617 302.182 222.481 301.715 222.208C301.249 221.936 300.876 221.57 300.597 221.11C300.319 220.65 300.179 220.141 300.179 219.583C300.179 219.026 300.319 218.517 300.597 218.057C300.876 217.597 301.249 217.231 301.715 216.958C302.182 216.686 302.701 216.55 303.271 216.55C303.692 216.55 304.088 216.625 304.457 216.774C304.827 216.923 305.151 217.12 305.429 217.367L305.108 218.689C304.946 218.365 304.7 218.093 304.37 217.872C304.046 217.652 303.676 217.542 303.261 217.542C302.885 217.542 302.542 217.636 302.231 217.824C301.926 218.005 301.683 218.251 301.502 218.562C301.32 218.867 301.229 219.207 301.229 219.583C301.229 219.953 301.32 220.293 301.502 220.604C301.683 220.915 301.926 221.165 302.231 221.353C302.542 221.534 302.885 221.625 303.261 221.625C303.676 221.625 304.046 221.518 304.37 221.304C304.7 221.09 304.946 220.815 305.108 220.478L305.429 221.8C305.151 222.046 304.827 222.244 304.457 222.393C304.088 222.542 303.692 222.617 303.271 222.617ZM309.377 222.617C308.813 222.617 308.297 222.481 307.831 222.208C307.364 221.936 306.991 221.57 306.713 221.11C306.44 220.65 306.304 220.141 306.304 219.583C306.304 219.019 306.44 218.511 306.713 218.057C306.991 217.597 307.364 217.231 307.831 216.958C308.297 216.686 308.813 216.55 309.377 216.55C309.947 216.55 310.462 216.686 310.922 216.958C311.389 217.231 311.758 217.597 312.031 218.057C312.309 218.511 312.449 219.019 312.449 219.583C312.449 220.141 312.309 220.65 312.031 221.11C311.758 221.57 311.389 221.936 310.922 222.208C310.462 222.481 309.947 222.617 309.377 222.617ZM309.377 221.625C309.752 221.625 310.093 221.534 310.397 221.353C310.702 221.165 310.945 220.919 311.127 220.614C311.308 220.303 311.399 219.959 311.399 219.583C311.399 219.207 311.308 218.867 311.127 218.562C310.945 218.251 310.702 218.005 310.397 217.824C310.093 217.636 309.752 217.542 309.377 217.542C309.001 217.542 308.66 217.636 308.356 217.824C308.051 218.005 307.808 218.251 307.627 218.562C307.445 218.867 307.354 219.207 307.354 219.583C307.354 219.959 307.445 220.303 307.627 220.614C307.808 220.919 308.051 221.165 308.356 221.353C308.66 221.534 309.001 221.625 309.377 221.625ZM313.904 222.5V216.667H314.876V217.736C315.084 217.393 315.359 217.12 315.703 216.919C316.046 216.712 316.454 216.608 316.928 216.608L317.19 217.658C317.067 217.619 316.924 217.6 316.762 217.6C316.218 217.6 315.78 217.775 315.45 218.125C315.119 218.469 314.954 218.961 314.954 219.603V222.5H313.904ZM320.586 222.578C320.055 222.578 319.569 222.445 319.128 222.179C318.687 221.907 318.334 221.544 318.068 221.09C317.809 220.637 317.679 220.134 317.679 219.583C317.679 219.032 317.809 218.53 318.068 218.076C318.334 217.623 318.687 217.263 319.128 216.997C319.569 216.725 320.055 216.589 320.586 216.589C320.969 216.589 321.328 216.657 321.665 216.793C322.002 216.929 322.301 217.117 322.56 217.357V213.167H323.61V222.5H322.638V221.732C322.378 221.991 322.071 222.199 321.714 222.354C321.364 222.503 320.988 222.578 320.586 222.578ZM320.722 221.625C321.092 221.625 321.426 221.534 321.724 221.353C322.028 221.165 322.268 220.919 322.443 220.614C322.625 220.303 322.715 219.959 322.715 219.583C322.715 219.207 322.625 218.867 322.443 218.562C322.268 218.251 322.028 218.005 321.724 217.824C321.426 217.636 321.092 217.542 320.722 217.542C320.353 217.542 320.016 217.636 319.711 217.824C319.413 218.005 319.173 218.251 318.992 218.562C318.817 218.867 318.729 219.207 318.729 219.583C318.729 219.959 318.817 220.303 318.992 220.614C319.173 220.919 319.413 221.165 319.711 221.353C320.016 221.534 320.353 221.625 320.722 221.625Z" fill="white"/>
<path d="M338.5 218H351M351 218L345 224M351 218L345 212" stroke="white" stroke-width="1.5" stroke-linecap="round" stroke-linejoin="round"/>
<path d="M24.4444 295.189C23.7778 295.189 23.1852 295.048 22.6667 294.767C22.1481 294.478 21.7407 294.078 21.4444 293.567C21.1481 293.048 21 292.441 21 291.744V285H22.6667V291.667C22.6667 292.267 22.837 292.748 23.1778 293.111C23.5185 293.467 23.9519 293.644 24.4778 293.644C24.9889 293.644 25.4148 293.47 25.7556 293.122C26.1037 292.767 26.2778 292.3 26.2778 291.722V285H27.8889V291.7C27.8889 292.404 27.7407 293.019 27.4444 293.544C27.1556 294.07 26.7519 294.478 26.2333 294.767C25.7222 295.048 25.1259 295.189 24.4444 295.189ZM29.7906 295V288.333H31.2128V289.511C31.4499 289.126 31.7536 288.822 32.124 288.6C32.4943 288.378 32.9351 288.267 33.4462 288.267L33.8017 289.722C33.661 289.678 33.5017 289.656 33.324 289.656C32.7314 289.656 32.2536 289.844 31.8906 290.222C31.5351 290.6 31.3573 291.141 31.3573 291.844V295H29.7906ZM37.4344 298.511C36.9233 298.511 36.4455 298.437 36.001 298.289C35.5566 298.141 35.1677 297.937 34.8344 297.678L35.2344 296.033C35.464 296.352 35.7677 296.611 36.1455 296.811C36.5233 297.019 36.9529 297.122 37.4344 297.122C38.1455 297.122 38.7122 296.911 39.1344 296.489C39.5566 296.074 39.7677 295.533 39.7677 294.867V294.233C39.4936 294.515 39.1677 294.737 38.7899 294.9C38.4122 295.056 38.001 295.133 37.5566 295.133C36.9492 295.133 36.3936 294.978 35.8899 294.667C35.3862 294.356 34.9825 293.937 34.6788 293.411C34.3825 292.885 34.2344 292.304 34.2344 291.667C34.2344 291.03 34.3825 290.448 34.6788 289.922C34.9825 289.396 35.3862 288.978 35.8899 288.667C36.3936 288.356 36.9492 288.2 37.5566 288.2C38.001 288.2 38.4122 288.281 38.7899 288.444C39.1751 288.6 39.5047 288.822 39.7788 289.111V288.333H41.1677V295.044C41.1677 295.77 40.9936 296.393 40.6455 296.911C40.3047 297.43 39.8492 297.826 39.2788 298.1C38.7084 298.374 38.0936 298.511 37.4344 298.511ZM37.7566 293.733C38.127 293.733 38.464 293.641 38.7677 293.456C39.0788 293.27 39.3233 293.022 39.501 292.711C39.6862 292.4 39.7788 292.052 39.7788 291.667C39.7788 291.289 39.6862 290.944 39.501 290.633C39.3233 290.315 39.0825 290.063 38.7788 289.878C38.4751 289.693 38.1344 289.6 37.7566 289.6C37.3862 289.6 37.0455 289.693 36.7344 289.878C36.4307 290.063 36.1862 290.311 36.001 290.622C35.8233 290.933 35.7344 291.281 35.7344 291.667C35.7344 292.044 35.8233 292.393 36.001 292.711C36.1862 293.022 36.4307 293.27 36.7344 293.456C37.0381 293.641 37.3788 293.733 37.7566 293.733ZM46.2736 295.178C45.5551 295.178 44.9144 295.022 44.3514 294.711C43.7884 294.4 43.3477 293.974 43.0292 293.433C42.7181 292.893 42.5625 292.281 42.5625 291.6C42.5625 290.948 42.7144 290.363 43.0181 289.844C43.3292 289.326 43.744 288.915 44.2625 288.611C44.7884 288.307 45.3662 288.156 45.9958 288.156C46.6329 288.156 47.2069 288.304 47.7181 288.6C48.2366 288.896 48.6477 289.3 48.9514 289.811C49.2551 290.315 49.4069 290.889 49.4069 291.533V292.122H45.1958C45.0106 292.122 44.8255 292.115 44.6403 292.1C44.4551 292.078 44.2699 292.052 44.0847 292.022C44.1736 292.533 44.4181 292.959 44.8181 293.3C45.2255 293.641 45.7218 293.811 46.3069 293.811C46.7292 293.811 47.1144 293.722 47.4625 293.544C47.8106 293.359 48.0958 293.122 48.3181 292.833L48.6958 294.389C48.3699 294.648 47.9995 294.844 47.5847 294.978C47.1699 295.111 46.7329 295.178 46.2736 295.178ZM44.0514 291.022C44.4366 290.948 44.8181 290.911 45.1958 290.911H46.8847C47.0699 290.911 47.2477 290.919 47.4181 290.933C47.5958 290.948 47.7662 290.967 47.9292 290.989C47.8181 290.537 47.5847 290.17 47.2292 289.889C46.881 289.6 46.4662 289.456 45.9847 289.456C45.5181 289.456 45.1069 289.604 44.7514 289.9C44.3958 290.196 44.1625 290.57 44.0514 291.022ZM50.7438 295V288.333H52.166V289.233C52.4104 288.885 52.7141 288.619 53.0771 288.433C53.4475 288.248 53.8475 288.156 54.2771 288.156C54.7512 288.156 55.1919 288.27 55.5993 288.5C56.0067 288.73 56.3363 289.063 56.5882 289.5C56.84 289.937 56.966 290.467 56.966 291.089V295H55.3993V291.3C55.3993 290.856 55.2623 290.459 54.9882 290.111C54.7215 289.763 54.3438 289.589 53.8549 289.589C53.4549 289.589 53.0956 289.73 52.7771 290.011C52.466 290.293 52.3104 290.711 52.3104 291.267V295H50.7438ZM59.1934 295V289.6H57.8156V288.333H59.2267V286.111H60.7267V288.333H62.2156V289.6H60.7601V295H59.1934ZM67.0771 295V284.667L71.7771 290.822L76.3882 284.667V295H74.7882V291.256C74.7882 290.944 74.7919 290.596 74.7993 290.211C74.8067 289.826 74.8363 289.389 74.8882 288.9C74.6586 289.293 74.4363 289.637 74.2215 289.933C74.0067 290.23 73.8104 290.5 73.6326 290.744L71.7326 293.378L69.7771 290.744C69.5993 290.507 69.3993 290.233 69.1771 289.922C68.9549 289.611 68.7326 289.263 68.5104 288.878C68.5623 289.381 68.5919 289.826 68.5993 290.211C68.6067 290.589 68.6104 290.937 68.6104 291.256V295H67.0771ZM81.8361 295.178C81.1176 295.178 80.4769 295.022 79.9139 294.711C79.3509 294.4 78.9102 293.974 78.5917 293.433C78.2806 292.893 78.125 292.281 78.125 291.6C78.125 290.948 78.2769 290.363 78.5806 289.844C78.8917 289.326 79.3065 288.915 79.825 288.611C80.3509 288.307 80.9287 288.156 81.5583 288.156C82.1954 288.156 82.7694 288.304 83.2806 288.6C83.7991 288.896 84.2102 289.3 84.5139 289.811C84.8176 290.315 84.9694 290.889 84.9694 291.533V292.122H80.7583C80.5731 292.122 80.388 292.115 80.2028 292.1C80.0176 292.078 79.8324 292.052 79.6472 292.022C79.7361 292.533 79.9806 292.959 80.3806 293.3C80.788 293.641 81.2843 293.811 81.8694 293.811C82.2917 293.811 82.6769 293.722 83.025 293.544C83.3731 293.359 83.6583 293.122 83.8806 292.833L84.2583 294.389C83.9324 294.648 83.562 294.844 83.1472 294.978C82.7324 295.111 82.2954 295.178 81.8361 295.178ZM79.6139 291.022C79.9991 290.948 80.3806 290.911 80.7583 290.911H82.4472C82.6324 290.911 82.8102 290.919 82.9806 290.933C83.1583 290.948 83.3287 290.967 83.4917 290.989C83.3806 290.537 83.1472 290.17 82.7917 289.889C82.4435 289.6 82.0287 289.456 81.5472 289.456C81.0806 289.456 80.6694 289.604 80.3139 289.9C79.9583 290.196 79.725 290.57 79.6139 291.022ZM88.2618 295.178C87.8618 295.178 87.447 295.111 87.0174 294.978C86.5951 294.837 86.2507 294.626 85.984 294.344L86.384 292.778C86.5988 293.096 86.884 293.363 87.2396 293.578C87.5951 293.793 87.9655 293.9 88.3507 293.9C88.6692 293.9 88.9025 293.83 89.0507 293.689C89.1988 293.548 89.2729 293.378 89.2729 293.178C89.2729 292.956 89.1951 292.793 89.0396 292.689C88.884 292.578 88.7359 292.496 88.5951 292.444L87.6729 292.1C87.4877 292.026 87.2692 291.922 87.0174 291.789C86.7729 291.648 86.5581 291.452 86.3729 291.2C86.1877 290.948 86.0951 290.619 86.0951 290.211C86.0951 289.841 86.184 289.5 86.3618 289.189C86.547 288.878 86.81 288.63 87.1507 288.444C87.4914 288.252 87.8988 288.156 88.3729 288.156C88.7803 288.156 89.1766 288.226 89.5618 288.367C89.9544 288.507 90.2618 288.696 90.484 288.933L90.0951 290.478C89.8803 290.152 89.61 289.896 89.284 289.711C88.9655 289.526 88.647 289.433 88.3285 289.433C88.0544 289.433 87.847 289.5 87.7062 289.633C87.5655 289.767 87.4951 289.922 87.4951 290.1C87.4951 290.233 87.5433 290.359 87.6396 290.478C87.7359 290.589 87.8914 290.685 88.1063 290.767L88.984 291.1C89.1914 291.174 89.4248 291.281 89.684 291.422C89.9507 291.563 90.1803 291.763 90.3729 292.022C90.5655 292.281 90.6618 292.633 90.6618 293.078C90.6618 293.7 90.4359 294.207 89.984 294.6C89.5396 294.985 88.9655 295.178 88.2618 295.178ZM94.0431 295.178C93.6431 295.178 93.2282 295.111 92.7986 294.978C92.3764 294.837 92.0319 294.626 91.7653 294.344L92.1653 292.778C92.3801 293.096 92.6653 293.363 93.0208 293.578C93.3764 293.793 93.7468 293.9 94.1319 293.9C94.4505 293.9 94.6838 293.83 94.8319 293.689C94.9801 293.548 95.0542 293.378 95.0542 293.178C95.0542 292.956 94.9764 292.793 94.8208 292.689C94.6653 292.578 94.5171 292.496 94.3764 292.444L93.4542 292.1C93.269 292.026 93.0505 291.922 92.7986 291.789C92.5542 291.648 92.3394 291.452 92.1542 291.2C91.969 290.948 91.8764 290.619 91.8764 290.211C91.8764 289.841 91.9653 289.5 92.1431 289.189C92.3282 288.878 92.5912 288.63 92.9319 288.444C93.2727 288.252 93.6801 288.156 94.1542 288.156C94.5616 288.156 94.9579 288.226 95.3431 288.367C95.7356 288.507 96.0431 288.696 96.2653 288.933L95.8764 290.478C95.6616 290.152 95.3912 289.896 95.0653 289.711C94.7468 289.526 94.4282 289.433 94.1097 289.433C93.8356 289.433 93.6282 289.5 93.4875 289.633C93.3468 289.767 93.2764 289.922 93.2764 290.1C93.2764 290.233 93.3245 290.359 93.4208 290.478C93.5171 290.589 93.6727 290.685 93.8875 290.767L94.7653 291.1C94.9727 291.174 95.206 291.281 95.4653 291.422C95.7319 291.563 95.9616 291.763 96.1542 292.022C96.3468 292.281 96.4431 292.633 96.4431 293.078C96.4431 293.7 96.2171 294.207 95.7653 294.6C95.3208 294.985 94.7468 295.178 94.0431 295.178ZM100.791 295.133C100.184 295.133 99.628 294.978 99.1243 294.667C98.6206 294.356 98.2169 293.937 97.9132 293.411C97.6169 292.885 97.4688 292.304 97.4688 291.667C97.4688 291.03 97.6169 290.448 97.9132 289.922C98.2169 289.396 98.6206 288.978 99.1243 288.667C99.628 288.356 100.184 288.2 100.791 288.2C101.235 288.2 101.647 288.281 102.024 288.444C102.409 288.6 102.739 288.822 103.013 289.111V288.333H104.402V295H103.013V294.222C102.739 294.504 102.409 294.726 102.024 294.889C101.647 295.052 101.235 295.133 100.791 295.133ZM100.991 293.733C101.361 293.733 101.698 293.641 102.002 293.456C102.313 293.27 102.558 293.022 102.735 292.711C102.921 292.4 103.013 292.052 103.013 291.667C103.013 291.289 102.921 290.944 102.735 290.633C102.558 290.315 102.317 290.063 102.013 289.878C101.709 289.693 101.369 289.6 100.991 289.6C100.621 289.6 100.28 289.693 99.9688 289.878C99.665 290.063 99.4206 290.311 99.2354 290.622C99.0576 290.933 98.9688 291.281 98.9688 291.667C98.9688 292.044 99.0576 292.393 99.2354 292.711C99.4206 293.022 99.665 293.27 99.9688 293.456C100.272 293.641 100.613 293.733 100.991 293.733ZM108.997 298.511C108.486 298.511 108.008 298.437 107.564 298.289C107.119 298.141 106.73 297.937 106.397 297.678L106.797 296.033C107.027 296.352 107.33 296.611 107.708 296.811C108.086 297.019 108.515 297.122 108.997 297.122C109.708 297.122 110.275 296.911 110.697 296.489C111.119 296.074 111.33 295.533 111.33 294.867V294.233C111.056 294.515 110.73 294.737 110.352 294.9C109.975 295.056 109.564 295.133 109.119 295.133C108.512 295.133 107.956 294.978 107.452 294.667C106.949 294.356 106.545 293.937 106.241 293.411C105.945 292.885 105.797 292.304 105.797 291.667C105.797 291.03 105.945 290.448 106.241 289.922C106.545 289.396 106.949 288.978 107.452 288.667C107.956 288.356 108.512 288.2 109.119 288.2C109.564 288.2 109.975 288.281 110.352 288.444C110.738 288.6 111.067 288.822 111.341 289.111V288.333H112.73V295.044C112.73 295.77 112.556 296.393 112.208 296.911C111.867 297.43 111.412 297.826 110.841 298.1C110.271 298.374 109.656 298.511 108.997 298.511ZM109.319 293.733C109.689 293.733 110.027 293.641 110.33 293.456C110.641 293.27 110.886 293.022 111.064 292.711C111.249 292.4 111.341 292.052 111.341 291.667C111.341 291.289 111.249 290.944 111.064 290.633C110.886 290.315 110.645 290.063 110.341 289.878C110.038 289.693 109.697 289.6 109.319 289.6C108.949 289.6 108.608 289.693 108.297 289.878C107.993 290.063 107.749 290.311 107.564 290.622C107.386 290.933 107.297 291.281 107.297 291.667C107.297 292.044 107.386 292.393 107.564 292.711C107.749 293.022 107.993 293.27 108.297 293.456C108.601 293.641 108.941 293.733 109.319 293.733ZM117.836 295.178C117.118 295.178 116.477 295.022 115.914 294.711C115.351 294.4 114.91 293.974 114.592 293.433C114.281 292.893 114.125 292.281 114.125 291.6C114.125 290.948 114.277 290.363 114.581 289.844C114.892 289.326 115.306 288.915 115.825 288.611C116.351 288.307 116.929 288.156 117.558 288.156C118.195 288.156 118.769 288.304 119.281 288.6C119.799 288.896 120.21 289.3 120.514 289.811C120.818 290.315 120.969 290.889 120.969 291.533V292.122H116.758C116.573 292.122 116.388 292.115 116.203 292.1C116.018 292.078 115.832 292.052 115.647 292.022C115.736 292.533 115.981 292.959 116.381 293.3C116.788 293.641 117.284 293.811 117.869 293.811C118.292 293.811 118.677 293.722 119.025 293.544C119.373 293.359 119.658 293.122 119.881 292.833L120.258 294.389C119.932 294.648 119.562 294.844 119.147 294.978C118.732 295.111 118.295 295.178 117.836 295.178ZM115.614 291.022C115.999 290.948 116.381 290.911 116.758 290.911H118.447C118.632 290.911 118.81 290.919 118.981 290.933C119.158 290.948 119.329 290.967 119.492 290.989C119.381 290.537 119.147 290.17 118.792 289.889C118.444 289.6 118.029 289.456 117.547 289.456C117.081 289.456 116.669 289.604 116.314 289.9C115.958 290.196 115.725 290.57 115.614 291.022ZM124.262 295.178C123.862 295.178 123.447 295.111 123.017 294.978C122.595 294.837 122.251 294.626 121.984 294.344L122.384 292.778C122.599 293.096 122.884 293.363 123.24 293.578C123.595 293.793 123.966 293.9 124.351 293.9C124.669 293.9 124.903 293.83 125.051 293.689C125.199 293.548 125.273 293.378 125.273 293.178C125.273 292.956 125.195 292.793 125.04 292.689C124.884 292.578 124.736 292.496 124.595 292.444L123.673 292.1C123.488 292.026 123.269 291.922 123.017 291.789C122.773 291.648 122.558 291.452 122.373 291.2C122.188 290.948 122.095 290.619 122.095 290.211C122.095 289.841 122.184 289.5 122.362 289.189C122.547 288.878 122.81 288.63 123.151 288.444C123.491 288.252 123.899 288.156 124.373 288.156C124.78 288.156 125.177 288.226 125.562 288.367C125.954 288.507 126.262 288.696 126.484 288.933L126.095 290.478C125.88 290.152 125.61 289.896 125.284 289.711C124.966 289.526 124.647 289.433 124.328 289.433C124.054 289.433 123.847 289.5 123.706 289.633C123.566 289.767 123.495 289.922 123.495 290.1C123.495 290.233 123.543 290.359 123.64 290.478C123.736 290.589 123.891 290.685 124.106 290.767L124.984 291.1C125.191 291.174 125.425 291.281 125.684 291.422C125.951 291.563 126.18 291.763 126.373 292.022C126.566 292.281 126.662 292.633 126.662 293.078C126.662 293.7 126.436 294.207 125.984 294.6C125.54 294.985 124.966 295.178 124.262 295.178Z" fill="black"/>
<rect x="20.5" y="308.5" width="352" height="74" rx="4.5" fill="#FBA1A1"/>
<rect x="20.5" y="308.5" width="352" height="74" rx="4.5" stroke="#F86363"/>
<path d="M39.125 336.1C38.6861 336.1 38.3028 335.992 37.975 335.775C37.6472 335.553 37.3722 335.258 37.15 334.892C36.9333 334.519 36.7694 334.106 36.6583 333.65C36.5528 333.189 36.5 332.722 36.5 332.25C36.5 331.778 36.5528 331.314 36.6583 330.858C36.7694 330.397 36.9333 329.983 37.15 329.617C37.3722 329.244 37.6472 328.95 37.975 328.733C38.3028 328.511 38.6861 328.4 39.125 328.4C39.5639 328.4 39.9472 328.511 40.275 328.733C40.6028 328.95 40.875 329.244 41.0917 329.617C41.3139 329.983 41.4778 330.397 41.5833 330.858C41.6944 331.314 41.75 331.778 41.75 332.25C41.75 332.722 41.6944 333.189 41.5833 333.65C41.4778 334.106 41.3139 334.519 41.0917 334.892C40.875 335.258 40.6028 335.553 40.275 335.775C39.9472 335.992 39.5639 336.1 39.125 336.1ZM39.125 335.25C39.4194 335.25 39.6722 335.161 39.8833 334.983C40.0944 334.806 40.2667 334.569 40.4 334.275C40.5333 333.981 40.6333 333.658 40.7 333.308C40.7667 332.953 40.8 332.6 40.8 332.25C40.8 331.9 40.7667 331.55 40.7 331.2C40.6333 330.844 40.5333 330.519 40.4 330.225C40.2667 329.931 40.0944 329.694 39.8833 329.517C39.6722 329.339 39.4194 329.25 39.125 329.25C38.8361 329.25 38.5833 329.339 38.3667 329.517C38.1556 329.694 37.9833 329.931 37.85 330.225C37.7167 330.519 37.6167 330.844 37.55 331.2C37.4833 331.55 37.45 331.9 37.45 332.25C37.45 332.6 37.4833 332.953 37.55 333.308C37.6167 333.658 37.7167 333.981 37.85 334.275C37.9833 334.569 38.1556 334.806 38.3667 334.983C38.5833 335.161 38.8361 335.25 39.125 335.25ZM44.5461 336L46.1544 333.042C46.0044 333.153 45.8489 333.231 45.6878 333.275C45.5266 333.314 45.3655 333.333 45.2044 333.333C44.7711 333.333 44.3711 333.228 44.0044 333.017C43.6433 332.8 43.3516 332.508 43.1294 332.142C42.9072 331.775 42.7961 331.358 42.7961 330.892C42.7961 330.419 42.91 329.997 43.1378 329.625C43.3711 329.247 43.6794 328.95 44.0628 328.733C44.4516 328.511 44.8794 328.4 45.3461 328.4C45.8183 328.4 46.2461 328.511 46.6294 328.733C47.0128 328.95 47.3183 329.247 47.5461 329.625C47.7794 329.997 47.8961 330.419 47.8961 330.892C47.8961 331.108 47.8683 331.317 47.8128 331.517C47.7628 331.717 47.6905 331.908 47.5961 332.092L45.5794 336H44.5461ZM45.3461 332.55C45.6516 332.55 45.9294 332.478 46.1794 332.333C46.4294 332.183 46.6266 331.983 46.7711 331.733C46.9211 331.483 46.9961 331.206 46.9961 330.9C46.9961 330.594 46.9211 330.317 46.7711 330.067C46.6266 329.817 46.4294 329.619 46.1794 329.475C45.9294 329.325 45.6516 329.25 45.3461 329.25C45.0405 329.25 44.7628 329.325 44.5128 329.475C44.2628 329.619 44.0628 329.817 43.9128 330.067C43.7683 330.317 43.6961 330.594 43.6961 330.9C43.6961 331.206 43.7683 331.483 43.9128 331.733C44.0628 331.983 44.2628 332.183 44.5128 332.333C44.7628 332.478 45.0405 332.55 45.3461 332.55ZM50.4922 331.4C50.3089 331.4 50.1533 331.339 50.0255 331.217C49.9033 331.089 49.8422 330.933 49.8422 330.75C49.8422 330.567 49.9033 330.414 50.0255 330.292C50.1533 330.164 50.3089 330.1 50.4922 330.1C50.6811 330.1 50.8366 330.164 50.9589 330.292C51.0811 330.414 51.1422 330.567 51.1422 330.75C51.1422 330.933 51.0811 331.089 50.9589 331.217C50.8366 331.339 50.6811 331.4 50.4922 331.4ZM50.4922 334.4C50.3089 334.4 50.1533 334.339 50.0255 334.217C49.9033 334.089 49.8422 333.933 49.8422 333.75C49.8422 333.567 49.9033 333.414 50.0255 333.292C50.1533 333.164 50.3089 333.1 50.4922 333.1C50.6811 333.1 50.8366 333.164 50.9589 333.292C51.0811 333.414 51.1422 333.567 51.1422 333.75C51.1422 333.933 51.0811 334.089 50.9589 334.217C50.8366 334.339 50.6811 334.4 50.4922 334.4ZM55.3383 336.1C54.8605 336.1 54.4216 335.989 54.0216 335.767C53.6272 335.544 53.3161 335.239 53.0883 334.85L53.6383 333.758C53.6994 334.186 53.8883 334.542 54.2049 334.825C54.5272 335.108 54.9049 335.25 55.3383 335.25C55.6549 335.25 55.9411 335.175 56.1966 335.025C56.4577 334.869 56.6633 334.664 56.8133 334.408C56.9633 334.153 57.0383 333.867 57.0383 333.55C57.0383 333.239 56.9605 332.956 56.8049 332.7C56.6549 332.439 56.4522 332.233 56.1966 332.083C55.9411 331.928 55.6549 331.85 55.3383 331.85C55.1827 331.85 55.0355 331.869 54.8966 331.908C54.7633 331.947 54.6411 331.997 54.5299 332.058L55.9549 329.3H53.6383V328.5H57.3383L55.9299 331.125C56.3022 331.197 56.6383 331.347 56.9383 331.575C57.2438 331.803 57.4855 332.086 57.6633 332.425C57.8466 332.758 57.9383 333.133 57.9383 333.55C57.9383 334.028 57.8216 334.461 57.5883 334.85C57.3549 335.233 57.0411 335.539 56.6466 335.767C56.2522 335.989 55.8161 336.1 55.3383 336.1ZM59.726 336L62.7344 331.525C62.8733 331.314 62.9677 331.131 63.0177 330.975C63.0733 330.819 63.101 330.675 63.101 330.542C63.101 330.181 62.9733 329.875 62.7177 329.625C62.4622 329.375 62.151 329.25 61.7844 329.25C61.4177 329.25 61.1066 329.375 60.851 329.625C60.601 329.875 60.476 330.181 60.476 330.542C60.476 330.942 60.6455 331.278 60.9844 331.55H59.8427C59.6649 331.211 59.576 330.875 59.576 330.542C59.576 330.136 59.676 329.772 59.876 329.45C60.076 329.128 60.3427 328.872 60.676 328.683C61.0149 328.494 61.3872 328.4 61.7927 328.4C62.1983 328.4 62.5677 328.494 62.901 328.683C63.2344 328.872 63.501 329.128 63.701 329.45C63.901 329.772 64.001 330.136 64.001 330.542C64.001 330.781 63.9622 331.017 63.8844 331.25C63.8066 331.478 63.6705 331.731 63.476 332.008L61.3094 335.15H64.1427V336H59.726ZM70.4182 336.067C69.9627 336.067 69.546 335.953 69.1682 335.725C68.7905 335.492 68.4877 335.181 68.2599 334.792C68.0377 334.403 67.9266 333.972 67.9266 333.5C67.9266 333.028 68.0377 332.597 68.2599 332.208C68.4877 331.819 68.7905 331.511 69.1682 331.283C69.546 331.05 69.9627 330.933 70.4182 330.933C70.7627 330.933 71.0849 330.997 71.3849 331.125C71.6905 331.253 71.9543 331.431 72.1766 331.658V331H73.0099V336H72.1766V335.342C71.9543 335.564 71.6905 335.742 71.3849 335.875C71.0849 336.003 70.7627 336.067 70.4182 336.067ZM70.5349 335.25C70.8516 335.25 71.1377 335.172 71.3932 335.017C71.6543 334.856 71.8599 334.644 72.0099 334.383C72.1655 334.117 72.2432 333.822 72.2432 333.5C72.2432 333.178 72.1655 332.886 72.0099 332.625C71.8599 332.358 71.6543 332.147 71.3932 331.992C71.1377 331.831 70.8516 331.75 70.5349 331.75C70.2182 331.75 69.9293 331.831 69.6682 331.992C69.4127 332.147 69.2071 332.358 69.0516 332.625C68.9016 332.886 68.8266 333.178 68.8266 333.5C68.8266 333.822 68.9016 334.117 69.0516 334.383C69.2071 334.644 69.4127 334.856 69.6682 335.017C69.9293 335.172 70.2182 335.25 70.5349 335.25ZM74.6047 336V331H75.438V331.717C75.6214 331.444 75.8519 331.242 76.1297 331.108C76.413 330.969 76.7102 330.9 77.0214 330.9C77.3602 330.9 77.6714 330.981 77.9547 331.142C78.238 331.297 78.4658 331.517 78.638 331.8C78.8325 331.5 79.0825 331.275 79.388 331.125C79.6991 330.975 80.0269 330.9 80.3714 330.9C80.7491 330.9 81.0936 330.989 81.4047 331.167C81.7214 331.344 81.9714 331.594 82.1547 331.917C82.3436 332.233 82.438 332.608 82.438 333.042V336H81.538V333.15C81.538 332.694 81.4075 332.35 81.1464 332.117C80.8908 331.878 80.5936 331.758 80.2547 331.758C80.0436 331.758 79.838 331.806 79.638 331.9C79.4436 331.994 79.2825 332.142 79.1547 332.342C79.0325 332.542 78.9714 332.803 78.9714 333.125V336H78.0714V333.15C78.0714 332.833 78.0075 332.572 77.8797 332.367C77.7575 332.161 77.5964 332.008 77.3964 331.908C77.2019 331.803 76.9991 331.75 76.788 331.75C76.5825 331.75 76.3797 331.797 76.1797 331.892C75.9852 331.986 75.8241 332.133 75.6964 332.333C75.5686 332.533 75.5047 332.797 75.5047 333.125V336H74.6047ZM85.8789 333.9V333.1H88.3789V333.9H85.8789ZM92.175 336V328.5H94.6333C95.3111 328.5 95.9 328.611 96.4 328.833C96.9056 329.056 97.3222 329.35 97.65 329.717C97.9778 330.083 98.2222 330.489 98.3833 330.933C98.5444 331.372 98.625 331.811 98.625 332.25C98.625 332.689 98.5444 333.131 98.3833 333.575C98.2222 334.014 97.9778 334.417 97.65 334.783C97.3222 335.15 96.9056 335.444 96.4 335.667C95.9 335.889 95.3111 336 94.6333 336H92.175ZM93.125 335.15H94.5333C95.1111 335.15 95.5972 335.061 95.9917 334.883C96.3861 334.7 96.7056 334.464 96.95 334.175C97.1944 333.881 97.3694 333.564 97.475 333.225C97.5861 332.886 97.6417 332.561 97.6417 332.25C97.6417 331.939 97.5861 331.614 97.475 331.275C97.3694 330.936 97.1944 330.622 96.95 330.333C96.7056 330.039 96.3861 329.803 95.9917 329.625C95.5972 329.442 95.1111 329.35 94.5333 329.35H93.125V335.15ZM99.9289 336V331H100.762V331.917C100.94 331.622 101.176 331.389 101.471 331.217C101.765 331.039 102.115 330.95 102.521 330.95L102.746 331.85C102.64 331.817 102.518 331.8 102.379 331.8C101.912 331.8 101.537 331.95 101.254 332.25C100.971 332.544 100.829 332.967 100.829 333.517V336H99.9289ZM103.5 336.1C103.317 336.1 103.161 336.039 103.033 335.917C102.911 335.789 102.85 335.633 102.85 335.45C102.85 335.267 102.911 335.114 103.033 334.992C103.161 334.864 103.317 334.8 103.5 334.8C103.689 334.8 103.844 334.864 103.967 334.992C104.089 335.114 104.15 335.267 104.15 335.45C104.15 335.633 104.089 335.789 103.967 335.917C103.844 336.039 103.689 336.1 103.5 336.1ZM108.171 336V328.5H109.121V330.95H111.788V328.5H112.738V336H111.788V331.8H109.121V336H108.171ZM116.872 336.1C116.389 336.1 115.947 335.983 115.547 335.75C115.147 335.517 114.828 335.203 114.589 334.808C114.356 334.414 114.239 333.978 114.239 333.5C114.239 333.017 114.356 332.581 114.589 332.192C114.828 331.797 115.147 331.483 115.547 331.25C115.947 331.017 116.389 330.9 116.872 330.9C117.361 330.9 117.803 331.017 118.197 331.25C118.597 331.483 118.914 331.797 119.147 332.192C119.386 332.581 119.506 333.017 119.506 333.5C119.506 333.978 119.386 334.414 119.147 334.808C118.914 335.203 118.597 335.517 118.197 335.75C117.803 335.983 117.361 336.1 116.872 336.1ZM116.872 335.25C117.195 335.25 117.486 335.172 117.747 335.017C118.009 334.856 118.217 334.644 118.372 334.383C118.528 334.117 118.606 333.822 118.606 333.5C118.606 333.178 118.528 332.886 118.372 332.625C118.217 332.358 118.009 332.147 117.747 331.992C117.486 331.831 117.195 331.75 116.872 331.75C116.55 331.75 116.259 331.831 115.997 331.992C115.736 332.147 115.528 332.358 115.372 332.625C115.217 332.886 115.139 333.178 115.139 333.5C115.139 333.822 115.217 334.117 115.372 334.383C115.528 334.644 115.736 334.856 115.997 335.017C116.259 335.172 116.55 335.25 116.872 335.25ZM120.753 336V328H121.653V336H120.753ZM123.249 336V328H124.149V336H123.249ZM125.537 338.5L127.162 335.267L125.045 331H126.062L127.129 333.167C127.223 333.361 127.315 333.553 127.404 333.742C127.493 333.931 127.581 334.158 127.67 334.425C127.765 334.158 127.854 333.931 127.937 333.742C128.026 333.547 128.12 333.356 128.22 333.167L129.304 331H130.262L126.512 338.5H125.537ZM133.905 336V328.5H136.005C136.483 328.5 136.861 328.594 137.139 328.783C137.422 328.972 137.625 329.203 137.747 329.475C137.869 329.742 137.93 329.994 137.93 330.233C137.93 330.506 137.867 330.756 137.739 330.983C137.617 331.206 137.45 331.389 137.239 331.533C137.644 331.717 137.972 331.992 138.222 332.358C138.478 332.725 138.605 333.142 138.605 333.608C138.605 334.003 138.505 334.383 138.305 334.75C138.111 335.117 137.819 335.417 137.43 335.65C137.047 335.883 136.572 336 136.005 336H133.905ZM134.855 335.15H135.939C136.35 335.15 136.68 335.069 136.93 334.908C137.18 334.747 137.364 334.544 137.48 334.3C137.597 334.056 137.655 333.814 137.655 333.575C137.655 333.342 137.6 333.103 137.489 332.858C137.378 332.614 137.197 332.411 136.947 332.25C136.697 332.083 136.361 332 135.939 332H134.855V335.15ZM134.855 331.2H135.93C136.258 331.2 136.522 331.122 136.722 330.967C136.928 330.806 137.03 330.578 137.03 330.283C137.03 329.978 136.93 329.747 136.73 329.592C136.53 329.431 136.275 329.35 135.964 329.35H134.855V331.2ZM139.902 336V331H140.735V331.917C140.913 331.622 141.149 331.389 141.443 331.217C141.738 331.039 142.088 330.95 142.493 330.95L142.718 331.85C142.613 331.817 142.49 331.8 142.352 331.8C141.885 331.8 141.51 331.95 141.227 332.25C140.943 332.544 140.802 332.967 140.802 333.517V336H139.902ZM145.771 336.1C145.288 336.1 144.846 335.983 144.446 335.75C144.046 335.517 143.726 335.203 143.488 334.808C143.254 334.414 143.138 333.978 143.138 333.5C143.138 333.017 143.254 332.581 143.488 332.192C143.726 331.797 144.046 331.483 144.446 331.25C144.846 331.017 145.288 330.9 145.771 330.9C146.26 330.9 146.701 331.017 147.096 331.25C147.496 331.483 147.812 331.797 148.046 332.192C148.285 332.581 148.404 333.017 148.404 333.5C148.404 333.978 148.285 334.414 148.046 334.808C147.812 335.203 147.496 335.517 147.096 335.75C146.701 335.983 146.26 336.1 145.771 336.1ZM145.771 335.25C146.093 335.25 146.385 335.172 146.646 335.017C146.907 334.856 147.115 334.644 147.271 334.383C147.426 334.117 147.504 333.822 147.504 333.5C147.504 333.178 147.426 332.886 147.271 332.625C147.115 332.358 146.907 332.147 146.646 331.992C146.385 331.831 146.093 331.75 145.771 331.75C145.449 331.75 145.157 331.831 144.896 331.992C144.635 332.147 144.426 332.358 144.271 332.625C144.115 332.886 144.038 333.178 144.038 333.5C144.038 333.822 144.115 334.117 144.271 334.383C144.426 334.644 144.635 334.856 144.896 335.017C145.157 335.172 145.449 335.25 145.771 335.25ZM151.312 336.25L148.788 331H149.812L150.821 333.167C150.915 333.372 151.004 333.572 151.088 333.767C151.176 333.961 151.263 334.206 151.346 334.5C151.435 334.211 151.524 333.967 151.613 333.767C151.707 333.567 151.796 333.367 151.879 333.167L152.887 330.767L153.888 333.167C153.971 333.372 154.057 333.572 154.146 333.767C154.235 333.961 154.321 334.206 154.404 334.5C154.488 334.206 154.574 333.961 154.663 333.767C154.751 333.567 154.843 333.367 154.938 333.167L155.962 331H156.921L154.396 336.25L153.379 334.017C153.29 333.817 153.201 333.619 153.113 333.425C153.029 333.225 152.943 332.986 152.854 332.708C152.771 332.986 152.685 333.225 152.596 333.425C152.507 333.619 152.415 333.817 152.321 334.017L151.312 336.25ZM157.82 336V331H158.653V331.808C158.836 331.514 159.072 331.289 159.361 331.133C159.656 330.978 159.972 330.9 160.311 330.9C160.667 330.9 160.995 330.989 161.295 331.167C161.6 331.339 161.847 331.592 162.036 331.925C162.225 332.253 162.32 332.653 162.32 333.125V336H161.42V333.25C161.42 332.856 161.3 332.508 161.061 332.208C160.828 331.903 160.497 331.75 160.07 331.75C159.72 331.75 159.406 331.878 159.128 332.133C158.856 332.383 158.72 332.747 158.72 333.225V336H157.82Z" fill="#000321"/>
<path d="M37.225 362V353.25H38.3333V361.008H41.3667V362H37.225ZM45.148 362.117C44.5841 362.117 44.0688 361.981 43.6022 361.708C43.1355 361.436 42.7628 361.07 42.4841 360.61C42.2119 360.15 42.0758 359.641 42.0758 359.083C42.0758 358.519 42.2119 358.011 42.4841 357.557C42.7628 357.097 43.1355 356.731 43.6022 356.458C44.0688 356.186 44.5841 356.05 45.148 356.05C45.7184 356.05 46.2337 356.186 46.6938 356.458C47.1605 356.731 47.5299 357.097 47.8022 357.557C48.0809 358.011 48.2202 358.519 48.2202 359.083C48.2202 359.641 48.0809 360.15 47.8022 360.61C47.5299 361.07 47.1605 361.436 46.6938 361.708C46.2337 361.981 45.7184 362.117 45.148 362.117ZM45.148 361.125C45.5239 361.125 45.8642 361.034 46.1688 360.853C46.4735 360.665 46.7165 360.419 46.898 360.114C47.0795 359.803 47.1702 359.459 47.1702 359.083C47.1702 358.707 47.0795 358.367 46.898 358.062C46.7165 357.751 46.4735 357.505 46.1688 357.324C45.8642 357.136 45.5239 357.042 45.148 357.042C44.7721 357.042 44.4318 357.136 44.1272 357.324C43.8225 357.505 43.5795 357.751 43.398 358.062C43.2165 358.367 43.1258 358.707 43.1258 359.083C43.1258 359.459 43.2165 359.803 43.398 360.114C43.5795 360.419 43.8225 360.665 44.1272 360.853C44.4318 361.034 44.7721 361.125 45.148 361.125ZM49.6755 362V356.167H50.6477V357.236C50.8552 356.893 51.1306 356.62 51.4741 356.419C51.8177 356.212 52.226 356.108 52.6991 356.108L52.9616 357.158C52.8385 357.119 52.6959 357.1 52.5339 357.1C51.9894 357.1 51.5519 357.275 51.2214 357.625C50.8908 357.969 50.7255 358.461 50.7255 359.103V362H49.6755ZM56.6397 362.117C56.0304 362.117 55.4827 361.981 54.9966 361.708C54.517 361.436 54.1378 361.067 53.8591 360.6C53.5869 360.127 53.4508 359.602 53.4508 359.025C53.4508 358.474 53.5837 357.975 53.8494 357.528C54.1151 357.074 54.4716 356.714 54.9188 356.449C55.3725 356.183 55.8716 356.05 56.4161 356.05C56.954 356.05 57.4466 356.18 57.8938 356.439C58.3411 356.692 58.6975 357.035 58.9633 357.469C59.229 357.904 59.3619 358.396 59.3619 358.947V359.375H55.5508C55.3823 359.375 55.2105 359.369 55.0355 359.356C54.8605 359.343 54.6887 359.323 54.5202 359.297C54.5915 359.816 54.8249 360.25 55.2202 360.6C55.6221 360.95 56.0985 361.125 56.6494 361.125C57.0188 361.125 57.3624 361.041 57.6799 360.872C57.9975 360.704 58.2536 360.48 58.448 360.201L58.7397 361.397C58.461 361.624 58.1401 361.802 57.7772 361.932C57.4207 362.055 57.0415 362.117 56.6397 362.117ZM54.4911 358.587C54.8411 358.529 55.1943 358.5 55.5508 358.5H57.4855C57.6281 358.5 57.7674 358.506 57.9036 358.519C58.0462 358.526 58.1887 358.536 58.3313 358.549C58.2406 358.095 58.0137 357.722 57.6508 357.431C57.2878 357.132 56.8762 356.983 56.4161 356.983C55.9429 356.983 55.5281 357.142 55.1716 357.46C54.8151 357.771 54.5883 358.147 54.4911 358.587ZM60.7634 362V356.167H61.7356V357.003C61.9495 356.685 62.2185 356.449 62.5426 356.293C62.8731 356.131 63.2199 356.05 63.5829 356.05C63.9782 356.05 64.3412 356.144 64.6717 356.332C65.0023 356.513 65.268 356.769 65.469 357.1C65.6958 356.75 65.9875 356.487 66.344 356.312C66.7069 356.137 67.0893 356.05 67.4912 356.05C67.9319 356.05 68.3338 356.154 68.6967 356.361C69.0662 356.569 69.3579 356.86 69.5717 357.236C69.7921 357.606 69.9023 358.043 69.9023 358.549V362H68.8523V358.675C68.8523 358.144 68.7 357.742 68.3954 357.469C68.0972 357.191 67.7504 357.051 67.3551 357.051C67.1088 357.051 66.869 357.106 66.6356 357.217C66.4088 357.327 66.2208 357.499 66.0717 357.732C65.9292 357.965 65.8579 358.27 65.8579 358.646V362H64.8079V358.675C64.8079 358.306 64.7333 358.001 64.5842 357.761C64.4417 357.521 64.2537 357.343 64.0204 357.226C63.7935 357.103 63.5569 357.042 63.3106 357.042C63.0708 357.042 62.8342 357.097 62.6009 357.207C62.3741 357.317 62.1861 357.489 62.037 357.722C61.8879 357.956 61.8134 358.263 61.8134 358.646V362H60.7634ZM74.5583 362V356.167H75.6083V362H74.5583ZM75.0833 355.117C74.8889 355.117 74.7236 355.049 74.5875 354.912C74.4514 354.776 74.3833 354.611 74.3833 354.417C74.3833 354.216 74.4514 354.05 74.5875 353.921C74.7236 353.785 74.8889 353.717 75.0833 353.717C75.2843 353.717 75.4495 353.785 75.5792 353.921C75.7153 354.05 75.7833 354.216 75.7833 354.417C75.7833 354.611 75.7153 354.776 75.5792 354.912C75.4495 355.049 75.2843 355.117 75.0833 355.117ZM77.4704 364.917V356.167H78.4427V356.935C78.7084 356.669 79.0163 356.462 79.3663 356.312C79.7163 356.163 80.0922 356.089 80.4941 356.089C81.032 356.089 81.5181 356.225 81.9524 356.497C82.3931 356.763 82.7431 357.123 83.0024 357.576C83.2681 358.03 83.401 358.532 83.401 359.083C83.401 359.634 83.2681 360.137 83.0024 360.59C82.7431 361.044 82.3931 361.407 81.9524 361.679C81.5181 361.945 81.032 362.078 80.4941 362.078C80.1116 362.078 79.7519 362.01 79.4149 361.874C79.0779 361.737 78.7797 361.55 78.5204 361.31V364.917H77.4704ZM80.3579 361.125C80.7274 361.125 81.0612 361.034 81.3593 360.853C81.664 360.665 81.9038 360.419 82.0788 360.114C82.2603 359.803 82.351 359.459 82.351 359.083C82.351 358.707 82.2603 358.367 82.0788 358.062C81.9038 357.751 81.664 357.505 81.3593 357.324C81.0612 357.136 80.7274 357.042 80.3579 357.042C79.9885 357.042 79.6515 357.136 79.3468 357.324C79.0487 357.505 78.8089 357.751 78.6274 358.062C78.4524 358.367 78.3649 358.707 78.3649 359.083C78.3649 359.459 78.4524 359.803 78.6274 360.114C78.8089 360.419 79.0487 360.665 79.3468 360.853C79.6515 361.034 79.9885 361.125 80.3579 361.125ZM86.3602 362.117C86.0621 362.117 85.7412 362.062 85.3977 361.951C85.0607 361.835 84.769 361.644 84.5227 361.378L84.8144 360.231C84.9958 360.535 85.2292 360.778 85.5144 360.96C85.7996 361.135 86.1042 361.222 86.4283 361.222C86.7394 361.222 86.9727 361.148 87.1283 360.999C87.2838 360.843 87.3616 360.655 87.3616 360.435C87.3616 360.182 87.2773 359.997 87.1088 359.881C86.9468 359.764 86.8009 359.683 86.6713 359.637L85.8838 359.336C85.7412 359.278 85.5695 359.194 85.3685 359.083C85.1676 358.967 84.9926 358.801 84.8435 358.587C84.6945 358.374 84.6199 358.095 84.6199 357.751C84.6199 357.44 84.6945 357.155 84.8435 356.896C84.9926 356.637 85.2033 356.432 85.4755 356.283C85.7477 356.128 86.0685 356.05 86.438 356.05C86.7296 356.05 87.0343 356.102 87.3519 356.206C87.6695 356.309 87.9384 356.484 88.1588 356.731L87.8671 357.878C87.7116 357.593 87.5009 357.366 87.2352 357.197C86.9695 357.029 86.694 356.944 86.4088 356.944C86.1431 356.944 85.9324 357.019 85.7769 357.168C85.6278 357.317 85.5533 357.489 85.5533 357.683C85.5533 357.839 85.6051 357.978 85.7088 358.101C85.8125 358.225 85.9681 358.325 86.1755 358.403L86.963 358.704C87.1056 358.756 87.2806 358.84 87.488 358.957C87.7019 359.074 87.8898 359.242 88.0519 359.462C88.2139 359.683 88.2949 359.981 88.2949 360.357C88.2949 360.882 88.1102 361.306 87.7408 361.631C87.3778 361.955 86.9176 362.117 86.3602 362.117ZM92.0425 362.117C91.6342 362.117 91.2518 362.016 90.8953 361.815C90.5388 361.608 90.2504 361.31 90.03 360.921C89.8097 360.532 89.6995 360.065 89.6995 359.521V356.167H90.7495V359.375C90.7495 359.835 90.8856 360.244 91.1578 360.6C91.4365 360.95 91.8254 361.125 92.3245 361.125C92.7328 361.125 93.0958 360.979 93.4134 360.688C93.7374 360.389 93.8995 359.962 93.8995 359.404V356.167H94.9495V362H93.9773V361.057C93.7634 361.4 93.4847 361.663 93.1411 361.844C92.8041 362.026 92.4379 362.117 92.0425 362.117ZM96.8161 362V356.167H97.7884V357.003C98.0023 356.685 98.2712 356.449 98.5953 356.293C98.9259 356.131 99.2726 356.05 99.6356 356.05C100.031 356.05 100.394 356.144 100.724 356.332C101.055 356.513 101.321 356.769 101.522 357.1C101.749 356.75 102.04 356.487 102.397 356.312C102.76 356.137 103.142 356.05 103.544 356.05C103.985 356.05 104.387 356.154 104.749 356.361C105.119 356.569 105.411 356.86 105.624 357.236C105.845 357.606 105.955 358.043 105.955 358.549V362H104.905V358.675C104.905 358.144 104.753 357.742 104.448 357.469C104.15 357.191 103.803 357.051 103.408 357.051C103.162 357.051 102.922 357.106 102.688 357.217C102.462 357.327 102.274 357.499 102.124 357.732C101.982 357.965 101.911 358.27 101.911 358.646V362H100.861V358.675C100.861 358.306 100.786 358.001 100.637 357.761C100.494 357.521 100.306 357.343 100.073 357.226C99.8462 357.103 99.6097 357.042 99.3634 357.042C99.1236 357.042 98.887 357.097 98.6536 357.207C98.4268 357.317 98.2388 357.489 98.0898 357.722C97.9407 357.956 97.8661 358.263 97.8661 358.646V362H96.8161ZM113.11 362.078C112.578 362.078 112.092 361.945 111.651 361.679C111.211 361.407 110.857 361.044 110.592 360.59C110.332 360.137 110.203 359.634 110.203 359.083C110.203 358.532 110.332 358.03 110.592 357.576C110.857 357.123 111.211 356.763 111.651 356.497C112.092 356.225 112.578 356.089 113.11 356.089C113.492 356.089 113.852 356.157 114.189 356.293C114.526 356.429 114.824 356.617 115.083 356.857V352.667H116.133V362H115.161V361.232C114.902 361.491 114.594 361.699 114.237 361.854C113.887 362.003 113.512 362.078 113.11 362.078ZM113.246 361.125C113.615 361.125 113.949 361.034 114.247 360.853C114.552 360.665 114.792 360.419 114.967 360.114C115.148 359.803 115.239 359.459 115.239 359.083C115.239 358.707 115.148 358.367 114.967 358.062C114.792 357.751 114.552 357.505 114.247 357.324C113.949 357.136 113.615 357.042 113.246 357.042C112.876 357.042 112.539 357.136 112.235 357.324C111.937 357.505 111.697 357.751 111.515 358.062C111.34 358.367 111.253 358.707 111.253 359.083C111.253 359.459 111.34 359.803 111.515 360.114C111.697 360.419 111.937 360.665 112.235 360.853C112.539 361.034 112.876 361.125 113.246 361.125ZM120.658 362.117C120.094 362.117 119.579 361.981 119.112 361.708C118.645 361.436 118.273 361.07 117.994 360.61C117.722 360.15 117.586 359.641 117.586 359.083C117.586 358.519 117.722 358.011 117.994 357.557C118.273 357.097 118.645 356.731 119.112 356.458C119.579 356.186 120.094 356.05 120.658 356.05C121.228 356.05 121.743 356.186 122.204 356.458C122.67 356.731 123.04 357.097 123.312 357.557C123.591 358.011 123.73 358.519 123.73 359.083C123.73 359.641 123.591 360.15 123.312 360.61C123.04 361.07 122.67 361.436 122.204 361.708C121.743 361.981 121.228 362.117 120.658 362.117ZM120.658 361.125C121.034 361.125 121.374 361.034 121.679 360.853C121.983 360.665 122.226 360.419 122.408 360.114C122.589 359.803 122.68 359.459 122.68 359.083C122.68 358.707 122.589 358.367 122.408 358.062C122.226 357.751 121.983 357.505 121.679 357.324C121.374 357.136 121.034 357.042 120.658 357.042C120.282 357.042 119.942 357.136 119.637 357.324C119.332 357.505 119.089 357.751 118.908 358.062C118.726 358.367 118.636 358.707 118.636 359.083C118.636 359.459 118.726 359.803 118.908 360.114C119.089 360.419 119.332 360.665 119.637 360.853C119.942 361.034 120.282 361.125 120.658 361.125ZM125.185 362V352.667H126.235V362H125.185ZM130.761 362.117C130.197 362.117 129.682 361.981 129.215 361.708C128.749 361.436 128.376 361.07 128.097 360.61C127.825 360.15 127.689 359.641 127.689 359.083C127.689 358.519 127.825 358.011 128.097 357.557C128.376 357.097 128.749 356.731 129.215 356.458C129.682 356.186 130.197 356.05 130.761 356.05C131.332 356.05 131.847 356.186 132.307 356.458C132.774 356.731 133.143 357.097 133.415 357.557C133.694 358.011 133.834 358.519 133.834 359.083C133.834 359.641 133.694 360.15 133.415 360.61C133.143 361.07 132.774 361.436 132.307 361.708C131.847 361.981 131.332 362.117 130.761 362.117ZM130.761 361.125C131.137 361.125 131.477 361.034 131.782 360.853C132.087 360.665 132.33 360.419 132.511 360.114C132.693 359.803 132.784 359.459 132.784 359.083C132.784 358.707 132.693 358.367 132.511 358.062C132.33 357.751 132.087 357.505 131.782 357.324C131.477 357.136 131.137 357.042 130.761 357.042C130.385 357.042 130.045 357.136 129.74 357.324C129.436 357.505 129.193 357.751 129.011 358.062C128.83 358.367 128.739 358.707 128.739 359.083C128.739 359.459 128.83 359.803 129.011 360.114C129.193 360.419 129.436 360.665 129.74 360.853C130.045 361.034 130.385 361.125 130.761 361.125ZM135.289 362V356.167H136.261V357.236C136.468 356.893 136.744 356.62 137.087 356.419C137.431 356.212 137.839 356.108 138.312 356.108L138.575 357.158C138.452 357.119 138.309 357.1 138.147 357.1C137.603 357.1 137.165 357.275 136.835 357.625C136.504 357.969 136.339 358.461 136.339 359.103V362H135.289ZM144.083 362.117C143.785 362.117 143.464 362.062 143.12 361.951C142.783 361.835 142.492 361.644 142.245 361.378L142.537 360.231C142.719 360.535 142.952 360.778 143.237 360.96C143.522 361.135 143.827 361.222 144.151 361.222C144.462 361.222 144.695 361.148 144.851 360.999C145.006 360.843 145.084 360.655 145.084 360.435C145.084 360.182 145 359.997 144.831 359.881C144.669 359.764 144.524 359.683 144.394 359.637L143.606 359.336C143.464 359.278 143.292 359.194 143.091 359.083C142.89 358.967 142.715 358.801 142.566 358.587C142.417 358.374 142.343 358.095 142.343 357.751C142.343 357.44 142.417 357.155 142.566 356.896C142.715 356.637 142.926 356.432 143.198 356.283C143.47 356.128 143.791 356.05 144.161 356.05C144.452 356.05 144.757 356.102 145.075 356.206C145.392 356.309 145.661 356.484 145.881 356.731L145.59 357.878C145.434 357.593 145.224 357.366 144.958 357.197C144.692 357.029 144.417 356.944 144.131 356.944C143.866 356.944 143.655 357.019 143.5 357.168C143.35 357.317 143.276 357.489 143.276 357.683C143.276 357.839 143.328 357.978 143.431 358.101C143.535 358.225 143.691 358.325 143.898 358.403L144.686 358.704C144.828 358.756 145.003 358.84 145.211 358.957C145.425 359.074 145.612 359.242 145.775 359.462C145.937 359.683 146.018 359.981 146.018 360.357C146.018 360.882 145.833 361.306 145.463 361.631C145.1 361.955 144.64 362.117 144.083 362.117ZM147.539 362V356.167H148.589V362H147.539ZM148.064 355.117C147.869 355.117 147.704 355.049 147.568 354.912C147.432 354.776 147.364 354.611 147.364 354.417C147.364 354.216 147.432 354.05 147.568 353.921C147.704 353.785 147.869 353.717 148.064 353.717C148.265 353.717 148.43 353.785 148.56 353.921C148.696 354.05 148.764 354.216 148.764 354.417C148.764 354.611 148.696 354.776 148.56 354.912C148.43 355.049 148.265 355.117 148.064 355.117ZM151.131 362V357.042H149.809V356.167H151.161V354.222H152.152V356.167H153.601V357.042H152.181V362H151.131ZM160.237 362.078C159.705 362.078 159.219 361.945 158.778 361.679C158.338 361.407 157.984 361.044 157.719 360.59C157.459 360.137 157.33 359.634 157.33 359.083C157.33 358.532 157.459 358.03 157.719 357.576C157.984 357.123 158.338 356.763 158.778 356.497C159.219 356.225 159.705 356.089 160.237 356.089C160.638 356.089 161.014 356.163 161.364 356.312C161.721 356.462 162.029 356.669 162.288 356.935V356.167H163.26V362H162.288V361.232C162.029 361.491 161.721 361.699 161.364 361.854C161.014 362.003 160.638 362.078 160.237 362.078ZM160.373 361.125C160.742 361.125 161.076 361.034 161.374 360.853C161.679 360.665 161.919 360.419 162.094 360.114C162.275 359.803 162.366 359.459 162.366 359.083C162.366 358.707 162.275 358.367 162.094 358.062C161.919 357.751 161.679 357.505 161.374 357.324C161.076 357.136 160.742 357.042 160.373 357.042C160.003 357.042 159.666 357.136 159.362 357.324C159.063 357.505 158.824 357.751 158.642 358.062C158.467 358.367 158.38 358.707 158.38 359.083C158.38 359.459 158.467 359.803 158.642 360.114C158.824 360.419 159.063 360.665 159.362 360.853C159.666 361.034 160.003 361.125 160.373 361.125ZM165.121 362V356.167H166.093V357.003C166.307 356.685 166.576 356.449 166.9 356.293C167.231 356.131 167.577 356.05 167.94 356.05C168.336 356.05 168.699 356.144 169.029 356.332C169.36 356.513 169.625 356.769 169.826 357.1C170.053 356.75 170.345 356.487 170.701 356.312C171.064 356.137 171.447 356.05 171.849 356.05C172.289 356.05 172.691 356.154 173.054 356.361C173.424 356.569 173.715 356.86 173.929 357.236C174.15 357.606 174.26 358.043 174.26 358.549V362H173.21V358.675C173.21 358.144 173.057 357.742 172.753 357.469C172.455 357.191 172.108 357.051 171.713 357.051C171.466 357.051 171.226 357.106 170.993 357.217C170.766 357.327 170.578 357.499 170.429 357.732C170.287 357.965 170.215 358.27 170.215 358.646V362H169.165V358.675C169.165 358.306 169.091 358.001 168.942 357.761C168.799 357.521 168.611 357.343 168.378 357.226C168.151 357.103 167.914 357.042 167.668 357.042C167.428 357.042 167.192 357.097 166.958 357.207C166.731 357.317 166.544 357.489 166.394 357.722C166.245 357.956 166.171 358.263 166.171 358.646V362H165.121ZM178.784 362.117C178.175 362.117 177.627 361.981 177.141 361.708C176.662 361.436 176.282 361.067 176.004 360.6C175.731 360.127 175.595 359.602 175.595 359.025C175.595 358.474 175.728 357.975 175.994 357.528C176.26 357.074 176.616 356.714 177.063 356.449C177.517 356.183 178.016 356.05 178.561 356.05C179.099 356.05 179.591 356.18 180.038 356.439C180.486 356.692 180.842 357.035 181.108 357.469C181.374 357.904 181.506 358.396 181.506 358.947V359.375H177.695C177.527 359.375 177.355 359.369 177.18 359.356C177.005 359.343 176.833 359.323 176.665 359.297C176.736 359.816 176.969 360.25 177.365 360.6C177.767 360.95 178.243 361.125 178.794 361.125C179.163 361.125 179.507 361.041 179.824 360.872C180.142 360.704 180.398 360.48 180.593 360.201L180.884 361.397C180.605 361.624 180.285 361.802 179.922 361.932C179.565 362.055 179.186 362.117 178.784 362.117ZM176.636 358.587C176.986 358.529 177.339 358.5 177.695 358.5H179.63C179.773 358.5 179.912 358.506 180.048 358.519C180.191 358.526 180.333 358.536 180.476 358.549C180.385 358.095 180.158 357.722 179.795 357.431C179.432 357.132 179.021 356.983 178.561 356.983C178.087 356.983 177.673 357.142 177.316 357.46C176.96 357.771 176.733 358.147 176.636 358.587ZM183.588 362V357.042H182.266V356.167H183.618V354.222H184.609V356.167H186.058V357.042H184.638V362H183.588ZM192.878 362.117C192.308 362.117 191.789 361.981 191.323 361.708C190.856 361.436 190.483 361.07 190.205 360.61C189.926 360.15 189.787 359.641 189.787 359.083C189.787 358.526 189.926 358.017 190.205 357.557C190.483 357.097 190.856 356.731 191.323 356.458C191.789 356.186 192.308 356.05 192.878 356.05C193.3 356.05 193.695 356.125 194.064 356.274C194.434 356.423 194.758 356.62 195.037 356.867L194.716 358.189C194.554 357.865 194.308 357.593 193.977 357.372C193.653 357.152 193.283 357.042 192.869 357.042C192.493 357.042 192.149 357.136 191.838 357.324C191.533 357.505 191.29 357.751 191.109 358.062C190.927 358.367 190.837 358.707 190.837 359.083C190.837 359.453 190.927 359.793 191.109 360.104C191.29 360.415 191.533 360.665 191.838 360.853C192.149 361.034 192.493 361.125 192.869 361.125C193.283 361.125 193.653 361.018 193.977 360.804C194.308 360.59 194.554 360.315 194.716 359.978L195.037 361.3C194.758 361.546 194.434 361.744 194.064 361.893C193.695 362.042 193.3 362.117 192.878 362.117ZM198.984 362.117C198.42 362.117 197.905 361.981 197.438 361.708C196.971 361.436 196.599 361.07 196.32 360.61C196.048 360.15 195.912 359.641 195.912 359.083C195.912 358.519 196.048 358.011 196.32 357.557C196.599 357.097 196.971 356.731 197.438 356.458C197.905 356.186 198.42 356.05 198.984 356.05C199.554 356.05 200.07 356.186 200.53 356.458C200.996 356.731 201.366 357.097 201.638 357.557C201.917 358.011 202.056 358.519 202.056 359.083C202.056 359.641 201.917 360.15 201.638 360.61C201.366 361.07 200.996 361.436 200.53 361.708C200.07 361.981 199.554 362.117 198.984 362.117ZM198.984 361.125C199.36 361.125 199.7 361.034 200.005 360.853C200.309 360.665 200.552 360.419 200.734 360.114C200.915 359.803 201.006 359.459 201.006 359.083C201.006 358.707 200.915 358.367 200.734 358.062C200.552 357.751 200.309 357.505 200.005 357.324C199.7 357.136 199.36 357.042 198.984 357.042C198.608 357.042 198.268 357.136 197.963 357.324C197.658 357.505 197.415 357.751 197.234 358.062C197.052 358.367 196.962 358.707 196.962 359.083C196.962 359.459 197.052 359.803 197.234 360.114C197.415 360.419 197.658 360.665 197.963 360.853C198.268 361.034 198.608 361.125 198.984 361.125ZM203.511 362V356.167H204.484V357.11C204.698 356.766 204.973 356.504 205.31 356.322C205.654 356.141 206.023 356.05 206.418 356.05C206.833 356.05 207.216 356.154 207.566 356.361C207.922 356.562 208.211 356.857 208.431 357.246C208.651 357.628 208.761 358.095 208.761 358.646V362H207.711V358.792C207.711 358.331 207.572 357.926 207.293 357.576C207.021 357.22 206.636 357.042 206.136 357.042C205.728 357.042 205.362 357.191 205.038 357.489C204.72 357.781 204.561 358.205 204.561 358.762V362H203.511ZM212.018 362.117C211.72 362.117 211.399 362.062 211.056 361.951C210.719 361.835 210.427 361.644 210.181 361.378L210.473 360.231C210.654 360.535 210.887 360.778 211.173 360.96C211.458 361.135 211.762 361.222 212.086 361.222C212.398 361.222 212.631 361.148 212.786 360.999C212.942 360.843 213.02 360.655 213.02 360.435C213.02 360.182 212.936 359.997 212.767 359.881C212.605 359.764 212.459 359.683 212.33 359.637L211.542 359.336C211.399 359.278 211.228 359.194 211.027 359.083C210.826 358.967 210.651 358.801 210.502 358.587C210.353 358.374 210.278 358.095 210.278 357.751C210.278 357.44 210.353 357.155 210.502 356.896C210.651 356.637 210.861 356.432 211.134 356.283C211.406 356.128 211.727 356.05 212.096 356.05C212.388 356.05 212.692 356.102 213.01 356.206C213.328 356.309 213.597 356.484 213.817 356.731L213.525 357.878C213.37 357.593 213.159 357.366 212.893 357.197C212.628 357.029 212.352 356.944 212.067 356.944C211.801 356.944 211.591 357.019 211.435 357.168C211.286 357.317 211.211 357.489 211.211 357.683C211.211 357.839 211.263 357.978 211.367 358.101C211.471 358.225 211.626 358.325 211.834 358.403L212.621 358.704C212.764 358.756 212.939 358.84 213.146 358.957C213.36 359.074 213.548 359.242 213.71 359.462C213.872 359.683 213.953 359.981 213.953 360.357C213.953 360.882 213.768 361.306 213.399 361.631C213.036 361.955 212.576 362.117 212.018 362.117ZM218.255 362.117C217.646 362.117 217.098 361.981 216.612 361.708C216.132 361.436 215.753 361.067 215.474 360.6C215.202 360.127 215.066 359.602 215.066 359.025C215.066 358.474 215.199 357.975 215.465 357.528C215.73 357.074 216.087 356.714 216.534 356.449C216.988 356.183 217.487 356.05 218.031 356.05C218.569 356.05 219.062 356.18 219.509 356.439C219.956 356.692 220.313 357.035 220.579 357.469C220.844 357.904 220.977 358.396 220.977 358.947V359.375H217.166C216.997 359.375 216.826 359.369 216.651 359.356C216.476 359.343 216.304 359.323 216.135 359.297C216.207 359.816 216.44 360.25 216.835 360.6C217.237 360.95 217.714 361.125 218.265 361.125C218.634 361.125 218.978 361.041 219.295 360.872C219.613 360.704 219.869 360.48 220.063 360.201L220.355 361.397C220.076 361.624 219.755 361.802 219.392 361.932C219.036 362.055 218.657 362.117 218.255 362.117ZM216.106 358.587C216.456 358.529 216.81 358.5 217.166 358.5H219.101C219.243 358.5 219.383 358.506 219.519 358.519C219.661 358.526 219.804 358.536 219.947 358.549C219.856 358.095 219.629 357.722 219.266 357.431C218.903 357.132 218.491 356.983 218.031 356.983C217.558 356.983 217.143 357.142 216.787 357.46C216.43 357.771 216.204 358.147 216.106 358.587ZM225.062 362.117C224.492 362.117 223.973 361.981 223.506 361.708C223.04 361.436 222.667 361.07 222.388 360.61C222.11 360.15 221.97 359.641 221.97 359.083C221.97 358.526 222.11 358.017 222.388 357.557C222.667 357.097 223.04 356.731 223.506 356.458C223.973 356.186 224.492 356.05 225.062 356.05C225.483 356.05 225.879 356.125 226.248 356.274C226.618 356.423 226.942 356.62 227.22 356.867L226.899 358.189C226.737 357.865 226.491 357.593 226.161 357.372C225.837 357.152 225.467 357.042 225.052 357.042C224.676 357.042 224.333 357.136 224.022 357.324C223.717 357.505 223.474 357.751 223.293 358.062C223.111 358.367 223.02 358.707 223.02 359.083C223.02 359.453 223.111 359.793 223.293 360.104C223.474 360.415 223.717 360.665 224.022 360.853C224.333 361.034 224.676 361.125 225.052 361.125C225.467 361.125 225.837 361.018 226.161 360.804C226.491 360.59 226.737 360.315 226.899 359.978L227.22 361.3C226.942 361.546 226.618 361.744 226.248 361.893C225.879 362.042 225.483 362.117 225.062 362.117ZM229.184 362V357.042H227.862V356.167H229.213V354.222H230.205V356.167H231.654V357.042H230.234V362H229.184ZM235.372 362.117C234.763 362.117 234.215 361.981 233.729 361.708C233.249 361.436 232.87 361.067 232.592 360.6C232.319 360.127 232.183 359.602 232.183 359.025C232.183 358.474 232.316 357.975 232.582 357.528C232.848 357.074 233.204 356.714 233.651 356.449C234.105 356.183 234.604 356.05 235.148 356.05C235.686 356.05 236.179 356.18 236.626 356.439C237.073 356.692 237.43 357.035 237.696 357.469C237.961 357.904 238.094 358.396 238.094 358.947V359.375H234.283C234.115 359.375 233.943 359.369 233.768 359.356C233.593 359.343 233.421 359.323 233.253 359.297C233.324 359.816 233.557 360.25 233.953 360.6C234.354 360.95 234.831 361.125 235.382 361.125C235.751 361.125 236.095 361.041 236.412 360.872C236.73 360.704 236.986 360.48 237.18 360.201L237.472 361.397C237.193 361.624 236.873 361.802 236.51 361.932C236.153 362.055 235.774 362.117 235.372 362.117ZM233.223 358.587C233.573 358.529 233.927 358.5 234.283 358.5H236.218C236.361 358.5 236.5 358.506 236.636 358.519C236.779 358.526 236.921 358.536 237.064 358.549C236.973 358.095 236.746 357.722 236.383 357.431C236.02 357.132 235.609 356.983 235.148 356.983C234.675 356.983 234.261 357.142 233.904 357.46C233.548 357.771 233.321 358.147 233.223 358.587ZM240.176 362V357.042H238.854V356.167H240.206V354.222H241.197V356.167H242.646V357.042H241.226V362H240.176ZM246.097 362.117C245.689 362.117 245.306 362.016 244.95 361.815C244.594 361.608 244.305 361.31 244.085 360.921C243.864 360.532 243.754 360.065 243.754 359.521V356.167H244.804V359.375C244.804 359.835 244.94 360.244 245.213 360.6C245.491 360.95 245.88 361.125 246.379 361.125C246.788 361.125 247.15 360.979 247.468 360.688C247.792 360.389 247.954 359.962 247.954 359.404V356.167H249.004V362H248.032V361.057C247.818 361.4 247.539 361.663 247.196 361.844C246.859 362.026 246.493 362.117 246.097 362.117ZM250.871 362V356.167H251.843V357.236C252.05 356.893 252.326 356.62 252.669 356.419C253.013 356.212 253.421 356.108 253.894 356.108L254.157 357.158C254.034 357.119 253.891 357.1 253.729 357.1C253.185 357.1 252.747 357.275 252.417 357.625C252.086 357.969 251.921 358.461 251.921 359.103V362H250.871ZM255.037 362.117C254.823 362.117 254.642 362.045 254.493 361.903C254.35 361.754 254.279 361.572 254.279 361.358C254.279 361.144 254.35 360.966 254.493 360.824C254.642 360.675 254.823 360.6 255.037 360.6C255.257 360.6 255.439 360.675 255.582 360.824C255.724 360.966 255.795 361.144 255.795 361.358C255.795 361.572 255.724 361.754 255.582 361.903C255.439 362.045 255.257 362.117 255.037 362.117Z" fill="#000321"/>
<rect width="393" height="100" transform="translate(0 752)" fill="#7079D8"/>
<rect x="32" y="764" width="44" height="44" rx="5" fill="#2B35AA"/>
<path d="M44 782L53.7317 777.134C53.9006 777.05 54.0994 777.05 54.2683 777.134L64 782" stroke="white" stroke-width="1.5" stroke-linecap="round" stroke-linejoin="round"/>
<path d="M62 785V793C62 794.105 61.1046 795 60 795H48C46.8954 795 46 794.105 46 793V785" stroke="white" stroke-width="1.5" stroke-linecap="round" stroke-linejoin="round"/>
<path d="M152 778V776M152 778V780M152 778H147.5M140 784V793C140 794.105 140.895 795 142 795H156C157.105 795 158 794.105 158 793V784H140Z" stroke="white" stroke-width="1.5" stroke-linecap="round" stroke-linejoin="round"/>
<path d="M140 784V780C140 778.895 140.895 778 142 778H144" stroke="white" stroke-width="1.5" stroke-linecap="round" stroke-linejoin="round"/>
<path d="M144 776V780" stroke="white" stroke-width="1.5" stroke-linecap="round" stroke-linejoin="round"/>
<path d="M158 784V780C158 778.895 157.105 778 156 778H155.5" stroke="white" stroke-width="1.5" stroke-linecap="round" stroke-linejoin="round"/>
<path d="M233 794V793C233 789.134 236.134 786 240 786V786C243.866 786 247 789.134 247 793V794" stroke="white" stroke-width="1.5" stroke-linecap="round"/>
<path d="M245 788V788C245 785.239 247.239 783 250 783V783C252.761 783 255 785.239 255 788V788.5" stroke="white" stroke-width="1.5" stroke-linecap="round"/>
<path d="M240 786C242.209 786 244 784.209 244 782C244 779.791 242.209 778 240 778C237.791 778 236 779.791 236 782C236 784.209 237.791 786 240 786Z" stroke="white" stroke-width="1.5" stroke-linecap="round" stroke-linejoin="round"/>
<path d="M250 783C251.657 783 253 781.657 253 780C253 778.343 251.657 777 250 777C248.343 777 247 778.343 247 780C247 781.657 248.343 783 250 783Z" stroke="white" stroke-width="1.5" stroke-linecap="round" stroke-linejoin="round"/>
<path d="M330 794.29V779C330 777.895 330.895 777 332 777H346C347.105 777 348 777.895 348 779V789C348 790.105 347.105 791 346 791H334.961C334.354 791 333.779 791.276 333.4 791.751L331.069 794.664C330.714 795.107 330 794.857 330 794.29Z" stroke="white" stroke-width="1.5"/>
</g>
<rect x="130" y="838" width="134" height="5" rx="2.5" fill="black"/>
<path fill-rule="evenodd" clip-rule="evenodd" d="M0 0H40C17.9086 0 1.02597e-05 17.9086 9.98798e-06 40L0 812V0ZM0 812C0 834.091 17.9086 852 40 852H0V812ZM393 40C393 17.9086 375.091 0 353 0H393V40ZM353 852C375.091 852 393 834.091 393 812V852H353ZM150.5 10C140.283 10 132 18.2827 132 28.5C132 38.7173 140.283 47 150.5 47H239.5C249.717 47 258 38.7173 258 28.5C258 18.2827 249.717 10 239.5 10H150.5Z" fill="black"/>
<path opacity="0.35" fill-rule="evenodd" clip-rule="evenodd" d="M352.091 22.3333C353.698 22.3333 355 23.5272 355 25V31C355 32.4728 353.698 33.6667 352.091 33.6667H333.909C332.302 33.6667 331 32.4728 331 31V25C331 23.5272 332.302 22.3333 333.909 22.3333H352.091ZM352.091 23.3333H333.909C332.958 23.3333 332.177 24.003 332.098 24.8562L332.091 25V31C332.091 31.872 332.821 32.5876 333.752 32.6605L333.909 32.6667H352.091C353.042 32.6667 353.823 31.9969 353.902 31.1438L353.909 31V25C353.909 24.128 353.178 23.4124 352.248 23.3394L352.091 23.3333ZM357.328 28C357.328 28.8731 356.805 29.6612 356 30V26C356.805 26.3388 357.328 27.1269 357.328 28Z" fill="black"/>
<path fill-rule="evenodd" clip-rule="evenodd" d="M64.0994 27.8346C64.0994 31.8079 62.3171 34.1543 59.3167 34.1543C57.1583 34.1543 55.5151 32.8789 55.1635 30.9413H57.2646C57.5344 31.8324 58.3193 32.3884 59.333 32.3884C61.0581 32.3884 62.08 30.7778 62.08 28.0799H61.941C61.3851 29.1999 60.265 29.8458 58.8834 29.8458C56.6351 29.8458 55 28.1943 55 25.9215C55 23.5016 56.815 21.7765 59.3821 21.7765C61.1071 21.7765 62.4724 22.5941 63.2655 24.1065C63.8132 25.0794 64.0994 26.3385 64.0994 27.8346ZM57.0684 25.8561C57.0684 27.2051 58.0331 28.1698 59.3902 28.1698C60.7392 28.1698 61.7284 27.2051 61.7284 25.8888C61.7284 24.5562 60.7147 23.5342 59.3984 23.5342C58.0821 23.5342 57.0684 24.5398 57.0684 25.8561ZM67.468 26.4856C68.2447 26.4856 68.7761 25.9378 68.7761 25.2021C68.7761 24.4581 68.2447 23.9103 67.468 23.9103C66.6995 23.9103 66.1599 24.4581 66.1599 25.2021C66.1599 25.9378 66.6995 26.4856 67.468 26.4856ZM68.7761 31.3255C68.7761 32.0613 68.2447 32.6173 67.468 32.6173C66.6995 32.6173 66.1599 32.0613 66.1599 31.3255C66.1599 30.5816 66.6995 30.0338 67.468 30.0338C68.2447 30.0338 68.7761 30.5816 68.7761 31.3255ZM78.6115 33.8681V31.6689H80.2058V29.8866H78.6115V22.0708H75.6356C73.5509 25.2102 71.8913 27.8346 70.8284 29.7885V31.6689H76.5922V33.8681H78.6115ZM72.7824 29.9357H76.6249V23.7877H76.5104C75.3822 25.4555 74.1559 27.3931 72.7824 29.8131V29.9357ZM87 33.8681V22.0708H84.8989L81.8167 24.2292V26.2567L84.7517 24.1965H84.8907V33.8681H87ZM320.283 26.9863C318.677 25.4595 316.546 24.6081 314.33 24.608C312.114 24.608 309.983 25.4594 308.377 26.9863C308.256 27.1044 308.062 27.1029 307.943 26.983L306.787 25.8163C306.727 25.7556 306.693 25.6733 306.694 25.5877C306.694 25.5021 306.729 25.4203 306.79 25.3603C311.005 21.3208 317.655 21.3208 321.87 25.3603C321.931 25.4203 321.965 25.5022 321.966 25.5878C321.966 25.6734 321.933 25.7556 321.873 25.8163L320.717 26.983C320.597 27.1027 320.404 27.1042 320.283 26.9863ZM317.624 29.6733C316.722 28.8561 315.548 28.4036 314.33 28.4037C313.114 28.4042 311.94 28.8567 311.039 29.6733C310.916 29.7893 310.724 29.7868 310.605 29.6677L309.451 28.501C309.39 28.4399 309.356 28.3569 309.357 28.2706C309.358 28.1843 309.393 28.1019 309.455 28.042C312.203 25.4856 316.459 25.4856 319.208 28.042C319.27 28.1019 319.305 28.1843 319.306 28.2705C319.307 28.3568 319.273 28.4398 319.212 28.501L318.058 29.6677C317.939 29.7868 317.746 29.7893 317.624 29.6733ZM316.549 31.188C316.611 31.1274 316.645 31.044 316.643 30.9575C316.641 30.871 316.604 30.789 316.54 30.731C315.264 29.6521 313.396 29.6521 312.121 30.731C312.056 30.789 312.019 30.8709 312.017 30.9574C312.015 31.0439 312.049 31.1274 312.111 31.188L314.109 33.2037C314.167 33.2629 314.247 33.2962 314.33 33.2962C314.414 33.2962 314.493 33.2629 314.552 33.2037L316.549 31.188ZM334.333 24.3333C333.597 24.3333 333 24.9303 333 25.6667V30.3333C333 31.0697 333.597 31.6667 334.333 31.6667H351.667C352.403 31.6667 353 31.0697 353 30.3333V25.6667C353 24.9303 352.403 24.3333 351.667 24.3333H334.333ZM296.667 22.6667H295.667C295.114 22.6667 294.667 23.1144 294.667 23.6667V32.3333C294.667 32.8856 295.114 33.3333 295.667 33.3333H296.667C297.219 33.3333 297.667 32.8856 297.667 32.3333V23.6667C297.667 23.1144 297.219 22.6667 296.667 22.6667ZM291 25H292C292.552 25 293 25.4477 293 26V32.3333C293 32.8856 292.552 33.3333 292 33.3333H291C290.448 33.3333 290 32.8856 290 32.3333V26C290 25.4477 290.448 25 291 25ZM287.333 27.3333H286.333C285.781 27.3333 285.333 27.7811 285.333 28.3333V32.3333C285.333 32.8856 285.781 33.3333 286.333 33.3333H287.333C287.885 33.3333 288.333 32.8856 288.333 32.3333V28.3333C288.333 27.7811 287.885 27.3333 287.333 27.3333ZM282.667 29.3333H281.667C281.114 29.3333 280.667 29.7811 280.667 30.3333V32.3333C280.667 32.8856 281.114 33.3333 281.667 33.3333H282.667C283.219 33.3333 283.667 32.8856 283.667 32.3333V30.3333C283.667 29.7811 283.219 29.3333 282.667 29.3333Z" fill="black"/>
</g>
<defs>
<clipPath id="paint0_diamond_52_5215_clip_path"><rect x="20.5" y="120.5" width="352" height="134" rx="4.5"/></clipPath><linearGradient id="paint0_diamond_52_5215" x1="0" y1="0" x2="500" y2="500" gradientUnits="userSpaceOnUse">
<stop stop-color="#776AF2"/>
<stop offset="1" stop-color="#2A35AA"/>
</linearGradient>
<clipPath id="clip0_52_5215">
<rect width="393" height="852" fill="white"/>
</clipPath>
<clipPath id="clip1_52_5215">
<rect width="393" height="852" fill="white"/>
</clipPath>
</defs>
</svg>
