<svg width="393" height="852" viewBox="0 0 393 852" fill="none" xmlns="http://www.w3.org/2000/svg">
<g clip-path="url(#clip0_87_578)">
<rect width="393" height="852" fill="white"/>
<g clip-path="url(#clip1_87_578)">
<rect width="393" height="100" fill="#7079D8"/>
<path d="M49 72V71C49 68.2386 51.2386 66 54 66V66C56.7614 66 59 68.2386 59 71V72" stroke="white" stroke-width="1.5" stroke-linecap="round"/>
<path d="M54 66C55.6569 66 57 64.6569 57 63C57 61.3431 55.6569 60 54 60C52.3431 60 51 61.3431 51 63C51 64.6569 52.3431 66 54 66Z" stroke="white" stroke-width="1.5" stroke-linecap="round" stroke-linejoin="round"/>
<circle cx="54" cy="66" r="10" stroke="white" stroke-width="1.5"/>
<path d="M163.425 81V67.25H166.832C167.738 67.25 168.502 67.3875 169.124 67.6625C169.755 67.9375 170.264 68.2991 170.651 68.7472C171.038 69.1852 171.319 69.6639 171.492 70.1833C171.675 70.7028 171.767 71.212 171.767 71.7111C171.767 72.2 171.68 72.7042 171.507 73.2236C171.334 73.7431 171.054 74.2269 170.667 74.675C170.28 75.1231 169.77 75.4847 169.139 75.7597C168.507 76.0347 167.738 76.1722 166.832 76.1722H165.167V81H163.425ZM165.167 74.6139H166.74C167.565 74.6139 168.217 74.4713 168.696 74.1861C169.175 73.8907 169.516 73.5241 169.719 73.0861C169.923 72.638 170.025 72.1796 170.025 71.7111C170.025 71.263 169.923 70.8148 169.719 70.3667C169.526 69.9185 169.19 69.5468 168.711 69.2514C168.243 68.956 167.586 68.8083 166.74 68.8083H165.167V74.6139ZM177.291 81.1222C176.456 81.1222 175.692 80.9134 175 80.4958C174.307 80.0681 173.752 79.4977 173.335 78.7847C172.927 78.0718 172.723 77.2824 172.723 76.4167C172.723 75.5509 172.927 74.7616 173.335 74.0486C173.752 73.3356 174.307 72.7704 175 72.3528C175.692 71.925 176.456 71.7111 177.291 71.7111C177.923 71.7111 178.514 71.8282 179.064 72.0625C179.624 72.2968 180.108 72.6227 180.515 73.0403V71.8333H182.043V81H180.515V79.7931C180.108 80.2005 179.624 80.5264 179.064 80.7708C178.514 81.0051 177.923 81.1222 177.291 81.1222ZM177.505 79.625C178.086 79.625 178.61 79.4824 179.079 79.1972C179.558 78.9019 179.935 78.5148 180.21 78.0361C180.495 77.5472 180.637 77.0074 180.637 76.4167C180.637 75.8259 180.495 75.2912 180.21 74.8125C179.935 74.3236 179.558 73.9366 179.079 73.6514C178.61 73.356 178.086 73.2083 177.505 73.2083C176.925 73.2083 176.395 73.356 175.916 73.6514C175.448 73.9366 175.071 74.3236 174.786 74.8125C174.511 75.2912 174.373 75.8259 174.373 76.4167C174.373 77.0074 174.511 77.5472 174.786 78.0361C175.071 78.5148 175.448 78.9019 175.916 79.1972C176.395 79.4824 176.925 79.625 177.505 79.625ZM186.036 81V73.2083H183.958V71.8333H186.082V68.7778H187.64V71.8333H189.917V73.2083H187.686V81H186.036ZM191.842 81V71.8333H193.492V81H191.842ZM192.667 70.1833C192.361 70.1833 192.101 70.0764 191.888 69.8625C191.674 69.6486 191.567 69.3889 191.567 69.0833C191.567 68.7676 191.674 68.5079 191.888 68.3042C192.101 68.0903 192.361 67.9833 192.667 67.9833C192.982 67.9833 193.242 68.0903 193.446 68.3042C193.66 68.5079 193.767 68.7676 193.767 69.0833C193.767 69.3889 193.66 69.6486 193.446 69.8625C193.242 70.0764 192.982 70.1833 192.667 70.1833ZM200.787 81.1833C199.83 81.1833 198.969 80.9694 198.205 80.5417C197.452 80.1139 196.856 79.5333 196.418 78.8C195.99 78.0565 195.776 77.2315 195.776 76.325C195.776 75.4593 195.985 74.675 196.403 73.9722C196.82 73.2593 197.38 72.694 198.083 72.2764C198.796 71.8588 199.58 71.65 200.436 71.65C201.281 71.65 202.055 71.8537 202.758 72.2611C203.461 72.6583 204.021 73.1981 204.439 73.8806C204.856 74.563 205.065 75.337 205.065 76.2028V76.875H199.076C198.811 76.875 198.541 76.8648 198.266 76.8444C197.991 76.8241 197.722 76.7935 197.457 76.7528C197.569 77.5676 197.935 78.25 198.557 78.8C199.188 79.35 199.937 79.625 200.803 79.625C201.383 79.625 201.923 79.4926 202.422 79.2278C202.921 78.963 203.323 78.6116 203.629 78.1736L204.087 80.0528C203.649 80.4093 203.145 80.6894 202.575 80.8931C202.015 81.0866 201.419 81.1833 200.787 81.1833ZM197.411 75.6375C197.961 75.5458 198.516 75.5 199.076 75.5H202.116C202.341 75.5 202.56 75.5102 202.773 75.5306C202.997 75.5407 203.222 75.556 203.446 75.5764C203.303 74.8634 202.947 74.2778 202.376 73.8194C201.806 73.3509 201.159 73.1167 200.436 73.1167C199.692 73.1167 199.041 73.3662 198.48 73.8653C197.92 74.3542 197.564 74.9449 197.411 75.6375ZM207.267 81V71.8333H208.795V73.3153C209.131 72.7755 209.564 72.363 210.094 72.0778C210.634 71.7926 211.214 71.65 211.836 71.65C212.487 71.65 213.088 71.813 213.638 72.1389C214.198 72.4546 214.652 72.9181 214.998 73.5292C215.344 74.1301 215.517 74.8634 215.517 75.7292V81H213.867V75.9583C213.867 75.2352 213.648 74.5986 213.211 74.0486C212.783 73.4884 212.177 73.2083 211.392 73.2083C210.751 73.2083 210.175 73.4426 209.666 73.9111C209.167 74.3694 208.917 75.0366 208.917 75.9125V81H207.267ZM219.036 81V73.2083H216.958V71.8333H219.082V68.7778H220.64V71.8333H222.917V73.2083H220.686V81H219.036ZM227.21 81.1833C226.741 81.1833 226.237 81.0968 225.697 80.9236C225.168 80.7403 224.709 80.4398 224.322 80.0222L224.781 78.2194C225.066 78.6981 225.432 79.0801 225.881 79.3653C226.329 79.6403 226.807 79.7778 227.317 79.7778C227.806 79.7778 228.172 79.6606 228.417 79.4264C228.661 79.1819 228.783 78.8866 228.783 78.5403C228.783 78.1431 228.651 77.8528 228.386 77.6694C228.131 77.4861 227.902 77.3588 227.699 77.2875L226.461 76.8139C226.237 76.7222 225.967 76.5898 225.651 76.4167C225.336 76.2333 225.061 75.9736 224.826 75.6375C224.592 75.3014 224.475 74.8634 224.475 74.3236C224.475 73.8347 224.592 73.3866 224.826 72.9792C225.061 72.5718 225.392 72.2509 225.819 72.0167C226.247 71.7722 226.751 71.65 227.332 71.65C227.79 71.65 228.269 71.7315 228.768 71.8944C229.267 72.0574 229.69 72.3324 230.036 72.7194L229.578 74.5222C229.333 74.0741 229.002 73.7176 228.585 73.4528C228.167 73.188 227.734 73.0556 227.286 73.0556C226.869 73.0556 226.537 73.1727 226.293 73.4069C226.059 73.6412 225.942 73.9111 225.942 74.2167C225.942 74.4611 226.023 74.6801 226.186 74.8736C226.349 75.0671 226.594 75.225 226.919 75.3472L228.157 75.8208C228.381 75.9023 228.656 76.0347 228.982 76.2181C229.318 76.4014 229.613 76.6662 229.868 77.0125C230.123 77.3588 230.25 77.8273 230.25 78.4181C230.25 79.2431 229.96 79.9102 229.379 80.4194C228.809 80.9287 228.086 81.1833 227.21 81.1833Z" fill="white"/>
<g clip-path="url(#clip2_87_578)">
<rect width="393" height="652" transform="translate(0 100)" fill="white"/>
<rect x="20.5" y="120.5" width="296" height="43" rx="5.5" fill="white"/>
<rect x="20.5" y="120.5" width="296" height="43" rx="5.5" stroke="#AABBD6"/>
<path d="M33.1111 146.617C32.5926 146.617 32.1227 146.513 31.7014 146.306C31.2866 146.098 30.956 145.845 30.7097 145.547L31.0306 144.206C31.212 144.569 31.4843 144.896 31.8472 145.188C32.2102 145.479 32.6444 145.625 33.15 145.625C33.6102 145.625 33.9894 145.479 34.2875 145.188C34.5921 144.896 34.7444 144.536 34.7444 144.108C34.7444 143.797 34.6699 143.541 34.5208 143.34C34.3718 143.139 34.2032 142.981 34.0153 142.864C33.8273 142.747 33.6782 142.663 33.5681 142.611L32.4986 142.067C32.3301 141.976 32.1194 141.85 31.8667 141.688C31.6204 141.525 31.4032 141.302 31.2153 141.017C31.0273 140.731 30.9333 140.362 30.9333 139.908C30.9333 139.468 31.0338 139.075 31.2347 138.732C31.4421 138.388 31.7273 138.119 32.0903 137.925C32.4597 137.731 32.881 137.633 33.3542 137.633C33.8208 137.633 34.2324 137.718 34.5889 137.886C34.9454 138.048 35.2241 138.217 35.425 138.392L35.1042 139.733C34.9421 139.461 34.7023 139.205 34.3847 138.965C34.0671 138.725 33.7074 138.606 33.3056 138.606C32.9167 138.606 32.6056 138.722 32.3722 138.956C32.1389 139.182 32.0222 139.464 32.0222 139.801C32.0222 140.061 32.0806 140.275 32.1972 140.443C32.3204 140.612 32.4565 140.744 32.6056 140.842C32.7611 140.939 32.8875 141.013 32.9847 141.065L34.0736 141.61C34.2032 141.675 34.3653 141.765 34.5597 141.882C34.7606 141.999 34.9583 142.154 35.1528 142.349C35.3472 142.537 35.5093 142.77 35.6389 143.049C35.7685 143.321 35.8333 143.651 35.8333 144.04C35.8333 144.539 35.7134 144.983 35.4736 145.372C35.2403 145.761 34.9194 146.066 34.5111 146.286C34.1028 146.506 33.6361 146.617 33.1111 146.617ZM40.126 146.617C39.5167 146.617 38.9691 146.481 38.4829 146.208C38.0033 145.936 37.6241 145.567 37.3454 145.1C37.0732 144.627 36.9371 144.102 36.9371 143.525C36.9371 142.974 37.07 142.475 37.3357 142.028C37.6015 141.574 37.9579 141.214 38.4052 140.949C38.8589 140.683 39.3579 140.55 39.9024 140.55C40.4404 140.55 40.9329 140.68 41.3802 140.939C41.8274 141.192 42.1839 141.535 42.4496 141.969C42.7154 142.404 42.8482 142.896 42.8482 143.447V143.875H39.0371C38.8686 143.875 38.6968 143.869 38.5218 143.856C38.3468 143.843 38.1751 143.823 38.0066 143.797C38.0779 144.316 38.3112 144.75 38.7066 145.1C39.1084 145.45 39.5848 145.625 40.1357 145.625C40.5052 145.625 40.8487 145.541 41.1663 145.372C41.4839 145.204 41.7399 144.98 41.9343 144.701L42.226 145.897C41.9473 146.124 41.6265 146.302 41.2635 146.432C40.907 146.555 40.5279 146.617 40.126 146.617ZM37.9774 143.087C38.3274 143.029 38.6806 143 39.0371 143H40.9718C41.1144 143 41.2538 143.006 41.3899 143.019C41.5325 143.026 41.6751 143.036 41.8177 143.049C41.7269 142.595 41.5001 142.222 41.1371 141.931C40.7741 141.632 40.3626 141.483 39.9024 141.483C39.4292 141.483 39.0144 141.642 38.6579 141.96C38.3015 142.271 38.0746 142.647 37.9774 143.087ZM46.7484 146.578C46.2169 146.578 45.7308 146.445 45.29 146.179C44.8493 145.907 44.496 145.544 44.2303 145.09C43.971 144.637 43.8414 144.134 43.8414 143.583C43.8414 143.032 43.971 142.53 44.2303 142.076C44.496 141.623 44.8493 141.263 45.29 140.997C45.7308 140.725 46.2169 140.589 46.7484 140.589C47.1502 140.589 47.5261 140.663 47.8761 140.812C48.2326 140.962 48.5405 141.169 48.7997 141.435V140.667H49.772V146.5H48.7997V145.732C48.5405 145.991 48.2326 146.199 47.8761 146.354C47.5261 146.503 47.1502 146.578 46.7484 146.578ZM46.8845 145.625C47.2539 145.625 47.5877 145.534 47.8859 145.353C48.1905 145.165 48.4303 144.919 48.6053 144.614C48.7868 144.303 48.8775 143.959 48.8775 143.583C48.8775 143.207 48.7868 142.867 48.6053 142.562C48.4303 142.251 48.1905 142.005 47.8859 141.824C47.5877 141.636 47.2539 141.542 46.8845 141.542C46.515 141.542 46.178 141.636 45.8734 141.824C45.5752 142.005 45.3354 142.251 45.1539 142.562C44.9789 142.867 44.8914 143.207 44.8914 143.583C44.8914 143.959 44.9789 144.303 45.1539 144.614C45.3354 144.919 45.5752 145.165 45.8734 145.353C46.178 145.534 46.515 145.625 46.8845 145.625ZM51.6326 146.5V140.667H52.6048V141.736C52.8122 141.393 53.0876 141.12 53.4312 140.919C53.7747 140.712 54.183 140.608 54.6562 140.608L54.9187 141.658C54.7955 141.619 54.6529 141.6 54.4909 141.6C53.9464 141.6 53.5089 141.775 53.1784 142.125C52.8478 142.469 52.6826 142.961 52.6826 143.603V146.5H51.6326ZM58.4995 146.617C57.9291 146.617 57.4106 146.481 56.9439 146.208C56.4773 145.936 56.1046 145.57 55.8259 145.11C55.5472 144.65 55.4078 144.141 55.4078 143.583C55.4078 143.026 55.5472 142.517 55.8259 142.057C56.1046 141.597 56.4773 141.231 56.9439 140.958C57.4106 140.686 57.9291 140.55 58.4995 140.55C58.9208 140.55 59.3161 140.625 59.6856 140.774C60.055 140.923 60.3791 141.12 60.6578 141.367L60.337 142.689C60.1749 142.365 59.9286 142.093 59.5981 141.872C59.274 141.652 58.9046 141.542 58.4898 141.542C58.1138 141.542 57.7703 141.636 57.4592 141.824C57.1546 142.005 56.9115 142.251 56.73 142.562C56.5486 142.867 56.4578 143.207 56.4578 143.583C56.4578 143.953 56.5486 144.293 56.73 144.604C56.9115 144.915 57.1546 145.165 57.4592 145.353C57.7703 145.534 58.1138 145.625 58.4898 145.625C58.9046 145.625 59.274 145.518 59.5981 145.304C59.9286 145.09 60.1749 144.815 60.337 144.478L60.6578 145.8C60.3791 146.046 60.055 146.244 59.6856 146.393C59.3161 146.542 58.9208 146.617 58.4995 146.617ZM61.9411 146.5V137.167H62.9911V141.493C63.2115 141.188 63.4837 140.955 63.8078 140.793C64.1319 140.631 64.4786 140.55 64.8481 140.55C65.2629 140.55 65.6453 140.654 65.9953 140.861C66.3518 141.062 66.6402 141.357 66.8606 141.746C67.081 142.128 67.1911 142.595 67.1911 143.146V146.5H66.1411V143.292C66.1411 142.831 66.0018 142.426 65.7231 142.076C65.4509 141.72 65.0652 141.542 64.5661 141.542C64.1578 141.542 63.7916 141.691 63.4675 141.989C63.1499 142.281 62.9911 142.705 62.9911 143.262V146.5H61.9411ZM69.3203 146.617C69.1064 146.617 68.9249 146.545 68.7759 146.403C68.6333 146.254 68.562 146.072 68.562 145.858C68.562 145.644 68.6333 145.466 68.7759 145.324C68.9249 145.175 69.1064 145.1 69.3203 145.1C69.5407 145.1 69.7222 145.175 69.8648 145.324C70.0073 145.466 70.0786 145.644 70.0786 145.858C70.0786 146.072 70.0073 146.254 69.8648 146.403C69.7222 146.545 69.5407 146.617 69.3203 146.617ZM71.9453 146.617C71.7314 146.617 71.5499 146.545 71.4009 146.403C71.2583 146.254 71.187 146.072 71.187 145.858C71.187 145.644 71.2583 145.466 71.4009 145.324C71.5499 145.175 71.7314 145.1 71.9453 145.1C72.1657 145.1 72.3472 145.175 72.4898 145.324C72.6323 145.466 72.7036 145.644 72.7036 145.858C72.7036 146.072 72.6323 146.254 72.4898 146.403C72.3472 146.545 72.1657 146.617 71.9453 146.617ZM74.5703 146.617C74.3564 146.617 74.1749 146.545 74.0259 146.403C73.8833 146.254 73.812 146.072 73.812 145.858C73.812 145.644 73.8833 145.466 74.0259 145.324C74.1749 145.175 74.3564 145.1 74.5703 145.1C74.7907 145.1 74.9722 145.175 75.1148 145.324C75.2573 145.466 75.3286 145.644 75.3286 145.858C75.3286 146.072 75.2573 146.254 75.1148 146.403C74.9722 146.545 74.7907 146.617 74.5703 146.617Z" fill="#AABBD6"/>
<path d="M349 144H341" stroke="#000321" stroke-width="1.5" stroke-linecap="round" stroke-linejoin="round"/>
<path d="M347 140H341" stroke="black" stroke-width="1.5" stroke-linecap="round" stroke-linejoin="round"/>
<path d="M345 136H341" stroke="black" stroke-width="1.5" stroke-linecap="round" stroke-linejoin="round"/>
<path d="M351 148H341" stroke="black" stroke-width="1.5" stroke-linecap="round" stroke-linejoin="round"/>
<path d="M358 150V134M358 150L361 147M358 150L355 147M358 134L361 137M358 134L355 137" stroke="black" stroke-width="1.5" stroke-linecap="round" stroke-linejoin="round"/>
<path d="M20.275 198L26.0958 183.792H26.1264L31.9472 198H30.0986L28.4792 193.921H23.6667L22.0319 198H20.275ZM24.2472 192.469H27.8986L26.8139 189.75C26.6815 189.404 26.5542 189.062 26.4319 188.726C26.3097 188.39 26.1875 187.988 26.0653 187.519C25.9431 187.988 25.8259 188.39 25.7139 188.726C25.6019 189.052 25.4745 189.394 25.3319 189.75L24.2472 192.469Z" fill="#000321"/>
<line x1="20" y1="216.5" x2="373" y2="216.5" stroke="#000321"/>
<rect x="20.5" y="229.5" width="352" height="55" rx="4.5" fill="#E6EBF3"/>
<rect x="20.5" y="229.5" width="352" height="55" rx="4.5" stroke="#AABBD6"/>
<path d="M43 263V262C43 259.239 45.2386 257 48 257V257C50.7614 257 53 259.239 53 262V263" stroke="#000321" stroke-width="1.5" stroke-linecap="round"/>
<path d="M48 257C49.6569 257 51 255.657 51 254C51 252.343 49.6569 251 48 251C46.3431 251 45 252.343 45 254C45 255.657 46.3431 257 48 257Z" stroke="#000321" stroke-width="1.5" stroke-linecap="round" stroke-linejoin="round"/>
<circle cx="48" cy="257" r="10" stroke="#000321" stroke-width="1.5"/>
<path d="M71.6361 261.792L68.1167 252.75H69.2833L71.3444 258.019C71.4093 258.188 71.4676 258.35 71.5194 258.506C71.5778 258.655 71.6329 258.83 71.6847 259.031C71.7366 258.83 71.7884 258.655 71.8403 258.506C71.8986 258.35 71.9602 258.188 72.025 258.019L74.0764 252.75H75.175L71.6556 261.792H71.6361ZM76.2204 261.5V255.667H77.2704V261.5H76.2204ZM76.7454 254.617C76.551 254.617 76.3857 254.549 76.2496 254.412C76.1135 254.276 76.0454 254.111 76.0454 253.917C76.0454 253.716 76.1135 253.55 76.2496 253.421C76.3857 253.285 76.551 253.217 76.7454 253.217C76.9464 253.217 77.1116 253.285 77.2413 253.421C77.3774 253.55 77.4454 253.716 77.4454 253.917C77.4454 254.111 77.3774 254.276 77.2413 254.412C77.1116 254.549 76.9464 254.617 76.7454 254.617ZM81.2617 261.792L78.3159 255.667H79.5117L80.6978 258.194C80.808 258.421 80.9117 258.645 81.0089 258.865C81.1062 259.086 81.2001 259.355 81.2909 259.672C81.3881 259.355 81.4853 259.086 81.5826 258.865C81.6863 258.638 81.79 258.415 81.8937 258.194L83.0895 255.667H84.2076L81.2617 261.792ZM85.2576 261.5V255.667H86.3076V261.5H85.2576ZM85.7826 254.617C85.5881 254.617 85.4228 254.549 85.2867 254.412C85.1506 254.276 85.0826 254.111 85.0826 253.917C85.0826 253.716 85.1506 253.55 85.2867 253.421C85.4228 253.285 85.5881 253.217 85.7826 253.217C85.9835 253.217 86.1488 253.285 86.2784 253.421C86.4145 253.55 86.4826 253.716 86.4826 253.917C86.4826 254.111 86.4145 254.276 86.2784 254.412C86.1488 254.549 85.9835 254.617 85.7826 254.617ZM90.6683 261.578C90.1368 261.578 89.6507 261.445 89.2099 261.179C88.7692 260.907 88.416 260.544 88.1502 260.09C87.891 259.637 87.7613 259.134 87.7613 258.583C87.7613 258.032 87.891 257.53 88.1502 257.076C88.416 256.623 88.7692 256.263 89.2099 255.997C89.6507 255.725 90.1368 255.589 90.6683 255.589C91.0701 255.589 91.4461 255.663 91.7961 255.812C92.1525 255.962 92.4604 256.169 92.7197 256.435V255.667H93.6919V261.5H92.7197V260.732C92.4604 260.991 92.1525 261.199 91.7961 261.354C91.4461 261.503 91.0701 261.578 90.6683 261.578ZM90.8044 260.625C91.1738 260.625 91.5076 260.534 91.8058 260.353C92.1104 260.165 92.3502 259.919 92.5252 259.614C92.7067 259.303 92.7974 258.959 92.7974 258.583C92.7974 258.207 92.7067 257.867 92.5252 257.562C92.3502 257.251 92.1104 257.005 91.8058 256.824C91.5076 256.636 91.1738 256.542 90.8044 256.542C90.4349 256.542 90.0979 256.636 89.7933 256.824C89.4951 257.005 89.2553 257.251 89.0738 257.562C88.8988 257.867 88.8113 258.207 88.8113 258.583C88.8113 258.959 88.8988 259.303 89.0738 259.614C89.2553 259.919 89.4951 260.165 89.7933 260.353C90.0979 260.534 90.4349 260.625 90.8044 260.625ZM95.5525 261.5V255.667H96.5247V256.61C96.7386 256.266 97.014 256.004 97.3511 255.822C97.6946 255.641 98.064 255.55 98.4594 255.55C98.8742 255.55 99.2566 255.654 99.6066 255.861C99.9631 256.062 100.252 256.357 100.472 256.746C100.692 257.128 100.802 257.595 100.802 258.146V261.5H99.7525V258.292C99.7525 257.831 99.6131 257.426 99.3344 257.076C99.0622 256.72 98.6765 256.542 98.1775 256.542C97.7691 256.542 97.4029 256.691 97.0789 256.989C96.7613 257.281 96.6025 257.705 96.6025 258.262V261.5H95.5525ZM104.706 261.5L108.41 252.458H108.43L112.134 261.5H110.958L109.927 258.904H106.865L105.824 261.5H104.706ZM107.234 257.981H109.558L108.867 256.25C108.783 256.03 108.702 255.812 108.624 255.599C108.547 255.385 108.469 255.129 108.391 254.831C108.313 255.129 108.239 255.385 108.167 255.599C108.096 255.806 108.015 256.023 107.924 256.25L107.234 257.981ZM113.244 261.5V252.167H114.294V261.5H113.244ZM116.156 261.5V252.167H117.206V261.5H116.156ZM121.849 261.617C121.239 261.617 120.692 261.481 120.206 261.208C119.726 260.936 119.347 260.567 119.068 260.1C118.796 259.627 118.66 259.102 118.66 258.525C118.66 257.974 118.793 257.475 119.058 257.028C119.324 256.574 119.681 256.214 120.128 255.949C120.582 255.683 121.081 255.55 121.625 255.55C122.163 255.55 122.656 255.68 123.103 255.939C123.55 256.192 123.907 256.535 124.172 256.969C124.438 257.404 124.571 257.896 124.571 258.447V258.875H120.76C120.591 258.875 120.419 258.869 120.244 258.856C120.069 258.843 119.898 258.823 119.729 258.797C119.801 259.316 120.034 259.75 120.429 260.1C120.831 260.45 121.307 260.625 121.858 260.625C122.228 260.625 122.571 260.541 122.889 260.372C123.207 260.204 123.463 259.98 123.657 259.701L123.949 260.897C123.67 261.124 123.349 261.302 122.986 261.432C122.63 261.555 122.251 261.617 121.849 261.617ZM119.7 258.087C120.05 258.029 120.403 258 120.76 258H122.694C122.837 258 122.976 258.006 123.113 258.019C123.255 258.026 123.398 258.036 123.54 258.049C123.45 257.595 123.223 257.222 122.86 256.931C122.497 256.632 122.085 256.483 121.625 256.483C121.152 256.483 120.737 256.642 120.381 256.96C120.024 257.271 119.797 257.647 119.7 258.087ZM125.972 261.5V255.667H126.945V256.61C127.159 256.266 127.434 256.004 127.771 255.822C128.115 255.641 128.484 255.55 128.879 255.55C129.294 255.55 129.677 255.654 130.027 255.861C130.383 256.062 130.671 256.357 130.892 256.746C131.112 257.128 131.222 257.595 131.222 258.146V261.5H130.172V258.292C130.172 257.831 130.033 257.426 129.754 257.076C129.482 256.72 129.096 256.542 128.597 256.542C128.189 256.542 127.823 256.691 127.499 256.989C127.181 257.281 127.022 257.705 127.022 258.262V261.5H125.972Z" fill="#000321"/>
<rect x="20.5" y="297.5" width="352" height="55" rx="4.5" fill="#E6EBF3"/>
<rect x="20.5" y="297.5" width="352" height="55" rx="4.5" stroke="#AABBD6"/>
<path d="M43 331V330C43 327.239 45.2386 325 48 325V325C50.7614 325 53 327.239 53 330V331" stroke="#000321" stroke-width="1.5" stroke-linecap="round"/>
<path d="M48 325C49.6569 325 51 323.657 51 322C51 320.343 49.6569 319 48 319C46.3431 319 45 320.343 45 322C45 323.657 46.3431 325 48 325Z" stroke="#000321" stroke-width="1.5" stroke-linecap="round" stroke-linejoin="round"/>
<circle cx="48" cy="325" r="10" stroke="#000321" stroke-width="1.5"/>
<path d="M76.4 329.792L70.275 323.229V329.5H69.225V320.458L75.35 327.021V320.75H76.4V329.792ZM81.0569 329.578C80.5255 329.578 80.0394 329.445 79.5986 329.179C79.1579 328.907 78.8046 328.544 78.5389 328.09C78.2796 327.637 78.15 327.134 78.15 326.583C78.15 326.032 78.2796 325.53 78.5389 325.076C78.8046 324.623 79.1579 324.263 79.5986 323.997C80.0394 323.725 80.5255 323.589 81.0569 323.589C81.4588 323.589 81.8347 323.663 82.1847 323.812C82.5412 323.962 82.8491 324.169 83.1083 324.435V323.667H84.0806V329.5H83.1083V328.732C82.8491 328.991 82.5412 329.199 82.1847 329.354C81.8347 329.503 81.4588 329.578 81.0569 329.578ZM81.1931 328.625C81.5625 328.625 81.8963 328.534 82.1944 328.353C82.4991 328.165 82.7389 327.919 82.9139 327.614C83.0954 327.303 83.1861 326.959 83.1861 326.583C83.1861 326.207 83.0954 325.867 82.9139 325.562C82.7389 325.251 82.4991 325.005 82.1944 324.824C81.8963 324.636 81.5625 324.542 81.1931 324.542C80.8236 324.542 80.4866 324.636 80.1819 324.824C79.8838 325.005 79.644 325.251 79.4625 325.562C79.2875 325.867 79.2 326.207 79.2 326.583C79.2 326.959 79.2875 327.303 79.4625 327.614C79.644 327.919 79.8838 328.165 80.1819 328.353C80.4866 328.534 80.8236 328.625 81.1931 328.625ZM86.6217 329.5V324.542H85.2995V323.667H86.6509V321.722H87.6425V323.667H89.0911V324.542H87.6717V329.5H86.6217ZM92.5276 329.578C91.9962 329.578 91.5101 329.445 91.0693 329.179C90.6286 328.907 90.2753 328.544 90.0096 328.09C89.7503 327.637 89.6207 327.134 89.6207 326.583C89.6207 326.032 89.7503 325.53 90.0096 325.076C90.2753 324.623 90.6286 324.263 91.0693 323.997C91.5101 323.725 91.9962 323.589 92.5276 323.589C92.9295 323.589 93.3054 323.663 93.6554 323.812C94.0119 323.962 94.3198 324.169 94.579 324.435V323.667H95.5513V329.5H94.579V328.732C94.3198 328.991 94.0119 329.199 93.6554 329.354C93.3054 329.503 92.9295 329.578 92.5276 329.578ZM92.6638 328.625C93.0332 328.625 93.367 328.534 93.6651 328.353C93.9698 328.165 94.2096 327.919 94.3846 327.614C94.5661 327.303 94.6568 326.959 94.6568 326.583C94.6568 326.207 94.5661 325.867 94.3846 325.562C94.2096 325.251 93.9698 325.005 93.6651 324.824C93.367 324.636 93.0332 324.542 92.6638 324.542C92.2943 324.542 91.9573 324.636 91.6526 324.824C91.3545 325.005 91.1147 325.251 90.9332 325.562C90.7582 325.867 90.6707 326.207 90.6707 326.583C90.6707 326.959 90.7582 327.303 90.9332 327.614C91.1147 327.919 91.3545 328.165 91.6526 328.353C91.9573 328.534 92.2943 328.625 92.6638 328.625ZM97.4118 329.5V320.167H98.4618V329.5H97.4118ZM100.324 329.5V323.667H101.374V329.5H100.324ZM100.849 322.617C100.655 322.617 100.489 322.549 100.353 322.412C100.217 322.276 100.149 322.111 100.149 321.917C100.149 321.716 100.217 321.55 100.353 321.421C100.489 321.285 100.655 321.217 100.849 321.217C101.05 321.217 101.215 321.285 101.345 321.421C101.481 321.55 101.549 321.716 101.549 321.917C101.549 322.111 101.481 322.276 101.345 322.412C101.215 322.549 101.05 322.617 100.849 322.617ZM106.017 329.617C105.407 329.617 104.86 329.481 104.374 329.208C103.894 328.936 103.515 328.567 103.236 328.1C102.964 327.627 102.828 327.102 102.828 326.525C102.828 325.974 102.961 325.475 103.226 325.028C103.492 324.574 103.849 324.214 104.296 323.949C104.749 323.683 105.249 323.55 105.793 323.55C106.331 323.55 106.824 323.68 107.271 323.939C107.718 324.192 108.074 324.535 108.34 324.969C108.606 325.404 108.739 325.896 108.739 326.447V326.875H104.928C104.759 326.875 104.587 326.869 104.412 326.856C104.237 326.843 104.066 326.823 103.897 326.797C103.968 327.316 104.202 327.75 104.597 328.1C104.999 328.45 105.475 328.625 106.026 328.625C106.396 328.625 106.739 328.541 107.057 328.372C107.374 328.204 107.631 327.98 107.825 327.701L108.117 328.897C107.838 329.124 107.517 329.302 107.154 329.432C106.798 329.555 106.418 329.617 106.017 329.617ZM103.868 326.087C104.218 326.029 104.571 326 104.928 326H106.862C107.005 326 107.144 326.006 107.281 326.019C107.423 326.026 107.566 326.036 107.708 326.049C107.618 325.595 107.391 325.222 107.028 324.931C106.665 324.632 106.253 324.483 105.793 324.483C105.32 324.483 104.905 324.642 104.549 324.96C104.192 325.271 103.965 325.647 103.868 326.087ZM112.294 329.5L115.998 320.458H116.018L119.722 329.5H118.546L117.515 326.904H114.452L113.412 329.5H112.294ZM114.822 325.981H117.146L116.455 324.25C116.371 324.03 116.29 323.812 116.212 323.599C116.134 323.385 116.057 323.129 115.979 322.831C115.901 323.129 115.827 323.385 115.755 323.599C115.684 323.806 115.603 324.023 115.512 324.25L114.822 325.981ZM123.855 329.578C123.454 329.578 123.078 329.503 122.728 329.354C122.378 329.199 122.07 328.991 121.804 328.732V329.5H120.832V320.167H121.882V324.357C122.141 324.117 122.439 323.929 122.776 323.793C123.113 323.657 123.473 323.589 123.855 323.589C124.393 323.589 124.879 323.725 125.314 323.997C125.754 324.263 126.104 324.623 126.364 325.076C126.629 325.53 126.762 326.032 126.762 326.583C126.762 327.134 126.629 327.637 126.364 328.09C126.104 328.544 125.754 328.907 125.314 329.179C124.879 329.445 124.393 329.578 123.855 329.578ZM123.719 328.625C124.089 328.625 124.423 328.534 124.721 328.353C125.025 328.165 125.265 327.919 125.44 327.614C125.622 327.303 125.712 326.959 125.712 326.583C125.712 326.207 125.622 325.867 125.44 325.562C125.265 325.251 125.025 325.005 124.721 324.824C124.423 324.636 124.089 324.542 123.719 324.542C123.35 324.542 123.013 324.636 122.708 324.824C122.41 325.005 122.17 325.251 121.989 325.562C121.814 325.867 121.726 326.207 121.726 326.583C121.726 326.959 121.814 327.303 121.989 327.614C122.17 327.919 122.41 328.165 122.708 328.353C123.013 328.534 123.35 328.625 123.719 328.625ZM128.215 329.5V323.667H129.187V324.736C129.394 324.393 129.67 324.12 130.013 323.919C130.357 323.712 130.765 323.608 131.238 323.608L131.501 324.658C131.378 324.619 131.235 324.6 131.073 324.6C130.528 324.6 130.091 324.775 129.76 325.125C129.43 325.469 129.265 325.961 129.265 326.603V329.5H128.215ZM134.897 329.578C134.365 329.578 133.879 329.445 133.438 329.179C132.998 328.907 132.644 328.544 132.379 328.09C132.119 327.637 131.99 327.134 131.99 326.583C131.99 326.032 132.119 325.53 132.379 325.076C132.644 324.623 132.998 324.263 133.438 323.997C133.879 323.725 134.365 323.589 134.897 323.589C135.299 323.589 135.675 323.663 136.025 323.812C136.381 323.962 136.689 324.169 136.948 324.435V323.667H137.92V329.5H136.948V328.732C136.689 328.991 136.381 329.199 136.025 329.354C135.675 329.503 135.299 329.578 134.897 329.578ZM135.033 328.625C135.402 328.625 135.736 328.534 136.034 328.353C136.339 328.165 136.579 327.919 136.754 327.614C136.935 327.303 137.026 326.959 137.026 326.583C137.026 326.207 136.935 325.867 136.754 325.562C136.579 325.251 136.339 325.005 136.034 324.824C135.736 324.636 135.402 324.542 135.033 324.542C134.663 324.542 134.326 324.636 134.022 324.824C133.724 325.005 133.484 325.251 133.302 325.562C133.127 325.867 133.04 326.207 133.04 326.583C133.04 326.959 133.127 327.303 133.302 327.614C133.484 327.919 133.724 328.165 134.022 328.353C134.326 328.534 134.663 328.625 135.033 328.625ZM139.781 329.5V320.167H140.831V324.493C141.051 324.188 141.324 323.955 141.648 323.793C141.972 323.631 142.318 323.55 142.688 323.55C143.103 323.55 143.485 323.654 143.835 323.861C144.192 324.062 144.48 324.357 144.7 324.746C144.921 325.128 145.031 325.595 145.031 326.146V329.5H143.981V326.292C143.981 325.831 143.842 325.426 143.563 325.076C143.291 324.72 142.905 324.542 142.406 324.542C141.998 324.542 141.631 324.691 141.307 324.989C140.99 325.281 140.831 325.705 140.831 326.262V329.5H139.781ZM149.28 329.578C148.748 329.578 148.262 329.445 147.821 329.179C147.381 328.907 147.027 328.544 146.762 328.09C146.502 327.637 146.373 327.134 146.373 326.583C146.373 326.032 146.502 325.53 146.762 325.076C147.027 324.623 147.381 324.263 147.821 323.997C148.262 323.725 148.748 323.589 149.28 323.589C149.681 323.589 150.057 323.663 150.407 323.812C150.764 323.962 151.072 324.169 151.331 324.435V323.667H152.303V329.5H151.331V328.732C151.072 328.991 150.764 329.199 150.407 329.354C150.057 329.503 149.681 329.578 149.28 329.578ZM149.416 328.625C149.785 328.625 150.119 328.534 150.417 328.353C150.722 328.165 150.962 327.919 151.137 327.614C151.318 327.303 151.409 326.959 151.409 326.583C151.409 326.207 151.318 325.867 151.137 325.562C150.962 325.251 150.722 325.005 150.417 324.824C150.119 324.636 149.785 324.542 149.416 324.542C149.046 324.542 148.709 324.636 148.405 324.824C148.106 325.005 147.867 325.251 147.685 325.562C147.51 325.867 147.423 326.207 147.423 326.583C147.423 326.959 147.51 327.303 147.685 327.614C147.867 327.919 148.106 328.165 148.405 328.353C148.709 328.534 149.046 328.625 149.416 328.625ZM154.164 329.5V323.667H155.136V324.503C155.35 324.185 155.619 323.949 155.943 323.793C156.274 323.631 156.62 323.55 156.983 323.55C157.379 323.55 157.742 323.644 158.072 323.832C158.403 324.013 158.668 324.269 158.869 324.6C159.096 324.25 159.388 323.987 159.744 323.812C160.107 323.637 160.49 323.55 160.892 323.55C161.332 323.55 161.734 323.654 162.097 323.861C162.467 324.069 162.758 324.36 162.972 324.736C163.193 325.106 163.303 325.543 163.303 326.049V329.5H162.253V326.175C162.253 325.644 162.1 325.242 161.796 324.969C161.498 324.691 161.151 324.551 160.755 324.551C160.509 324.551 160.269 324.606 160.036 324.717C159.809 324.827 159.621 324.999 159.472 325.232C159.33 325.465 159.258 325.77 159.258 326.146V329.5H158.208V326.175C158.208 325.806 158.134 325.501 157.985 325.261C157.842 325.021 157.654 324.843 157.421 324.726C157.194 324.603 156.957 324.542 156.711 324.542C156.471 324.542 156.235 324.597 156.001 324.707C155.774 324.817 155.586 324.989 155.437 325.222C155.288 325.456 155.214 325.763 155.214 326.146V329.5H154.164ZM166.554 329.617C166.255 329.617 165.935 329.562 165.591 329.451C165.254 329.335 164.962 329.144 164.716 328.878L165.008 327.731C165.189 328.035 165.423 328.278 165.708 328.46C165.993 328.635 166.298 328.722 166.622 328.722C166.933 328.722 167.166 328.648 167.322 328.499C167.477 328.343 167.555 328.155 167.555 327.935C167.555 327.682 167.471 327.497 167.302 327.381C167.14 327.264 166.994 327.183 166.865 327.137L166.077 326.836C165.935 326.778 165.763 326.694 165.562 326.583C165.361 326.467 165.186 326.301 165.037 326.087C164.888 325.874 164.813 325.595 164.813 325.251C164.813 324.94 164.888 324.655 165.037 324.396C165.186 324.137 165.397 323.932 165.669 323.783C165.941 323.628 166.262 323.55 166.631 323.55C166.923 323.55 167.228 323.602 167.545 323.706C167.863 323.809 168.132 323.984 168.352 324.231L168.061 325.378C167.905 325.093 167.694 324.866 167.429 324.697C167.163 324.529 166.887 324.444 166.602 324.444C166.336 324.444 166.126 324.519 165.97 324.668C165.821 324.817 165.747 324.989 165.747 325.183C165.747 325.339 165.798 325.478 165.902 325.601C166.006 325.725 166.161 325.825 166.369 325.903L167.156 326.204C167.299 326.256 167.474 326.34 167.681 326.457C167.895 326.574 168.083 326.742 168.245 326.962C168.407 327.183 168.488 327.481 168.488 327.857C168.488 328.382 168.304 328.806 167.934 329.131C167.571 329.455 167.111 329.617 166.554 329.617Z" fill="#000321"/>
<path d="M21.925 387V373.25H25.775C26.6509 373.25 27.3435 373.423 27.8528 373.769C28.3722 374.116 28.744 374.538 28.9681 375.038C29.1921 375.526 29.3042 375.99 29.3042 376.428C29.3042 376.927 29.187 377.385 28.9528 377.803C28.7287 378.21 28.4231 378.546 28.0361 378.811C28.7796 379.147 29.3806 379.651 29.8389 380.324C30.3074 380.996 30.5417 381.76 30.5417 382.615C30.5417 383.338 30.3583 384.036 29.9917 384.708C29.6352 385.381 29.1005 385.931 28.3875 386.358C27.6847 386.786 26.8139 387 25.775 387H21.925ZM23.6667 385.442H25.6528C26.4065 385.442 27.0125 385.294 27.4708 384.999C27.9292 384.703 28.2653 384.331 28.4792 383.883C28.6931 383.435 28.8 382.992 28.8 382.554C28.8 382.126 28.6981 381.688 28.4944 381.24C28.2907 380.792 27.9597 380.42 27.5014 380.125C27.0431 379.819 26.4269 379.667 25.6528 379.667H23.6667V385.442ZM23.6667 378.2H25.6375C26.2384 378.2 26.7222 378.057 27.0889 377.772C27.4657 377.477 27.6542 377.059 27.6542 376.519C27.6542 375.959 27.4708 375.537 27.1042 375.251C26.7375 374.956 26.269 374.808 25.6986 374.808H23.6667V378.2Z" fill="#000321"/>
<line x1="20" y1="405.5" x2="373" y2="405.5" stroke="#000321"/>
<rect x="20.5" y="418.5" width="352" height="55" rx="4.5" fill="#E6EBF3"/>
<rect x="20.5" y="418.5" width="352" height="55" rx="4.5" stroke="#AABBD6"/>
<path d="M43 452V451C43 448.239 45.2386 446 48 446V446C50.7614 446 53 448.239 53 451V452" stroke="#000321" stroke-width="1.5" stroke-linecap="round"/>
<path d="M48 446C49.6569 446 51 444.657 51 443C51 441.343 49.6569 440 48 440C46.3431 440 45 441.343 45 443C45 444.657 46.3431 446 48 446Z" stroke="#000321" stroke-width="1.5" stroke-linecap="round" stroke-linejoin="round"/>
<circle cx="48" cy="446" r="10" stroke="#000321" stroke-width="1.5"/>
<path d="M73.1431 450.675C72.5079 450.675 71.9148 450.558 71.3639 450.325C70.813 450.085 70.3269 449.758 69.9056 449.343C69.4907 448.922 69.1667 448.439 68.9333 447.894C68.7 447.344 68.5833 446.754 68.5833 446.125C68.5833 445.496 68.7 444.91 68.9333 444.365C69.1731 443.814 69.5005 443.331 69.9153 442.917C70.3366 442.495 70.8227 442.168 71.3736 441.935C71.9245 441.695 72.5176 441.575 73.1528 441.575C73.775 441.575 74.3583 441.692 74.9028 441.925C75.4472 442.152 75.9269 442.466 76.3417 442.868L76.0208 444.21C75.7227 443.73 75.3208 443.348 74.8153 443.062C74.3162 442.771 73.762 442.625 73.1528 442.625C72.5111 442.625 71.931 442.784 71.4125 443.101C70.9005 443.412 70.4921 443.834 70.1875 444.365C69.8829 444.89 69.7306 445.477 69.7306 446.125C69.7306 446.76 69.8796 447.344 70.1778 447.875C70.4824 448.406 70.8907 448.831 71.4028 449.149C71.9213 449.466 72.5014 449.625 73.1431 449.625C73.506 449.625 73.8495 449.583 74.1736 449.499C74.5042 449.408 74.8056 449.281 75.0778 449.119V446.825H72.6667V445.833H76.1472V449.683C75.7519 450.014 75.2917 450.263 74.7667 450.432C74.2481 450.594 73.7069 450.675 73.1431 450.675ZM80.5648 450.578C80.0333 450.578 79.5472 450.445 79.1064 450.179C78.6657 449.907 78.3124 449.544 78.0467 449.09C77.7874 448.637 77.6578 448.134 77.6578 447.583C77.6578 447.032 77.7874 446.53 78.0467 446.076C78.3124 445.623 78.6657 445.263 79.1064 444.997C79.5472 444.725 80.0333 444.589 80.5648 444.589C80.9666 444.589 81.3425 444.663 81.6925 444.812C82.049 444.962 82.3569 445.169 82.6161 445.435V444.667H83.5884V450.5H82.6161V449.732C82.3569 449.991 82.049 450.199 81.6925 450.354C81.3425 450.503 80.9666 450.578 80.5648 450.578ZM80.7009 449.625C81.0703 449.625 81.4041 449.534 81.7023 449.353C82.0069 449.165 82.2467 448.919 82.4217 448.614C82.6032 448.303 82.6939 447.959 82.6939 447.583C82.6939 447.207 82.6032 446.867 82.4217 446.562C82.2467 446.251 82.0069 446.005 81.7023 445.824C81.4041 445.636 81.0703 445.542 80.7009 445.542C80.3314 445.542 79.9944 445.636 79.6898 445.824C79.3916 446.005 79.1518 446.251 78.9703 446.562C78.7953 446.867 78.7078 447.207 78.7078 447.583C78.7078 447.959 78.7953 448.303 78.9703 448.614C79.1518 448.919 79.3916 449.165 79.6898 449.353C79.9944 449.534 80.3314 449.625 80.7009 449.625ZM85.449 450.5V444.667H86.4212V445.736C86.6286 445.393 86.9041 445.12 87.2476 444.919C87.5911 444.712 87.9994 444.608 88.4726 444.608L88.7351 445.658C88.6119 445.619 88.4693 445.6 88.3073 445.6C87.7628 445.6 87.3253 445.775 86.9948 446.125C86.6642 446.469 86.499 446.961 86.499 447.603V450.5H85.449ZM89.824 450.5V444.667H90.7962V445.736C91.0036 445.393 91.2791 445.12 91.6226 444.919C91.9661 444.712 92.3744 444.608 92.8476 444.608L93.1101 445.658C92.9869 445.619 92.8443 445.6 92.6823 445.6C92.1378 445.6 91.7003 445.775 91.3698 446.125C91.0392 446.469 90.874 446.961 90.874 447.603V450.5H89.824ZM96.7881 450.617C96.1788 450.617 95.6312 450.481 95.1451 450.208C94.6654 449.936 94.2863 449.567 94.0076 449.1C93.7353 448.627 93.5992 448.102 93.5992 447.525C93.5992 446.974 93.7321 446.475 93.9978 446.028C94.2636 445.574 94.6201 445.214 95.0673 444.949C95.521 444.683 96.0201 444.55 96.5645 444.55C97.1025 444.55 97.5951 444.68 98.0423 444.939C98.4895 445.192 98.846 445.535 99.1117 445.969C99.3775 446.404 99.5103 446.896 99.5103 447.447V447.875H95.6992C95.5307 447.875 95.3589 447.869 95.1839 447.856C95.0089 447.843 94.8372 447.823 94.6687 447.797C94.74 448.316 94.9733 448.75 95.3687 449.1C95.7705 449.45 96.2469 449.625 96.7978 449.625C97.1673 449.625 97.5108 449.541 97.8284 449.372C98.146 449.204 98.402 448.98 98.5964 448.701L98.8881 449.897C98.6094 450.124 98.2886 450.302 97.9256 450.432C97.5691 450.555 97.19 450.617 96.7881 450.617ZM94.6395 447.087C94.9895 447.029 95.3427 447 95.6992 447H97.6339C97.7765 447 97.9159 447.006 98.052 447.019C98.1946 447.026 98.3372 447.036 98.4798 447.049C98.389 446.595 98.1622 446.222 97.7992 445.931C97.4363 445.632 97.0247 445.483 96.5645 445.483C96.0913 445.483 95.6765 445.642 95.3201 445.96C94.9636 446.271 94.7367 446.647 94.6395 447.087ZM101.592 450.5V445.542H100.27V444.667H101.622V442.722H102.613V444.667H104.062V445.542H102.642V450.5H101.592ZM108.491 450.5V441.75H110.941C111.498 441.75 111.939 441.86 112.263 442.081C112.593 442.301 112.83 442.57 112.973 442.888C113.115 443.199 113.186 443.494 113.186 443.772C113.186 444.09 113.112 444.381 112.963 444.647C112.82 444.906 112.626 445.12 112.38 445.289C112.853 445.503 113.235 445.824 113.527 446.251C113.825 446.679 113.974 447.165 113.974 447.71C113.974 448.17 113.857 448.614 113.624 449.042C113.397 449.469 113.057 449.819 112.603 450.092C112.156 450.364 111.602 450.5 110.941 450.5H108.491ZM109.599 449.508H110.863C111.342 449.508 111.728 449.414 112.02 449.226C112.311 449.038 112.525 448.802 112.661 448.517C112.798 448.231 112.866 447.95 112.866 447.671C112.866 447.399 112.801 447.12 112.671 446.835C112.542 446.55 112.331 446.313 112.039 446.125C111.748 445.931 111.355 445.833 110.863 445.833H109.599V449.508ZM109.599 444.9H110.853C111.236 444.9 111.543 444.809 111.777 444.628C112.017 444.44 112.136 444.174 112.136 443.831C112.136 443.474 112.02 443.205 111.786 443.024C111.553 442.836 111.255 442.742 110.892 442.742H109.599V444.9ZM115.486 450.5V441.167H116.536V450.5H115.486ZM121.062 450.617C120.498 450.617 119.983 450.481 119.516 450.208C119.05 449.936 118.677 449.57 118.398 449.11C118.126 448.65 117.99 448.141 117.99 447.583C117.99 447.019 118.126 446.511 118.398 446.057C118.677 445.597 119.05 445.231 119.516 444.958C119.983 444.686 120.498 444.55 121.062 444.55C121.632 444.55 122.148 444.686 122.608 444.958C123.075 445.231 123.444 445.597 123.716 446.057C123.995 446.511 124.134 447.019 124.134 447.583C124.134 448.141 123.995 448.65 123.716 449.11C123.444 449.57 123.075 449.936 122.608 450.208C122.148 450.481 121.632 450.617 121.062 450.617ZM121.062 449.625C121.438 449.625 121.778 449.534 122.083 449.353C122.388 449.165 122.631 448.919 122.812 448.614C122.994 448.303 123.084 447.959 123.084 447.583C123.084 447.207 122.994 446.867 122.812 446.562C122.631 446.251 122.388 446.005 122.083 445.824C121.778 445.636 121.438 445.542 121.062 445.542C120.686 445.542 120.346 445.636 120.041 445.824C119.737 446.005 119.494 446.251 119.312 446.562C119.131 446.867 119.04 447.207 119.04 447.583C119.04 447.959 119.131 448.303 119.312 448.614C119.494 448.919 119.737 449.165 120.041 449.353C120.346 449.534 120.686 449.625 121.062 449.625ZM128.253 450.617C127.69 450.617 127.174 450.481 126.708 450.208C126.241 449.936 125.868 449.57 125.59 449.11C125.317 448.65 125.181 448.141 125.181 447.583C125.181 447.019 125.317 446.511 125.59 446.057C125.868 445.597 126.241 445.231 126.708 444.958C127.174 444.686 127.69 444.55 128.253 444.55C128.824 444.55 129.339 444.686 129.799 444.958C130.266 445.231 130.635 445.597 130.908 446.057C131.186 446.511 131.326 447.019 131.326 447.583C131.326 448.141 131.186 448.65 130.908 449.11C130.635 449.57 130.266 449.936 129.799 450.208C129.339 450.481 128.824 450.617 128.253 450.617ZM128.253 449.625C128.629 449.625 128.97 449.534 129.274 449.353C129.579 449.165 129.822 448.919 130.003 448.614C130.185 448.303 130.276 447.959 130.276 447.583C130.276 447.207 130.185 446.867 130.003 446.562C129.822 446.251 129.579 446.005 129.274 445.824C128.97 445.636 128.629 445.542 128.253 445.542C127.878 445.542 127.537 445.636 127.233 445.824C126.928 446.005 126.685 446.251 126.503 446.562C126.322 446.867 126.231 447.207 126.231 447.583C126.231 447.959 126.322 448.303 126.503 448.614C126.685 448.919 126.928 449.165 127.233 449.353C127.537 449.534 127.878 449.625 128.253 449.625ZM132.781 450.5V444.667H133.753V445.503C133.967 445.185 134.236 444.949 134.56 444.793C134.891 444.631 135.237 444.55 135.6 444.55C135.996 444.55 136.359 444.644 136.689 444.832C137.02 445.013 137.286 445.269 137.487 445.6C137.713 445.25 138.005 444.987 138.362 444.812C138.725 444.637 139.107 444.55 139.509 444.55C139.95 444.55 140.351 444.654 140.714 444.861C141.084 445.069 141.375 445.36 141.589 445.736C141.81 446.106 141.92 446.543 141.92 447.049V450.5H140.87V447.175C140.87 446.644 140.718 446.242 140.413 445.969C140.115 445.691 139.768 445.551 139.373 445.551C139.126 445.551 138.887 445.606 138.653 445.717C138.426 445.827 138.238 445.999 138.089 446.232C137.947 446.465 137.875 446.77 137.875 447.146V450.5H136.825V447.175C136.825 446.806 136.751 446.501 136.602 446.261C136.459 446.021 136.271 445.843 136.038 445.726C135.811 445.603 135.575 445.542 135.328 445.542C135.088 445.542 134.852 445.597 134.618 445.707C134.392 445.817 134.204 445.989 134.055 446.222C133.906 446.456 133.831 446.763 133.831 447.146V450.5H132.781Z" fill="#000321"/>
<rect x="20.5" y="486.5" width="352" height="55" rx="4.5" fill="#E6EBF3"/>
<rect x="20.5" y="486.5" width="352" height="55" rx="4.5" stroke="#AABBD6"/>
<path d="M43 520V519C43 516.239 45.2386 514 48 514V514C50.7614 514 53 516.239 53 519V520" stroke="#000321" stroke-width="1.5" stroke-linecap="round"/>
<path d="M48 514C49.6569 514 51 512.657 51 511C51 509.343 49.6569 508 48 508C46.3431 508 45 509.343 45 511C45 512.657 46.3431 514 48 514Z" stroke="#000321" stroke-width="1.5" stroke-linecap="round" stroke-linejoin="round"/>
<circle cx="48" cy="514" r="10" stroke="#000321" stroke-width="1.5"/>
<path d="M68.175 518.5L71.8792 509.458H71.8986L75.6028 518.5H74.4264L73.3958 515.904H70.3333L69.2931 518.5H68.175ZM70.7028 514.981H73.0264L72.3361 513.25C72.2519 513.03 72.1708 512.812 72.0931 512.599C72.0153 512.385 71.9375 512.129 71.8597 511.831C71.7819 512.129 71.7074 512.385 71.6361 512.599C71.5648 512.806 71.4838 513.023 71.3931 513.25L70.7028 514.981ZM76.7126 518.5V509.167H77.7626V518.5H76.7126ZM79.6247 518.5V509.167H80.6747V518.5H79.6247ZM82.5368 518.5V512.667H83.5868V518.5H82.5368ZM83.0618 511.617C82.8674 511.617 82.7021 511.549 82.566 511.412C82.4299 511.276 82.3618 511.111 82.3618 510.917C82.3618 510.716 82.4299 510.55 82.566 510.421C82.7021 510.285 82.8674 510.217 83.0618 510.217C83.2628 510.217 83.4281 510.285 83.5577 510.421C83.6938 510.55 83.7618 510.716 83.7618 510.917C83.7618 511.111 83.6938 511.276 83.5577 511.412C83.4281 511.549 83.2628 511.617 83.0618 511.617ZM86.9559 518.617C86.6578 518.617 86.3369 518.562 85.9934 518.451C85.6564 518.335 85.3647 518.144 85.1184 517.878L85.4101 516.731C85.5916 517.035 85.8249 517.278 86.1101 517.46C86.3953 517.635 86.6999 517.722 87.024 517.722C87.3351 517.722 87.5684 517.648 87.724 517.499C87.8795 517.343 87.9573 517.155 87.9573 516.935C87.9573 516.682 87.873 516.497 87.7045 516.381C87.5425 516.264 87.3966 516.183 87.267 516.137L86.4795 515.836C86.3369 515.778 86.1652 515.694 85.9642 515.583C85.7633 515.467 85.5883 515.301 85.4392 515.087C85.2902 514.874 85.2156 514.595 85.2156 514.251C85.2156 513.94 85.2902 513.655 85.4392 513.396C85.5883 513.137 85.799 512.932 86.0712 512.783C86.3434 512.628 86.6642 512.55 87.0337 512.55C87.3253 512.55 87.63 512.602 87.9476 512.706C88.2652 512.809 88.5341 512.984 88.7545 513.231L88.4628 514.378C88.3073 514.093 88.0966 513.866 87.8309 513.697C87.5652 513.529 87.2897 513.444 87.0045 513.444C86.7388 513.444 86.5281 513.519 86.3726 513.668C86.2235 513.817 86.149 513.989 86.149 514.183C86.149 514.339 86.2008 514.478 86.3045 514.601C86.4082 514.725 86.5638 514.825 86.7712 514.903L87.5587 515.204C87.7013 515.256 87.8763 515.34 88.0837 515.457C88.2976 515.574 88.4855 515.742 88.6476 515.962C88.8096 516.183 88.8906 516.481 88.8906 516.857C88.8906 517.382 88.7059 517.806 88.3365 518.131C87.9735 518.455 87.5133 518.617 86.9559 518.617ZM93.0757 518.617C92.5118 518.617 91.9966 518.481 91.5299 518.208C91.0632 517.936 90.6906 517.57 90.4118 517.11C90.1396 516.65 90.0035 516.141 90.0035 515.583C90.0035 515.019 90.1396 514.511 90.4118 514.057C90.6906 513.597 91.0632 513.231 91.5299 512.958C91.9966 512.686 92.5118 512.55 93.0757 512.55C93.6461 512.55 94.1614 512.686 94.6216 512.958C95.0882 513.231 95.4577 513.597 95.7299 514.057C96.0086 514.511 96.148 515.019 96.148 515.583C96.148 516.141 96.0086 516.65 95.7299 517.11C95.4577 517.57 95.0882 517.936 94.6216 518.208C94.1614 518.481 93.6461 518.617 93.0757 518.617ZM93.0757 517.625C93.4517 517.625 93.7919 517.534 94.0966 517.353C94.4012 517.165 94.6443 516.919 94.8257 516.614C95.0072 516.303 95.098 515.959 95.098 515.583C95.098 515.207 95.0072 514.867 94.8257 514.562C94.6443 514.251 94.4012 514.005 94.0966 513.824C93.7919 513.636 93.4517 513.542 93.0757 513.542C92.6998 513.542 92.3595 513.636 92.0549 513.824C91.7503 514.005 91.5072 514.251 91.3257 514.562C91.1443 514.867 91.0535 515.207 91.0535 515.583C91.0535 515.959 91.1443 516.303 91.3257 516.614C91.5072 516.919 91.7503 517.165 92.0549 517.353C92.3595 517.534 92.6998 517.625 93.0757 517.625ZM97.6033 518.5V512.667H98.5755V513.61C98.7894 513.266 99.0648 513.004 99.4019 512.822C99.7454 512.641 100.115 512.55 100.51 512.55C100.925 512.55 101.307 512.654 101.657 512.861C102.014 513.062 102.302 513.357 102.523 513.746C102.743 514.128 102.853 514.595 102.853 515.146V518.5H101.803V515.292C101.803 514.831 101.664 514.426 101.385 514.076C101.113 513.72 100.727 513.542 100.228 513.542C99.8199 513.542 99.4537 513.691 99.1296 513.989C98.8121 514.281 98.6533 514.705 98.6533 515.262V518.5H97.6033ZM107.807 518.5V509.75H110.257C110.814 509.75 111.255 509.86 111.579 510.081C111.91 510.301 112.146 510.57 112.289 510.888C112.432 511.199 112.503 511.494 112.503 511.772C112.503 512.09 112.428 512.381 112.279 512.647C112.137 512.906 111.942 513.12 111.696 513.289C112.169 513.503 112.551 513.824 112.843 514.251C113.141 514.679 113.29 515.165 113.29 515.71C113.29 516.17 113.174 516.614 112.94 517.042C112.714 517.469 112.373 517.819 111.92 518.092C111.472 518.364 110.918 518.5 110.257 518.5H107.807ZM108.915 517.508H110.179C110.659 517.508 111.045 517.414 111.336 517.226C111.628 517.038 111.842 516.802 111.978 516.517C112.114 516.231 112.182 515.95 112.182 515.671C112.182 515.399 112.117 515.12 111.988 514.835C111.858 514.55 111.647 514.313 111.356 514.125C111.064 513.931 110.672 513.833 110.179 513.833H108.915V517.508ZM108.915 512.9H110.17C110.552 512.9 110.86 512.809 111.093 512.628C111.333 512.44 111.453 512.174 111.453 511.831C111.453 511.474 111.336 511.205 111.103 511.024C110.87 510.836 110.571 510.742 110.208 510.742H108.915V512.9ZM114.802 518.5V512.667H115.775V513.736C115.982 513.393 116.258 513.12 116.601 512.919C116.945 512.712 117.353 512.608 117.826 512.608L118.089 513.658C117.965 513.619 117.823 513.6 117.661 513.6C117.116 513.6 116.679 513.775 116.348 514.125C116.018 514.469 115.852 514.961 115.852 515.603V518.5H114.802ZM121.65 518.617C121.086 518.617 120.571 518.481 120.104 518.208C119.637 517.936 119.265 517.57 118.986 517.11C118.714 516.65 118.578 516.141 118.578 515.583C118.578 515.019 118.714 514.511 118.986 514.057C119.265 513.597 119.637 513.231 120.104 512.958C120.571 512.686 121.086 512.55 121.65 512.55C122.22 512.55 122.736 512.686 123.196 512.958C123.662 513.231 124.032 513.597 124.304 514.057C124.583 514.511 124.722 515.019 124.722 515.583C124.722 516.141 124.583 516.65 124.304 517.11C124.032 517.57 123.662 517.936 123.196 518.208C122.736 518.481 122.22 518.617 121.65 518.617ZM121.65 517.625C122.026 517.625 122.366 517.534 122.671 517.353C122.975 517.165 123.218 516.919 123.4 516.614C123.581 516.303 123.672 515.959 123.672 515.583C123.672 515.207 123.581 514.867 123.4 514.562C123.218 514.251 122.975 514.005 122.671 513.824C122.366 513.636 122.026 513.542 121.65 513.542C121.274 513.542 120.934 513.636 120.629 513.824C120.324 514.005 120.081 514.251 119.9 514.562C119.718 514.867 119.628 515.207 119.628 515.583C119.628 515.959 119.718 516.303 119.9 516.614C120.081 516.919 120.324 517.165 120.629 517.353C120.934 517.534 121.274 517.625 121.65 517.625ZM128.115 518.792L125.169 512.667H126.365L127.542 515.194C127.652 515.434 127.756 515.668 127.853 515.894C127.956 516.121 128.057 516.406 128.154 516.75C128.258 516.413 128.362 516.128 128.465 515.894C128.575 515.661 128.679 515.428 128.776 515.194L129.953 512.394L131.119 515.194C131.217 515.434 131.317 515.668 131.421 515.894C131.524 516.121 131.625 516.406 131.722 516.75C131.819 516.406 131.92 516.121 132.024 515.894C132.127 515.661 132.234 515.428 132.344 515.194L133.54 512.667H134.658L131.712 518.792L130.526 516.186C130.423 515.953 130.319 515.723 130.215 515.496C130.118 515.262 130.018 514.984 129.914 514.66C129.817 514.984 129.716 515.262 129.612 515.496C129.509 515.723 129.402 515.953 129.292 516.186L128.115 518.792ZM135.707 518.5V512.667H136.679V513.61C136.893 513.266 137.168 513.004 137.505 512.822C137.849 512.641 138.218 512.55 138.614 512.55C139.029 512.55 139.411 512.654 139.761 512.861C140.117 513.062 140.406 513.357 140.626 513.746C140.847 514.128 140.957 514.595 140.957 515.146V518.5H139.907V515.292C139.907 514.831 139.767 514.426 139.489 514.076C139.216 513.72 138.831 513.542 138.332 513.542C137.923 513.542 137.557 513.691 137.233 513.989C136.916 514.281 136.757 514.705 136.757 515.262V518.5H135.707Z" fill="#000321"/>
<path d="M28.0972 576.275C27.1093 576.275 26.1773 576.092 25.3014 575.725C24.4356 575.348 23.6718 574.834 23.0097 574.182C22.3579 573.53 21.8435 572.771 21.4667 571.906C21.1 571.04 20.9167 570.113 20.9167 569.125C20.9167 568.137 21.1 567.21 21.4667 566.344C21.8435 565.479 22.3579 564.72 23.0097 564.068C23.6718 563.416 24.4356 562.907 25.3014 562.54C26.1773 562.163 27.1093 561.975 28.0972 561.975C29.075 561.975 29.9917 562.158 30.8472 562.525C31.7028 562.881 32.4565 563.375 33.1083 564.007L32.6042 566.115C32.1356 565.362 31.5042 564.761 30.7097 564.312C29.9255 563.854 29.0546 563.625 28.0972 563.625C27.0889 563.625 26.1773 563.875 25.3625 564.374C24.5579 564.862 23.9162 565.525 23.4375 566.36C22.9588 567.185 22.7194 568.106 22.7194 569.125C22.7194 570.133 22.9588 571.055 23.4375 571.89C23.9162 572.725 24.5579 573.393 25.3625 573.892C26.1773 574.381 27.0889 574.625 28.0972 574.625C29.0648 574.625 29.9407 574.396 30.725 573.938C31.5093 573.479 32.1356 572.878 32.6042 572.135L33.1083 574.243C32.4565 574.864 31.7028 575.358 30.8472 575.725C29.9917 576.092 29.075 576.275 28.0972 576.275Z" fill="#000321"/>
<line x1="20" y1="594.5" x2="373" y2="594.5" stroke="#000321"/>
<rect x="20.5" y="607.5" width="352" height="55" rx="4.5" fill="#E6EBF3"/>
<rect x="20.5" y="607.5" width="352" height="55" rx="4.5" stroke="#AABBD6"/>
<path d="M43 641V640C43 637.239 45.2386 635 48 635V635C50.7614 635 53 637.239 53 640V641" stroke="#000321" stroke-width="1.5" stroke-linecap="round"/>
<path d="M48 635C49.6569 635 51 633.657 51 632C51 630.343 49.6569 629 48 629C46.3431 629 45 630.343 45 632C45 633.657 46.3431 635 48 635Z" stroke="#000321" stroke-width="1.5" stroke-linecap="round" stroke-linejoin="round"/>
<circle cx="48" cy="635" r="10" stroke="#000321" stroke-width="1.5"/>
<path d="M68.175 639.5L71.8792 630.458H71.8986L75.6028 639.5H74.4264L73.3958 636.904H70.3333L69.2931 639.5H68.175ZM70.7028 635.981H73.0264L72.3361 634.25C72.2519 634.03 72.1708 633.812 72.0931 633.599C72.0153 633.385 71.9375 633.129 71.8597 632.831C71.7819 633.129 71.7074 633.385 71.6361 633.599C71.5648 633.806 71.4838 634.023 71.3931 634.25L70.7028 635.981ZM76.7126 639.5V630.167H77.7626V639.5H76.7126ZM79.6247 639.5V633.667H80.6747V639.5H79.6247ZM80.1497 632.617C79.9553 632.617 79.79 632.549 79.6539 632.412C79.5178 632.276 79.4497 632.111 79.4497 631.917C79.4497 631.716 79.5178 631.55 79.6539 631.421C79.79 631.285 79.9553 631.217 80.1497 631.217C80.3507 631.217 80.5159 631.285 80.6456 631.421C80.7817 631.55 80.8497 631.716 80.8497 631.917C80.8497 632.111 80.7817 632.276 80.6456 632.412C80.5159 632.549 80.3507 632.617 80.1497 632.617ZM85.2202 639.617C84.6498 639.617 84.1313 639.481 83.6646 639.208C83.198 638.936 82.8253 638.57 82.5466 638.11C82.2679 637.65 82.1285 637.141 82.1285 636.583C82.1285 636.026 82.2679 635.517 82.5466 635.057C82.8253 634.597 83.198 634.231 83.6646 633.958C84.1313 633.686 84.6498 633.55 85.2202 633.55C85.6415 633.55 86.0368 633.625 86.4063 633.774C86.7757 633.923 87.0998 634.12 87.3785 634.367L87.0577 635.689C86.8956 635.365 86.6493 635.093 86.3188 634.872C85.9947 634.652 85.6253 634.542 85.2105 634.542C84.8345 634.542 84.491 634.636 84.1799 634.824C83.8753 635.005 83.6322 635.251 83.4507 635.562C83.2693 635.867 83.1785 636.207 83.1785 636.583C83.1785 636.953 83.2693 637.293 83.4507 637.604C83.6322 637.915 83.8753 638.165 84.1799 638.353C84.491 638.534 84.8345 638.625 85.2105 638.625C85.6253 638.625 85.9947 638.518 86.3188 638.304C86.6493 638.09 86.8956 637.815 87.0577 637.478L87.3785 638.8C87.0998 639.046 86.7757 639.244 86.4063 639.393C86.0368 639.542 85.6415 639.617 85.2202 639.617ZM91.4424 639.617C90.8331 639.617 90.2855 639.481 89.7993 639.208C89.3197 638.936 88.9406 638.567 88.6618 638.1C88.3896 637.627 88.2535 637.102 88.2535 636.525C88.2535 635.974 88.3864 635.475 88.6521 635.028C88.9179 634.574 89.2743 634.214 89.7216 633.949C90.1753 633.683 90.6743 633.55 91.2188 633.55C91.7568 633.55 92.2493 633.68 92.6966 633.939C93.1438 634.192 93.5003 634.535 93.766 634.969C94.0318 635.404 94.1646 635.896 94.1646 636.447V636.875H90.3535C90.185 636.875 90.0132 636.869 89.8382 636.856C89.6632 636.843 89.4915 636.823 89.323 636.797C89.3943 637.316 89.6276 637.75 90.023 638.1C90.4248 638.45 90.9012 638.625 91.4521 638.625C91.8216 638.625 92.1651 638.541 92.4827 638.372C92.8003 638.204 93.0563 637.98 93.2507 637.701L93.5424 638.897C93.2637 639.124 92.9429 639.302 92.5799 639.432C92.2234 639.555 91.8443 639.617 91.4424 639.617ZM89.2938 636.087C89.6438 636.029 89.997 636 90.3535 636H92.2882C92.4308 636 92.5702 636.006 92.7063 636.019C92.8489 636.026 92.9915 636.036 93.1341 636.049C93.0433 635.595 92.8165 635.222 92.4535 634.931C92.0906 634.632 91.679 634.483 91.2188 634.483C90.7456 634.483 90.3308 634.642 89.9743 634.96C89.6179 635.271 89.391 635.647 89.2938 636.087ZM102.698 639.675C102.069 639.675 101.476 639.558 100.919 639.325C100.368 639.085 99.8815 638.758 99.4602 638.343C99.0454 637.928 98.7181 637.445 98.4783 636.894C98.2449 636.344 98.1283 635.754 98.1283 635.125C98.1283 634.496 98.2449 633.906 98.4783 633.356C98.7181 632.805 99.0454 632.322 99.4602 631.907C99.8815 631.492 100.368 631.168 100.919 630.935C101.476 630.695 102.069 630.575 102.698 630.575C103.32 630.575 103.903 630.692 104.448 630.925C104.992 631.152 105.472 631.466 105.887 631.868L105.566 633.21C105.268 632.73 104.866 632.348 104.36 632.062C103.861 631.771 103.307 631.625 102.698 631.625C102.056 631.625 101.476 631.784 100.957 632.101C100.445 632.412 100.037 632.834 99.7324 633.365C99.4278 633.89 99.2755 634.477 99.2755 635.125C99.2755 635.767 99.4278 636.353 99.7324 636.885C100.037 637.416 100.445 637.841 100.957 638.158C101.476 638.469 102.056 638.625 102.698 638.625C103.313 638.625 103.871 638.479 104.37 638.188C104.869 637.896 105.268 637.513 105.566 637.04L105.887 638.382C105.472 638.777 104.992 639.092 104.448 639.325C103.903 639.558 103.32 639.675 102.698 639.675ZM107.228 639.5V630.167H108.278V634.493C108.499 634.188 108.771 633.955 109.095 633.793C109.419 633.631 109.766 633.55 110.135 633.55C110.55 633.55 110.932 633.654 111.282 633.861C111.639 634.062 111.927 634.357 112.148 634.746C112.368 635.128 112.478 635.595 112.478 636.146V639.5H111.428V636.292C111.428 635.831 111.289 635.426 111.01 635.076C110.738 634.72 110.352 634.542 109.853 634.542C109.445 634.542 109.079 634.691 108.755 634.989C108.437 635.281 108.278 635.705 108.278 636.262V639.5H107.228ZM116.727 639.578C116.195 639.578 115.709 639.445 115.269 639.179C114.828 638.907 114.475 638.544 114.209 638.09C113.95 637.637 113.82 637.134 113.82 636.583C113.82 636.032 113.95 635.53 114.209 635.076C114.475 634.623 114.828 634.263 115.269 633.997C115.709 633.725 116.195 633.589 116.727 633.589C117.129 633.589 117.505 633.663 117.855 633.812C118.211 633.962 118.519 634.169 118.778 634.435V633.667H119.75V639.5H118.778V638.732C118.519 638.991 118.211 639.199 117.855 639.354C117.505 639.503 117.129 639.578 116.727 639.578ZM116.863 638.625C117.232 638.625 117.566 638.534 117.864 638.353C118.169 638.165 118.409 637.919 118.584 637.614C118.765 637.303 118.856 636.959 118.856 636.583C118.856 636.207 118.765 635.867 118.584 635.562C118.409 635.251 118.169 635.005 117.864 634.824C117.566 634.636 117.232 634.542 116.863 634.542C116.494 634.542 116.156 634.636 115.852 634.824C115.554 635.005 115.314 635.251 115.132 635.562C114.957 635.867 114.87 636.207 114.87 636.583C114.87 636.959 114.957 637.303 115.132 637.614C115.314 637.919 115.554 638.165 115.852 638.353C116.156 638.534 116.494 638.625 116.863 638.625ZM121.611 639.5V633.667H122.583V634.736C122.791 634.393 123.066 634.12 123.41 633.919C123.753 633.712 124.162 633.608 124.635 633.608L124.897 634.658C124.774 634.619 124.631 634.6 124.469 634.6C123.925 634.6 123.487 634.775 123.157 635.125C122.826 635.469 122.661 635.961 122.661 636.603V639.5H121.611ZM125.986 639.5V630.167H127.036V639.5H125.986ZM131.679 639.617C131.069 639.617 130.522 639.481 130.036 639.208C129.556 638.936 129.177 638.567 128.898 638.1C128.626 637.627 128.49 637.102 128.49 636.525C128.49 635.974 128.623 635.475 128.888 635.028C129.154 634.574 129.511 634.214 129.958 633.949C130.412 633.683 130.911 633.55 131.455 633.55C131.993 633.55 132.486 633.68 132.933 633.939C133.38 634.192 133.737 634.535 134.002 634.969C134.268 635.404 134.401 635.896 134.401 636.447V636.875H130.59C130.421 636.875 130.25 636.869 130.075 636.856C129.9 636.843 129.728 636.823 129.559 636.797C129.631 637.316 129.864 637.75 130.259 638.1C130.661 638.45 131.138 638.625 131.688 638.625C132.058 638.625 132.401 638.541 132.719 638.372C133.037 638.204 133.293 637.98 133.487 637.701L133.779 638.897C133.5 639.124 133.179 639.302 132.816 639.432C132.46 639.555 132.081 639.617 131.679 639.617ZM129.53 636.087C129.88 636.029 130.233 636 130.59 636H132.525C132.667 636 132.807 636.006 132.943 636.019C133.085 636.026 133.228 636.036 133.37 636.049C133.28 635.595 133.053 635.222 132.69 634.931C132.327 634.632 131.915 634.483 131.455 634.483C130.982 634.483 130.567 634.642 130.211 634.96C129.854 635.271 129.627 635.647 129.53 636.087ZM137.309 639.617C137.011 639.617 136.69 639.562 136.347 639.451C136.01 639.335 135.718 639.144 135.472 638.878L135.764 637.731C135.945 638.035 136.178 638.278 136.464 638.46C136.749 638.635 137.053 638.722 137.377 638.722C137.689 638.722 137.922 638.648 138.077 638.499C138.233 638.343 138.311 638.155 138.311 637.935C138.311 637.682 138.227 637.497 138.058 637.381C137.896 637.264 137.75 637.183 137.621 637.137L136.833 636.836C136.69 636.778 136.519 636.694 136.318 636.583C136.117 636.467 135.942 636.301 135.793 636.087C135.644 635.874 135.569 635.595 135.569 635.251C135.569 634.94 135.644 634.655 135.793 634.396C135.942 634.137 136.152 633.932 136.425 633.783C136.697 633.628 137.018 633.55 137.387 633.55C137.679 633.55 137.983 633.602 138.301 633.706C138.619 633.809 138.888 633.984 139.108 634.231L138.816 635.378C138.661 635.093 138.45 634.866 138.184 634.697C137.919 634.529 137.643 634.444 137.358 634.444C137.092 634.444 136.882 634.519 136.726 634.668C136.577 634.817 136.502 634.989 136.502 635.183C136.502 635.339 136.554 635.478 136.658 635.601C136.762 635.725 136.917 635.825 137.125 635.903L137.912 636.204C138.055 636.256 138.23 636.34 138.437 636.457C138.651 636.574 138.839 636.742 139.001 636.962C139.163 637.183 139.244 637.481 139.244 637.857C139.244 638.382 139.059 638.806 138.69 639.131C138.327 639.455 137.867 639.617 137.309 639.617Z" fill="#000321"/>
<rect x="20.5" y="675.5" width="352" height="55" rx="4.5" fill="#E6EBF3"/>
<rect x="20.5" y="675.5" width="352" height="55" rx="4.5" stroke="#AABBD6"/>
<path d="M43 709V708C43 705.239 45.2386 703 48 703V703C50.7614 703 53 705.239 53 708V709" stroke="#000321" stroke-width="1.5" stroke-linecap="round"/>
<path d="M48 703C49.6569 703 51 701.657 51 700C51 698.343 49.6569 697 48 697C46.3431 697 45 698.343 45 700C45 701.657 46.3431 703 48 703Z" stroke="#000321" stroke-width="1.5" stroke-linecap="round" stroke-linejoin="round"/>
<circle cx="48" cy="703" r="10" stroke="#000321" stroke-width="1.5"/>
<path d="M71.1111 707.617C70.5926 707.617 70.1227 707.513 69.7014 707.306C69.2866 707.098 68.956 706.845 68.7097 706.547L69.0306 705.206C69.212 705.569 69.4843 705.896 69.8472 706.188C70.2102 706.479 70.6444 706.625 71.15 706.625C71.6102 706.625 71.9894 706.479 72.2875 706.188C72.5921 705.896 72.7444 705.536 72.7444 705.108C72.7444 704.797 72.6699 704.541 72.5208 704.34C72.3718 704.139 72.2032 703.981 72.0153 703.864C71.8273 703.747 71.6782 703.663 71.5681 703.611L70.4986 703.067C70.3301 702.976 70.1194 702.85 69.8667 702.688C69.6204 702.525 69.4032 702.302 69.2153 702.017C69.0273 701.731 68.9333 701.362 68.9333 700.908C68.9333 700.468 69.0338 700.075 69.2347 699.732C69.4421 699.388 69.7273 699.119 70.0903 698.925C70.4597 698.731 70.881 698.633 71.3542 698.633C71.8208 698.633 72.2324 698.718 72.5889 698.886C72.9454 699.048 73.2241 699.217 73.425 699.392L73.1042 700.733C72.9421 700.461 72.7023 700.205 72.3847 699.965C72.0671 699.725 71.7074 699.606 71.3056 699.606C70.9167 699.606 70.6056 699.722 70.3722 699.956C70.1389 700.182 70.0222 700.464 70.0222 700.801C70.0222 701.061 70.0806 701.275 70.1972 701.443C70.3204 701.612 70.4565 701.744 70.6056 701.842C70.7611 701.939 70.8875 702.013 70.9847 702.065L72.0736 702.61C72.2032 702.675 72.3653 702.765 72.5597 702.882C72.7606 702.999 72.9583 703.154 73.1528 703.349C73.3472 703.537 73.5093 703.77 73.6389 704.049C73.7685 704.321 73.8333 704.651 73.8333 705.04C73.8333 705.539 73.7134 705.983 73.4736 706.372C73.2403 706.761 72.9194 707.066 72.5111 707.286C72.1028 707.506 71.6361 707.617 71.1111 707.617ZM75.3454 710.417V701.667H76.3177V702.435C76.5834 702.169 76.8913 701.962 77.2413 701.812C77.5913 701.663 77.9672 701.589 78.3691 701.589C78.907 701.589 79.3931 701.725 79.8274 701.997C80.2681 702.263 80.6181 702.623 80.8774 703.076C81.1431 703.53 81.276 704.032 81.276 704.583C81.276 705.134 81.1431 705.637 80.8774 706.09C80.6181 706.544 80.2681 706.907 79.8274 707.179C79.3931 707.445 78.907 707.578 78.3691 707.578C77.9866 707.578 77.6269 707.51 77.2899 707.374C76.9529 707.237 76.6547 707.05 76.3954 706.81V710.417H75.3454ZM78.2329 706.625C78.6024 706.625 78.9362 706.534 79.2343 706.353C79.539 706.165 79.7788 705.919 79.9538 705.614C80.1353 705.303 80.226 704.959 80.226 704.583C80.226 704.207 80.1353 703.867 79.9538 703.562C79.7788 703.251 79.539 703.005 79.2343 702.824C78.9362 702.636 78.6024 702.542 78.2329 702.542C77.8635 702.542 77.5265 702.636 77.2218 702.824C76.9237 703.005 76.6839 703.251 76.5024 703.562C76.3274 703.867 76.2399 704.207 76.2399 704.583C76.2399 704.959 76.3274 705.303 76.5024 705.614C76.6839 705.919 76.9237 706.165 77.2218 706.353C77.5265 706.534 77.8635 706.625 78.2329 706.625ZM85.5088 707.617C84.8996 707.617 84.3519 707.481 83.8658 707.208C83.3861 706.936 83.007 706.567 82.7283 706.1C82.456 705.627 82.3199 705.102 82.3199 704.525C82.3199 703.974 82.4528 703.475 82.7185 703.028C82.9843 702.574 83.3408 702.214 83.788 701.949C84.2417 701.683 84.7408 701.55 85.2852 701.55C85.8232 701.55 86.3158 701.68 86.763 701.939C87.2102 702.192 87.5667 702.535 87.8324 702.969C88.0982 703.404 88.231 703.896 88.231 704.447V704.875H84.4199C84.2514 704.875 84.0796 704.869 83.9046 704.856C83.7296 704.843 83.5579 704.823 83.3894 704.797C83.4607 705.316 83.694 705.75 84.0894 706.1C84.4912 706.45 84.9676 706.625 85.5185 706.625C85.888 706.625 86.2315 706.541 86.5491 706.372C86.8667 706.204 87.1227 705.98 87.3171 705.701L87.6088 706.897C87.3301 707.124 87.0093 707.302 86.6463 707.432C86.2898 707.555 85.9107 707.617 85.5088 707.617ZM83.3602 704.087C83.7102 704.029 84.0634 704 84.4199 704H86.3546C86.4972 704 86.6366 704.006 86.7727 704.019C86.9153 704.026 87.0579 704.036 87.2005 704.049C87.1097 703.595 86.8829 703.222 86.5199 702.931C86.157 702.632 85.7454 702.483 85.2852 702.483C84.8121 702.483 84.3972 702.642 84.0408 702.96C83.6843 703.271 83.4574 703.647 83.3602 704.087ZM89.6326 707.5V701.667H90.6048V702.61C90.8187 702.266 91.0941 702.004 91.4312 701.822C91.7747 701.641 92.1441 701.55 92.5395 701.55C92.9543 701.55 93.3367 701.654 93.6867 701.861C94.0432 702.062 94.3316 702.357 94.552 702.746C94.7724 703.128 94.8826 703.595 94.8826 704.146V707.5H93.8326V704.292C93.8326 703.831 93.6932 703.426 93.4145 703.076C93.1423 702.72 92.7566 702.542 92.2576 702.542C91.8492 702.542 91.483 702.691 91.1589 702.989C90.8413 703.281 90.6826 703.705 90.6826 704.262V707.5H89.6326ZM99.3159 707.617C98.7455 707.617 98.227 707.481 97.7603 707.208C97.2937 706.936 96.921 706.57 96.6423 706.11C96.3636 705.65 96.2242 705.141 96.2242 704.583C96.2242 704.026 96.3636 703.517 96.6423 703.057C96.921 702.597 97.2937 702.231 97.7603 701.958C98.227 701.686 98.7455 701.55 99.3159 701.55C99.7372 701.55 100.133 701.625 100.502 701.774C100.871 701.923 101.196 702.12 101.474 702.367L101.153 703.689C100.991 703.365 100.745 703.093 100.414 702.872C100.09 702.652 99.721 702.542 99.3062 702.542C98.9302 702.542 98.5867 702.636 98.2756 702.824C97.971 703.005 97.7279 703.251 97.5464 703.562C97.365 703.867 97.2742 704.207 97.2742 704.583C97.2742 704.953 97.365 705.293 97.5464 705.604C97.7279 705.915 97.971 706.165 98.2756 706.353C98.5867 706.534 98.9302 706.625 99.3062 706.625C99.721 706.625 100.09 706.518 100.414 706.304C100.745 706.09 100.991 705.815 101.153 705.478L101.474 706.8C101.196 707.046 100.871 707.244 100.502 707.393C100.133 707.542 99.7372 707.617 99.3159 707.617ZM105.538 707.617C104.929 707.617 104.381 707.481 103.895 707.208C103.415 706.936 103.036 706.567 102.758 706.1C102.485 705.627 102.349 705.102 102.349 704.525C102.349 703.974 102.482 703.475 102.748 703.028C103.014 702.574 103.37 702.214 103.817 701.949C104.271 701.683 104.77 701.55 105.314 701.55C105.852 701.55 106.345 701.68 106.792 701.939C107.239 702.192 107.596 702.535 107.862 702.969C108.127 703.404 108.26 703.896 108.26 704.447V704.875H104.449C104.281 704.875 104.109 704.869 103.934 704.856C103.759 704.843 103.587 704.823 103.419 704.797C103.49 705.316 103.723 705.75 104.119 706.1C104.521 706.45 104.997 706.625 105.548 706.625C105.917 706.625 106.261 706.541 106.578 706.372C106.896 706.204 107.152 705.98 107.346 705.701L107.638 706.897C107.359 707.124 107.039 707.302 106.676 707.432C106.319 707.555 105.94 707.617 105.538 707.617ZM103.389 704.087C103.739 704.029 104.093 704 104.449 704H106.384C106.527 704 106.666 704.006 106.802 704.019C106.945 704.026 107.087 704.036 107.23 704.049C107.139 703.595 106.912 703.222 106.549 702.931C106.186 702.632 105.775 702.483 105.314 702.483C104.841 702.483 104.427 702.642 104.07 702.96C103.714 703.271 103.487 703.647 103.389 704.087ZM109.662 707.5V701.667H110.634V702.736C110.841 702.393 111.117 702.12 111.46 701.919C111.804 701.712 112.212 701.608 112.685 701.608L112.948 702.658C112.825 702.619 112.682 702.6 112.52 702.6C111.976 702.6 111.538 702.775 111.208 703.125C110.877 703.469 110.712 703.961 110.712 704.603V707.5H109.662ZM121.168 707.675C120.54 707.675 119.947 707.558 119.389 707.325C118.838 707.085 118.352 706.758 117.931 706.343C117.516 705.928 117.189 705.445 116.949 704.894C116.716 704.344 116.599 703.754 116.599 703.125C116.599 702.496 116.716 701.906 116.949 701.356C117.189 700.805 117.516 700.322 117.931 699.907C118.352 699.492 118.838 699.168 119.389 698.935C119.947 698.695 120.54 698.575 121.168 698.575C121.791 698.575 122.374 698.692 122.918 698.925C123.463 699.152 123.942 699.466 124.357 699.868L124.036 701.21C123.738 700.73 123.336 700.348 122.831 700.062C122.332 699.771 121.778 699.625 121.168 699.625C120.527 699.625 119.947 699.784 119.428 700.101C118.916 700.412 118.508 700.834 118.203 701.365C117.898 701.89 117.746 702.477 117.746 703.125C117.746 703.767 117.898 704.353 118.203 704.885C118.508 705.416 118.916 705.841 119.428 706.158C119.947 706.469 120.527 706.625 121.168 706.625C121.784 706.625 122.342 706.479 122.841 706.188C123.34 705.896 123.738 705.513 124.036 705.04L124.357 706.382C123.942 706.777 123.463 707.092 122.918 707.325C122.374 707.558 121.791 707.675 121.168 707.675ZM125.699 707.5V698.167H126.749V702.493C126.969 702.188 127.242 701.955 127.566 701.793C127.89 701.631 128.236 701.55 128.606 701.55C129.021 701.55 129.403 701.654 129.753 701.861C130.11 702.062 130.398 702.357 130.618 702.746C130.839 703.128 130.949 703.595 130.949 704.146V707.5H129.899V704.292C129.899 703.831 129.76 703.426 129.481 703.076C129.209 702.72 128.823 702.542 128.324 702.542C127.916 702.542 127.549 702.691 127.225 702.989C126.908 703.281 126.749 703.705 126.749 704.262V707.5H125.699ZM132.699 707.5V701.667H133.671V702.736C133.879 702.393 134.154 702.12 134.498 701.919C134.841 701.712 135.249 701.608 135.723 701.608L135.985 702.658C135.862 702.619 135.719 702.6 135.557 702.6C135.013 702.6 134.575 702.775 134.245 703.125C133.914 703.469 133.749 703.961 133.749 704.603V707.5H132.699ZM137.074 707.5V701.667H138.124V707.5H137.074ZM137.599 700.617C137.405 700.617 137.239 700.549 137.103 700.412C136.967 700.276 136.899 700.111 136.899 699.917C136.899 699.716 136.967 699.55 137.103 699.421C137.239 699.285 137.405 699.217 137.599 699.217C137.8 699.217 137.965 699.285 138.095 699.421C138.231 699.55 138.299 699.716 138.299 699.917C138.299 700.111 138.231 700.276 138.095 700.412C137.965 700.549 137.8 700.617 137.599 700.617ZM141.493 707.617C141.195 707.617 140.874 707.562 140.531 707.451C140.193 707.335 139.902 707.144 139.656 706.878L139.947 705.731C140.129 706.035 140.362 706.278 140.647 706.46C140.932 706.635 141.237 706.722 141.561 706.722C141.872 706.722 142.106 706.648 142.261 706.499C142.417 706.343 142.494 706.155 142.494 705.935C142.494 705.682 142.41 705.497 142.242 705.381C142.08 705.264 141.934 705.183 141.804 705.137L141.017 704.836C140.874 704.778 140.702 704.694 140.501 704.583C140.3 704.467 140.125 704.301 139.976 704.087C139.827 703.874 139.753 703.595 139.753 703.251C139.753 702.94 139.827 702.655 139.976 702.396C140.125 702.137 140.336 701.932 140.608 701.783C140.881 701.628 141.201 701.55 141.571 701.55C141.862 701.55 142.167 701.602 142.485 701.706C142.802 701.809 143.071 701.984 143.292 702.231L143 703.378C142.844 703.093 142.634 702.866 142.368 702.697C142.102 702.529 141.827 702.444 141.542 702.444C141.276 702.444 141.065 702.519 140.91 702.668C140.761 702.817 140.686 702.989 140.686 703.183C140.686 703.339 140.738 703.478 140.842 703.601C140.945 703.725 141.101 703.825 141.308 703.903L142.096 704.204C142.238 704.256 142.413 704.34 142.621 704.457C142.835 704.574 143.023 704.742 143.185 704.962C143.347 705.183 143.428 705.481 143.428 705.857C143.428 706.382 143.243 706.806 142.874 707.131C142.511 707.455 142.05 707.617 141.493 707.617Z" fill="#000321"/>
<path d="M21.925 765V751.25H26.4319C27.6745 751.25 28.7542 751.454 29.6708 751.861C30.5977 752.269 31.3616 752.808 31.9625 753.481C32.5634 754.153 33.0116 754.896 33.3069 755.711C33.6023 756.516 33.75 757.32 33.75 758.125C33.75 758.93 33.6023 759.739 33.3069 760.554C33.0116 761.359 32.5634 762.097 31.9625 762.769C31.3616 763.442 30.5977 763.981 29.6708 764.389C28.7542 764.796 27.6745 765 26.4319 765H21.925ZM23.6667 763.442H26.2486C27.3079 763.442 28.1991 763.279 28.9222 762.953C29.6454 762.617 30.231 762.184 30.6792 761.654C31.1273 761.114 31.4481 760.534 31.6417 759.912C31.8454 759.291 31.9472 758.695 31.9472 758.125C31.9472 757.555 31.8454 756.959 31.6417 756.337C31.4481 755.716 31.1273 755.141 30.6792 754.611C30.231 754.071 29.6454 753.638 28.9222 753.312C28.1991 752.976 27.3079 752.808 26.2486 752.808H23.6667V763.442Z" fill="#000321"/>
<rect x="329" y="688" width="44" height="44" rx="5" fill="#2B35AA"/>
<path d="M345 710H351M357 710H351M351 710V704M351 710V716" stroke="white" stroke-width="1.5" stroke-linecap="round" stroke-linejoin="round"/>
</g>
<rect width="393" height="100" transform="translate(0 752)" fill="#7079D8"/>
<path d="M44 782L53.7317 777.134C53.9006 777.05 54.0994 777.05 54.2683 777.134L64 782" stroke="white" stroke-width="1.5" stroke-linecap="round" stroke-linejoin="round"/>
<path d="M62 785V793C62 794.105 61.1046 795 60 795H48C46.8954 795 46 794.105 46 793V785" stroke="white" stroke-width="1.5" stroke-linecap="round" stroke-linejoin="round"/>
<path d="M152 778V776M152 778V780M152 778H147.5M140 784V793C140 794.105 140.895 795 142 795H156C157.105 795 158 794.105 158 793V784H140Z" stroke="white" stroke-width="1.5" stroke-linecap="round" stroke-linejoin="round"/>
<path d="M140 784V780C140 778.895 140.895 778 142 778H144" stroke="white" stroke-width="1.5" stroke-linecap="round" stroke-linejoin="round"/>
<path d="M144 776V780" stroke="white" stroke-width="1.5" stroke-linecap="round" stroke-linejoin="round"/>
<path d="M158 784V780C158 778.895 157.105 778 156 778H155.5" stroke="white" stroke-width="1.5" stroke-linecap="round" stroke-linejoin="round"/>
<rect x="222" y="764" width="44" height="44" rx="5" fill="#2B35AA"/>
<path d="M233 794V793C233 789.134 236.134 786 240 786V786C243.866 786 247 789.134 247 793V794" stroke="white" stroke-width="1.5" stroke-linecap="round"/>
<path d="M245 788V788C245 785.239 247.239 783 250 783V783C252.761 783 255 785.239 255 788V788.5" stroke="white" stroke-width="1.5" stroke-linecap="round"/>
<path d="M240 786C242.209 786 244 784.209 244 782C244 779.791 242.209 778 240 778C237.791 778 236 779.791 236 782C236 784.209 237.791 786 240 786Z" stroke="white" stroke-width="1.5" stroke-linecap="round" stroke-linejoin="round"/>
<path d="M250 783C251.657 783 253 781.657 253 780C253 778.343 251.657 777 250 777C248.343 777 247 778.343 247 780C247 781.657 248.343 783 250 783Z" stroke="white" stroke-width="1.5" stroke-linecap="round" stroke-linejoin="round"/>
<path d="M330 794.29V779C330 777.895 330.895 777 332 777H346C347.105 777 348 777.895 348 779V789C348 790.105 347.105 791 346 791H334.961C334.354 791 333.779 791.276 333.4 791.751L331.069 794.664C330.714 795.107 330 794.857 330 794.29Z" stroke="white" stroke-width="1.5"/>
</g>
<rect x="130" y="838" width="134" height="5" rx="2.5" fill="black"/>
<path fill-rule="evenodd" clip-rule="evenodd" d="M0 0H40C17.9086 0 1.02597e-05 17.9086 9.98798e-06 40L0 812V0ZM0 812C0 834.091 17.9086 852 40 852H0V812ZM393 40C393 17.9086 375.091 0 353 0H393V40ZM353 852C375.091 852 393 834.091 393 812V852H353ZM150.5 10C140.283 10 132 18.2827 132 28.5C132 38.7173 140.283 47 150.5 47H239.5C249.717 47 258 38.7173 258 28.5C258 18.2827 249.717 10 239.5 10H150.5Z" fill="black"/>
<path opacity="0.35" fill-rule="evenodd" clip-rule="evenodd" d="M352.091 22.3333C353.698 22.3333 355 23.5272 355 24.9999V30.9999C355 32.4727 353.698 33.6666 352.091 33.6666H333.909C332.302 33.6666 331 32.4727 331 30.9999V24.9999C331 23.5272 332.302 22.3333 333.909 22.3333H352.091ZM352.091 23.3333H333.909C332.958 23.3333 332.177 24.003 332.098 24.8561L332.091 24.9999V30.9999C332.091 31.8719 332.821 32.5876 333.752 32.6605L333.909 32.6666H352.091C353.042 32.6666 353.823 31.9969 353.902 31.1437L353.909 30.9999V24.9999C353.909 24.1279 353.178 23.4123 352.248 23.3394L352.091 23.3333ZM357.328 27.9999C357.328 28.873 356.805 29.6611 356 29.9999V25.9999C356.805 26.3387 357.328 27.1268 357.328 27.9999Z" fill="black"/>
<path fill-rule="evenodd" clip-rule="evenodd" d="M64.0994 27.8346C64.0994 31.8079 62.3171 34.1542 59.3167 34.1542C57.1583 34.1542 55.5151 32.8789 55.1635 30.9413H57.2646C57.5344 31.8324 58.3193 32.3883 59.333 32.3883C61.0581 32.3883 62.08 30.7777 62.08 28.0798H61.941C61.3851 29.1999 60.265 29.8457 58.8834 29.8457C56.6351 29.8457 55 28.1943 55 25.9215C55 23.5015 56.815 21.7765 59.3821 21.7765C61.1071 21.7765 62.4724 22.594 63.2655 24.1065C63.8132 25.0794 64.0994 26.3384 64.0994 27.8346ZM57.0684 25.8561C57.0684 27.205 58.0331 28.1697 59.3902 28.1697C60.7392 28.1697 61.7284 27.205 61.7284 25.8888C61.7284 24.5562 60.7147 23.5342 59.3984 23.5342C58.0821 23.5342 57.0684 24.5398 57.0684 25.8561ZM67.468 26.4856C68.2447 26.4856 68.7761 25.9378 68.7761 25.202C68.7761 24.458 68.2447 23.9103 67.468 23.9103C66.6995 23.9103 66.1599 24.458 66.1599 25.202C66.1599 25.9378 66.6995 26.4856 67.468 26.4856ZM68.7761 31.3255C68.7761 32.0613 68.2447 32.6172 67.468 32.6172C66.6995 32.6172 66.1599 32.0613 66.1599 31.3255C66.1599 30.5815 66.6995 30.0338 67.468 30.0338C68.2447 30.0338 68.7761 30.5815 68.7761 31.3255ZM78.6115 33.8681V31.6689H80.2058V29.8866H78.6115V22.0708H75.6356C73.5509 25.2102 71.8913 27.8346 70.8284 29.7885V31.6689H76.5922V33.8681H78.6115ZM72.7824 29.9357H76.6249V23.7877H76.5104C75.3822 25.4555 74.1559 27.3931 72.7824 29.813V29.9357ZM87 33.8681V22.0708H84.8989L81.8167 24.2292V26.2567L84.7517 24.1964H84.8907V33.8681H87ZM320.283 26.9863C318.677 25.4595 316.546 24.6081 314.33 24.608C312.114 24.608 309.983 25.4594 308.377 26.9863C308.256 27.1044 308.062 27.1029 307.943 26.983L306.787 25.8163C306.727 25.7555 306.693 25.6733 306.694 25.5877C306.694 25.5021 306.729 25.4203 306.79 25.3603C311.005 21.3208 317.655 21.3208 321.87 25.3603C321.931 25.4203 321.965 25.5022 321.966 25.5878C321.966 25.6733 321.933 25.7556 321.873 25.8163L320.717 26.983C320.597 27.1027 320.404 27.1042 320.283 26.9863ZM317.624 29.6733C316.722 28.8561 315.548 28.4036 314.33 28.4036C313.114 28.4041 311.94 28.8566 311.039 29.6733C310.916 29.7893 310.724 29.7868 310.605 29.6676L309.451 28.501C309.39 28.4399 309.356 28.3569 309.357 28.2706C309.358 28.1843 309.393 28.1019 309.455 28.042C312.203 25.4856 316.459 25.4856 319.208 28.042C319.27 28.1019 319.305 28.1842 319.306 28.2705C319.307 28.3568 319.273 28.4398 319.212 28.501L318.058 29.6676C317.939 29.7868 317.746 29.7893 317.624 29.6733ZM316.549 31.188C316.611 31.1274 316.645 31.044 316.643 30.9575C316.641 30.8709 316.604 30.789 316.54 30.731C315.264 29.6521 313.396 29.6521 312.121 30.731C312.056 30.789 312.019 30.8709 312.017 30.9574C312.015 31.0439 312.049 31.1273 312.111 31.188L314.109 33.2036C314.167 33.2629 314.247 33.2962 314.33 33.2962C314.414 33.2962 314.493 33.2629 314.552 33.2036L316.549 31.188ZM334.333 24.3333C333.597 24.3333 333 24.9303 333 25.6666V30.3333C333 31.0697 333.597 31.6666 334.333 31.6666H351.667C352.403 31.6666 353 31.0697 353 30.3333V25.6666C353 24.9303 352.403 24.3333 351.667 24.3333H334.333ZM296.667 22.6666H295.667C295.114 22.6666 294.667 23.1144 294.667 23.6666V32.3333C294.667 32.8856 295.114 33.3333 295.667 33.3333H296.667C297.219 33.3333 297.667 32.8856 297.667 32.3333V23.6666C297.667 23.1144 297.219 22.6666 296.667 22.6666ZM291 25H292C292.552 25 293 25.4477 293 26V32.3333C293 32.8856 292.552 33.3333 292 33.3333H291C290.448 33.3333 290 32.8856 290 32.3333V26C290 25.4477 290.448 25 291 25ZM287.333 27.3333H286.333C285.781 27.3333 285.333 27.781 285.333 28.3333V32.3333C285.333 32.8856 285.781 33.3333 286.333 33.3333H287.333C287.885 33.3333 288.333 32.8856 288.333 32.3333V28.3333C288.333 27.781 287.885 27.3333 287.333 27.3333ZM282.667 29.3333H281.667C281.114 29.3333 280.667 29.781 280.667 30.3333V32.3333C280.667 32.8856 281.114 33.3333 281.667 33.3333H282.667C283.219 33.3333 283.667 32.8856 283.667 32.3333V30.3333C283.667 29.781 283.219 29.3333 282.667 29.3333Z" fill="black"/>
</g>
<defs>
<clipPath id="clip0_87_578">
<rect width="393" height="852" fill="white"/>
</clipPath>
<clipPath id="clip1_87_578">
<rect width="393" height="852" fill="white"/>
</clipPath>
<clipPath id="clip2_87_578">
<rect width="393" height="652" fill="white" transform="translate(0 100)"/>
</clipPath>
</defs>
</svg>
