<svg width="393" height="852" viewBox="0 0 393 852" fill="none" xmlns="http://www.w3.org/2000/svg">
<g clip-path="url(#clip0_53_719)">
<rect width="393" height="852" fill="white"/>
<g clip-path="url(#clip1_53_719)">
<rect width="393" height="100" fill="#7079D8"/>
<path d="M49 72V71C49 68.2386 51.2386 66 54 66V66C56.7614 66 59 68.2386 59 71V72" stroke="white" stroke-width="1.5" stroke-linecap="round"/>
<path d="M54 66C55.6569 66 57 64.6569 57 63C57 61.3431 55.6569 60 54 60C52.3431 60 51 61.3431 51 63C51 64.6569 52.3431 66 54 66Z" stroke="white" stroke-width="1.5" stroke-linecap="round" stroke-linejoin="round"/>
<circle cx="54" cy="66" r="10" stroke="white" stroke-width="1.5"/>
<path d="M163.425 81V67.25H166.832C167.738 67.25 168.502 67.3875 169.124 67.6625C169.755 67.9375 170.264 68.2991 170.651 68.7472C171.038 69.1852 171.319 69.6639 171.492 70.1833C171.675 70.7028 171.767 71.212 171.767 71.7111C171.767 72.2 171.68 72.7042 171.507 73.2236C171.334 73.7431 171.054 74.2269 170.667 74.675C170.28 75.1231 169.77 75.4847 169.139 75.7597C168.507 76.0347 167.738 76.1722 166.832 76.1722H165.167V81H163.425ZM165.167 74.6139H166.74C167.565 74.6139 168.217 74.4713 168.696 74.1861C169.175 73.8907 169.516 73.5241 169.719 73.0861C169.923 72.638 170.025 72.1796 170.025 71.7111C170.025 71.263 169.923 70.8148 169.719 70.3667C169.526 69.9185 169.19 69.5468 168.711 69.2514C168.243 68.956 167.586 68.8083 166.74 68.8083H165.167V74.6139ZM177.291 81.1222C176.456 81.1222 175.692 80.9134 175 80.4958C174.307 80.0681 173.752 79.4977 173.335 78.7847C172.927 78.0718 172.723 77.2824 172.723 76.4167C172.723 75.5509 172.927 74.7616 173.335 74.0486C173.752 73.3356 174.307 72.7704 175 72.3528C175.692 71.925 176.456 71.7111 177.291 71.7111C177.923 71.7111 178.514 71.8282 179.064 72.0625C179.624 72.2968 180.108 72.6227 180.515 73.0403V71.8333H182.043V81H180.515V79.7931C180.108 80.2005 179.624 80.5264 179.064 80.7708C178.514 81.0051 177.923 81.1222 177.291 81.1222ZM177.505 79.625C178.086 79.625 178.61 79.4824 179.079 79.1972C179.558 78.9019 179.935 78.5148 180.21 78.0361C180.495 77.5472 180.637 77.0074 180.637 76.4167C180.637 75.8259 180.495 75.2912 180.21 74.8125C179.935 74.3236 179.558 73.9366 179.079 73.6514C178.61 73.356 178.086 73.2083 177.505 73.2083C176.925 73.2083 176.395 73.356 175.916 73.6514C175.448 73.9366 175.071 74.3236 174.786 74.8125C174.511 75.2912 174.373 75.8259 174.373 76.4167C174.373 77.0074 174.511 77.5472 174.786 78.0361C175.071 78.5148 175.448 78.9019 175.916 79.1972C176.395 79.4824 176.925 79.625 177.505 79.625ZM186.036 81V73.2083H183.958V71.8333H186.082V68.7778H187.64V71.8333H189.917V73.2083H187.686V81H186.036ZM191.842 81V71.8333H193.492V81H191.842ZM192.667 70.1833C192.361 70.1833 192.101 70.0764 191.888 69.8625C191.674 69.6486 191.567 69.3889 191.567 69.0833C191.567 68.7676 191.674 68.5079 191.888 68.3042C192.101 68.0903 192.361 67.9833 192.667 67.9833C192.982 67.9833 193.242 68.0903 193.446 68.3042C193.66 68.5079 193.767 68.7676 193.767 69.0833C193.767 69.3889 193.66 69.6486 193.446 69.8625C193.242 70.0764 192.982 70.1833 192.667 70.1833ZM200.787 81.1833C199.83 81.1833 198.969 80.9694 198.205 80.5417C197.452 80.1139 196.856 79.5333 196.418 78.8C195.99 78.0565 195.776 77.2315 195.776 76.325C195.776 75.4593 195.985 74.675 196.403 73.9722C196.82 73.2593 197.38 72.694 198.083 72.2764C198.796 71.8588 199.58 71.65 200.436 71.65C201.281 71.65 202.055 71.8537 202.758 72.2611C203.461 72.6583 204.021 73.1981 204.439 73.8806C204.856 74.563 205.065 75.337 205.065 76.2028V76.875H199.076C198.811 76.875 198.541 76.8648 198.266 76.8444C197.991 76.8241 197.722 76.7935 197.457 76.7528C197.569 77.5676 197.935 78.25 198.557 78.8C199.188 79.35 199.937 79.625 200.803 79.625C201.383 79.625 201.923 79.4926 202.422 79.2278C202.921 78.963 203.323 78.6116 203.629 78.1736L204.087 80.0528C203.649 80.4093 203.145 80.6894 202.575 80.8931C202.015 81.0866 201.419 81.1833 200.787 81.1833ZM197.411 75.6375C197.961 75.5458 198.516 75.5 199.076 75.5H202.116C202.341 75.5 202.56 75.5102 202.773 75.5306C202.997 75.5407 203.222 75.556 203.446 75.5764C203.303 74.8634 202.947 74.2778 202.376 73.8194C201.806 73.3509 201.159 73.1167 200.436 73.1167C199.692 73.1167 199.041 73.3662 198.48 73.8653C197.92 74.3542 197.564 74.9449 197.411 75.6375ZM207.267 81V71.8333H208.795V73.3153C209.131 72.7755 209.564 72.363 210.094 72.0778C210.634 71.7926 211.214 71.65 211.836 71.65C212.487 71.65 213.088 71.813 213.638 72.1389C214.198 72.4546 214.652 72.9181 214.998 73.5292C215.344 74.1301 215.517 74.8634 215.517 75.7292V81H213.867V75.9583C213.867 75.2352 213.648 74.5986 213.211 74.0486C212.783 73.4884 212.177 73.2083 211.392 73.2083C210.751 73.2083 210.175 73.4426 209.666 73.9111C209.167 74.3694 208.917 75.0366 208.917 75.9125V81H207.267ZM219.036 81V73.2083H216.958V71.8333H219.082V68.7778H220.64V71.8333H222.917V73.2083H220.686V81H219.036ZM227.21 81.1833C226.741 81.1833 226.237 81.0968 225.697 80.9236C225.168 80.7403 224.709 80.4398 224.322 80.0222L224.781 78.2194C225.066 78.6981 225.432 79.0801 225.881 79.3653C226.329 79.6403 226.807 79.7778 227.317 79.7778C227.806 79.7778 228.172 79.6606 228.417 79.4264C228.661 79.1819 228.783 78.8866 228.783 78.5403C228.783 78.1431 228.651 77.8528 228.386 77.6694C228.131 77.4861 227.902 77.3588 227.699 77.2875L226.461 76.8139C226.237 76.7222 225.967 76.5898 225.651 76.4167C225.336 76.2333 225.061 75.9736 224.826 75.6375C224.592 75.3014 224.475 74.8634 224.475 74.3236C224.475 73.8347 224.592 73.3866 224.826 72.9792C225.061 72.5718 225.392 72.2509 225.819 72.0167C226.247 71.7722 226.751 71.65 227.332 71.65C227.79 71.65 228.269 71.7315 228.768 71.8944C229.267 72.0574 229.69 72.3324 230.036 72.7194L229.578 74.5222C229.333 74.0741 229.002 73.7176 228.585 73.4528C228.167 73.188 227.734 73.0556 227.286 73.0556C226.869 73.0556 226.537 73.1727 226.293 73.4069C226.059 73.6412 225.942 73.9111 225.942 74.2167C225.942 74.4611 226.023 74.6801 226.186 74.8736C226.349 75.0671 226.594 75.225 226.919 75.3472L228.157 75.8208C228.381 75.9023 228.656 76.0347 228.982 76.2181C229.318 76.4014 229.613 76.6662 229.868 77.0125C230.123 77.3588 230.25 77.8273 230.25 78.4181C230.25 79.2431 229.96 79.9102 229.379 80.4194C228.809 80.9287 228.086 81.1833 227.21 81.1833Z" fill="white"/>
<g clip-path="url(#clip2_53_719)">
<rect width="393" height="652" transform="translate(0 100)" fill="white"/>
<rect x="20.5" y="120.5" width="296" height="43" rx="5.5" fill="white"/>
<rect x="20.5" y="120.5" width="296" height="43" rx="5.5" stroke="#AABBD6"/>
<path d="M33.1111 146.617C32.5926 146.617 32.1227 146.513 31.7014 146.306C31.2866 146.098 30.956 145.845 30.7097 145.547L31.0306 144.206C31.212 144.569 31.4843 144.896 31.8472 145.188C32.2102 145.479 32.6444 145.625 33.15 145.625C33.6102 145.625 33.9894 145.479 34.2875 145.188C34.5921 144.896 34.7444 144.536 34.7444 144.108C34.7444 143.797 34.6699 143.541 34.5208 143.34C34.3718 143.139 34.2032 142.981 34.0153 142.864C33.8273 142.747 33.6782 142.663 33.5681 142.611L32.4986 142.067C32.3301 141.976 32.1194 141.85 31.8667 141.688C31.6204 141.525 31.4032 141.302 31.2153 141.017C31.0273 140.731 30.9333 140.362 30.9333 139.908C30.9333 139.468 31.0338 139.075 31.2347 138.732C31.4421 138.388 31.7273 138.119 32.0903 137.925C32.4597 137.731 32.881 137.633 33.3542 137.633C33.8208 137.633 34.2324 137.718 34.5889 137.886C34.9454 138.048 35.2241 138.217 35.425 138.392L35.1042 139.733C34.9421 139.461 34.7023 139.205 34.3847 138.965C34.0671 138.725 33.7074 138.606 33.3056 138.606C32.9167 138.606 32.6056 138.722 32.3722 138.956C32.1389 139.182 32.0222 139.464 32.0222 139.801C32.0222 140.061 32.0806 140.275 32.1972 140.443C32.3204 140.612 32.4565 140.744 32.6056 140.842C32.7611 140.939 32.8875 141.013 32.9847 141.065L34.0736 141.61C34.2032 141.675 34.3653 141.765 34.5597 141.882C34.7606 141.999 34.9583 142.154 35.1528 142.349C35.3472 142.537 35.5093 142.77 35.6389 143.049C35.7685 143.321 35.8333 143.651 35.8333 144.04C35.8333 144.539 35.7134 144.983 35.4736 145.372C35.2403 145.761 34.9194 146.066 34.5111 146.286C34.1028 146.506 33.6361 146.617 33.1111 146.617ZM40.126 146.617C39.5167 146.617 38.9691 146.481 38.4829 146.208C38.0033 145.936 37.6241 145.567 37.3454 145.1C37.0732 144.627 36.9371 144.102 36.9371 143.525C36.9371 142.974 37.07 142.475 37.3357 142.028C37.6015 141.574 37.9579 141.214 38.4052 140.949C38.8589 140.683 39.3579 140.55 39.9024 140.55C40.4404 140.55 40.9329 140.68 41.3802 140.939C41.8274 141.192 42.1839 141.535 42.4496 141.969C42.7154 142.404 42.8482 142.896 42.8482 143.447V143.875H39.0371C38.8686 143.875 38.6968 143.869 38.5218 143.856C38.3468 143.843 38.1751 143.823 38.0066 143.797C38.0779 144.316 38.3112 144.75 38.7066 145.1C39.1084 145.45 39.5848 145.625 40.1357 145.625C40.5052 145.625 40.8487 145.541 41.1663 145.372C41.4839 145.204 41.7399 144.98 41.9343 144.701L42.226 145.897C41.9473 146.124 41.6265 146.302 41.2635 146.432C40.907 146.555 40.5279 146.617 40.126 146.617ZM37.9774 143.087C38.3274 143.029 38.6806 143 39.0371 143H40.9718C41.1144 143 41.2538 143.006 41.3899 143.019C41.5325 143.026 41.6751 143.036 41.8177 143.049C41.7269 142.595 41.5001 142.222 41.1371 141.931C40.7741 141.632 40.3626 141.483 39.9024 141.483C39.4292 141.483 39.0144 141.642 38.6579 141.96C38.3015 142.271 38.0746 142.647 37.9774 143.087ZM46.7484 146.578C46.2169 146.578 45.7308 146.445 45.29 146.179C44.8493 145.907 44.496 145.544 44.2303 145.09C43.971 144.637 43.8414 144.134 43.8414 143.583C43.8414 143.032 43.971 142.53 44.2303 142.076C44.496 141.623 44.8493 141.263 45.29 140.997C45.7308 140.725 46.2169 140.589 46.7484 140.589C47.1502 140.589 47.5261 140.663 47.8761 140.812C48.2326 140.962 48.5405 141.169 48.7997 141.435V140.667H49.772V146.5H48.7997V145.732C48.5405 145.991 48.2326 146.199 47.8761 146.354C47.5261 146.503 47.1502 146.578 46.7484 146.578ZM46.8845 145.625C47.2539 145.625 47.5877 145.534 47.8859 145.353C48.1905 145.165 48.4303 144.919 48.6053 144.614C48.7868 144.303 48.8775 143.959 48.8775 143.583C48.8775 143.207 48.7868 142.867 48.6053 142.562C48.4303 142.251 48.1905 142.005 47.8859 141.824C47.5877 141.636 47.2539 141.542 46.8845 141.542C46.515 141.542 46.178 141.636 45.8734 141.824C45.5752 142.005 45.3354 142.251 45.1539 142.562C44.9789 142.867 44.8914 143.207 44.8914 143.583C44.8914 143.959 44.9789 144.303 45.1539 144.614C45.3354 144.919 45.5752 145.165 45.8734 145.353C46.178 145.534 46.515 145.625 46.8845 145.625ZM51.6326 146.5V140.667H52.6048V141.736C52.8122 141.393 53.0876 141.12 53.4312 140.919C53.7747 140.712 54.183 140.608 54.6562 140.608L54.9187 141.658C54.7955 141.619 54.6529 141.6 54.4909 141.6C53.9464 141.6 53.5089 141.775 53.1784 142.125C52.8478 142.469 52.6826 142.961 52.6826 143.603V146.5H51.6326ZM58.4995 146.617C57.9291 146.617 57.4106 146.481 56.9439 146.208C56.4773 145.936 56.1046 145.57 55.8259 145.11C55.5472 144.65 55.4078 144.141 55.4078 143.583C55.4078 143.026 55.5472 142.517 55.8259 142.057C56.1046 141.597 56.4773 141.231 56.9439 140.958C57.4106 140.686 57.9291 140.55 58.4995 140.55C58.9208 140.55 59.3161 140.625 59.6856 140.774C60.055 140.923 60.3791 141.12 60.6578 141.367L60.337 142.689C60.1749 142.365 59.9286 142.093 59.5981 141.872C59.274 141.652 58.9046 141.542 58.4898 141.542C58.1138 141.542 57.7703 141.636 57.4592 141.824C57.1546 142.005 56.9115 142.251 56.73 142.562C56.5486 142.867 56.4578 143.207 56.4578 143.583C56.4578 143.953 56.5486 144.293 56.73 144.604C56.9115 144.915 57.1546 145.165 57.4592 145.353C57.7703 145.534 58.1138 145.625 58.4898 145.625C58.9046 145.625 59.274 145.518 59.5981 145.304C59.9286 145.09 60.1749 144.815 60.337 144.478L60.6578 145.8C60.3791 146.046 60.055 146.244 59.6856 146.393C59.3161 146.542 58.9208 146.617 58.4995 146.617ZM61.9411 146.5V137.167H62.9911V141.493C63.2115 141.188 63.4837 140.955 63.8078 140.793C64.1319 140.631 64.4786 140.55 64.8481 140.55C65.2629 140.55 65.6453 140.654 65.9953 140.861C66.3518 141.062 66.6402 141.357 66.8606 141.746C67.081 142.128 67.1911 142.595 67.1911 143.146V146.5H66.1411V143.292C66.1411 142.831 66.0018 142.426 65.7231 142.076C65.4509 141.72 65.0652 141.542 64.5661 141.542C64.1578 141.542 63.7916 141.691 63.4675 141.989C63.1499 142.281 62.9911 142.705 62.9911 143.262V146.5H61.9411ZM69.3203 146.617C69.1064 146.617 68.9249 146.545 68.7759 146.403C68.6333 146.254 68.562 146.072 68.562 145.858C68.562 145.644 68.6333 145.466 68.7759 145.324C68.9249 145.175 69.1064 145.1 69.3203 145.1C69.5407 145.1 69.7222 145.175 69.8648 145.324C70.0073 145.466 70.0786 145.644 70.0786 145.858C70.0786 146.072 70.0073 146.254 69.8648 146.403C69.7222 146.545 69.5407 146.617 69.3203 146.617ZM71.9453 146.617C71.7314 146.617 71.5499 146.545 71.4009 146.403C71.2583 146.254 71.187 146.072 71.187 145.858C71.187 145.644 71.2583 145.466 71.4009 145.324C71.5499 145.175 71.7314 145.1 71.9453 145.1C72.1657 145.1 72.3472 145.175 72.4898 145.324C72.6323 145.466 72.7036 145.644 72.7036 145.858C72.7036 146.072 72.6323 146.254 72.4898 146.403C72.3472 146.545 72.1657 146.617 71.9453 146.617ZM74.5703 146.617C74.3564 146.617 74.1749 146.545 74.0259 146.403C73.8833 146.254 73.812 146.072 73.812 145.858C73.812 145.644 73.8833 145.466 74.0259 145.324C74.1749 145.175 74.3564 145.1 74.5703 145.1C74.7907 145.1 74.9722 145.175 75.1148 145.324C75.2573 145.466 75.3286 145.644 75.3286 145.858C75.3286 146.072 75.2573 146.254 75.1148 146.403C74.9722 146.545 74.7907 146.617 74.5703 146.617Z" fill="#AABBD6"/>
<path d="M349 144H341" stroke="#000321" stroke-width="1.5" stroke-linecap="round" stroke-linejoin="round"/>
<path d="M347 140H341" stroke="black" stroke-width="1.5" stroke-linecap="round" stroke-linejoin="round"/>
<path d="M345 136H341" stroke="black" stroke-width="1.5" stroke-linecap="round" stroke-linejoin="round"/>
<path d="M351 148H341" stroke="black" stroke-width="1.5" stroke-linecap="round" stroke-linejoin="round"/>
<path d="M358 150V134M358 150L361 147M358 150L355 147M358 134L361 137M358 134L355 137" stroke="black" stroke-width="1.5" stroke-linecap="round" stroke-linejoin="round"/>
<path d="M20.275 198L26.0958 183.792H26.1264L31.9472 198H30.0986L28.4792 193.921H23.6667L22.0319 198H20.275ZM24.2472 192.469H27.8986L26.8139 189.75C26.6815 189.404 26.5542 189.062 26.4319 188.726C26.3097 188.39 26.1875 187.988 26.0653 187.519C25.9431 187.988 25.8259 188.39 25.7139 188.726C25.6019 189.052 25.4745 189.394 25.3319 189.75L24.2472 192.469Z" fill="#000321"/>
<line x1="20" y1="216.5" x2="373" y2="216.5" stroke="#000321"/>
<rect x="20.5" y="229.5" width="352" height="55" rx="4.5" fill="#E6EBF3"/>
<rect x="20.5" y="229.5" width="352" height="55" rx="4.5" stroke="#AABBD6"/>
<path d="M43 263V262C43 259.239 45.2386 257 48 257V257C50.7614 257 53 259.239 53 262V263" stroke="#000321" stroke-width="1.5" stroke-linecap="round"/>
<path d="M48 257C49.6569 257 51 255.657 51 254C51 252.343 49.6569 251 48 251C46.3431 251 45 252.343 45 254C45 255.657 46.3431 257 48 257Z" stroke="#000321" stroke-width="1.5" stroke-linecap="round" stroke-linejoin="round"/>
<circle cx="48" cy="257" r="10" stroke="#000321" stroke-width="1.5"/>
<path d="M71.6361 261.792L68.1167 252.75H69.2833L71.3444 258.019C71.4093 258.188 71.4676 258.35 71.5194 258.506C71.5778 258.655 71.6329 258.83 71.6847 259.031C71.7366 258.83 71.7884 258.655 71.8403 258.506C71.8986 258.35 71.9602 258.188 72.025 258.019L74.0764 252.75H75.175L71.6556 261.792H71.6361ZM76.2204 261.5V255.667H77.2704V261.5H76.2204ZM76.7454 254.617C76.551 254.617 76.3857 254.549 76.2496 254.413C76.1135 254.276 76.0454 254.111 76.0454 253.917C76.0454 253.716 76.1135 253.55 76.2496 253.421C76.3857 253.285 76.551 253.217 76.7454 253.217C76.9464 253.217 77.1116 253.285 77.2413 253.421C77.3774 253.55 77.4454 253.716 77.4454 253.917C77.4454 254.111 77.3774 254.276 77.2413 254.413C77.1116 254.549 76.9464 254.617 76.7454 254.617ZM81.2617 261.792L78.3159 255.667H79.5117L80.6978 258.194C80.808 258.421 80.9117 258.645 81.0089 258.865C81.1062 259.086 81.2001 259.355 81.2909 259.672C81.3881 259.355 81.4853 259.086 81.5826 258.865C81.6863 258.638 81.79 258.415 81.8937 258.194L83.0895 255.667H84.2076L81.2617 261.792ZM85.2576 261.5V255.667H86.3076V261.5H85.2576ZM85.7826 254.617C85.5881 254.617 85.4228 254.549 85.2867 254.413C85.1506 254.276 85.0826 254.111 85.0826 253.917C85.0826 253.716 85.1506 253.55 85.2867 253.421C85.4228 253.285 85.5881 253.217 85.7826 253.217C85.9835 253.217 86.1488 253.285 86.2784 253.421C86.4145 253.55 86.4826 253.716 86.4826 253.917C86.4826 254.111 86.4145 254.276 86.2784 254.413C86.1488 254.549 85.9835 254.617 85.7826 254.617ZM90.6683 261.578C90.1368 261.578 89.6507 261.445 89.2099 261.179C88.7692 260.907 88.416 260.544 88.1502 260.09C87.891 259.637 87.7613 259.134 87.7613 258.583C87.7613 258.032 87.891 257.53 88.1502 257.076C88.416 256.623 88.7692 256.263 89.2099 255.997C89.6507 255.725 90.1368 255.589 90.6683 255.589C91.0701 255.589 91.4461 255.663 91.7961 255.813C92.1525 255.962 92.4604 256.169 92.7197 256.435V255.667H93.6919V261.5H92.7197V260.732C92.4604 260.991 92.1525 261.199 91.7961 261.354C91.4461 261.503 91.0701 261.578 90.6683 261.578ZM90.8044 260.625C91.1738 260.625 91.5076 260.534 91.8058 260.353C92.1104 260.165 92.3502 259.919 92.5252 259.614C92.7067 259.303 92.7974 258.959 92.7974 258.583C92.7974 258.207 92.7067 257.867 92.5252 257.563C92.3502 257.251 92.1104 257.005 91.8058 256.824C91.5076 256.636 91.1738 256.542 90.8044 256.542C90.4349 256.542 90.0979 256.636 89.7933 256.824C89.4951 257.005 89.2553 257.251 89.0738 257.563C88.8988 257.867 88.8113 258.207 88.8113 258.583C88.8113 258.959 88.8988 259.303 89.0738 259.614C89.2553 259.919 89.4951 260.165 89.7933 260.353C90.0979 260.534 90.4349 260.625 90.8044 260.625ZM95.5525 261.5V255.667H96.5247V256.61C96.7386 256.266 97.014 256.004 97.3511 255.822C97.6946 255.641 98.064 255.55 98.4594 255.55C98.8742 255.55 99.2566 255.654 99.6066 255.861C99.9631 256.062 100.252 256.357 100.472 256.746C100.692 257.128 100.802 257.595 100.802 258.146V261.5H99.7525V258.292C99.7525 257.832 99.6131 257.426 99.3344 257.076C99.0622 256.72 98.6765 256.542 98.1775 256.542C97.7691 256.542 97.4029 256.691 97.0789 256.989C96.7613 257.281 96.6025 257.705 96.6025 258.263V261.5H95.5525ZM104.706 261.5L108.41 252.458H108.43L112.134 261.5H110.958L109.927 258.904H106.865L105.824 261.5H104.706ZM107.234 257.981H109.558L108.867 256.25C108.783 256.03 108.702 255.813 108.624 255.599C108.547 255.385 108.469 255.129 108.391 254.831C108.313 255.129 108.239 255.385 108.167 255.599C108.096 255.806 108.015 256.023 107.924 256.25L107.234 257.981ZM113.244 261.5V252.167H114.294V261.5H113.244ZM116.156 261.5V252.167H117.206V261.5H116.156ZM121.849 261.617C121.239 261.617 120.692 261.481 120.206 261.208C119.726 260.936 119.347 260.567 119.068 260.1C118.796 259.627 118.66 259.102 118.66 258.525C118.66 257.974 118.793 257.475 119.058 257.028C119.324 256.574 119.681 256.214 120.128 255.949C120.582 255.683 121.081 255.55 121.625 255.55C122.163 255.55 122.656 255.68 123.103 255.939C123.55 256.192 123.907 256.535 124.172 256.969C124.438 257.404 124.571 257.896 124.571 258.447V258.875H120.76C120.591 258.875 120.419 258.869 120.244 258.856C120.069 258.843 119.898 258.823 119.729 258.797C119.801 259.316 120.034 259.75 120.429 260.1C120.831 260.45 121.307 260.625 121.858 260.625C122.228 260.625 122.571 260.541 122.889 260.372C123.207 260.204 123.463 259.98 123.657 259.701L123.949 260.897C123.67 261.124 123.349 261.302 122.986 261.432C122.63 261.555 122.251 261.617 121.849 261.617ZM119.7 258.088C120.05 258.029 120.403 258 120.76 258H122.694C122.837 258 122.976 258.007 123.113 258.019C123.255 258.026 123.398 258.036 123.54 258.049C123.45 257.595 123.223 257.222 122.86 256.931C122.497 256.632 122.085 256.483 121.625 256.483C121.152 256.483 120.737 256.642 120.381 256.96C120.024 257.271 119.797 257.647 119.7 258.088ZM125.972 261.5V255.667H126.945V256.61C127.159 256.266 127.434 256.004 127.771 255.822C128.115 255.641 128.484 255.55 128.879 255.55C129.294 255.55 129.677 255.654 130.027 255.861C130.383 256.062 130.671 256.357 130.892 256.746C131.112 257.128 131.222 257.595 131.222 258.146V261.5H130.172V258.292C130.172 257.832 130.033 257.426 129.754 257.076C129.482 256.72 129.096 256.542 128.597 256.542C128.189 256.542 127.823 256.691 127.499 256.989C127.181 257.281 127.022 257.705 127.022 258.263V261.5H125.972Z" fill="#000321"/>
<path d="M21.925 319V305.25H25.775C26.6509 305.25 27.3435 305.423 27.8528 305.769C28.3722 306.116 28.744 306.538 28.9681 307.038C29.1921 307.526 29.3042 307.99 29.3042 308.428C29.3042 308.927 29.187 309.385 28.9528 309.803C28.7287 310.21 28.4231 310.546 28.0361 310.811C28.7796 311.147 29.3806 311.651 29.8389 312.324C30.3074 312.996 30.5417 313.76 30.5417 314.615C30.5417 315.338 30.3583 316.036 29.9917 316.708C29.6352 317.381 29.1005 317.931 28.3875 318.358C27.6847 318.786 26.8139 319 25.775 319H21.925ZM23.6667 317.442H25.6528C26.4065 317.442 27.0125 317.294 27.4708 316.999C27.9292 316.703 28.2653 316.332 28.4792 315.883C28.6931 315.435 28.8 314.992 28.8 314.554C28.8 314.126 28.6981 313.688 28.4944 313.24C28.2907 312.792 27.9597 312.42 27.5014 312.125C27.0431 311.819 26.4269 311.667 25.6528 311.667H23.6667V317.442ZM23.6667 310.2H25.6375C26.2384 310.2 26.7222 310.057 27.0889 309.772C27.4657 309.477 27.6542 309.059 27.6542 308.519C27.6542 307.959 27.4708 307.537 27.1042 307.251C26.7375 306.956 26.269 306.808 25.6986 306.808H23.6667V310.2Z" fill="#000321"/>
<line x1="20" y1="337.5" x2="373" y2="337.5" stroke="#000321"/>
<rect x="20.5" y="350.5" width="352" height="55" rx="4.5" fill="#E6EBF3"/>
<rect x="20.5" y="350.5" width="352" height="55" rx="4.5" stroke="#AABBD6"/>
<path d="M43 384V383C43 380.239 45.2386 378 48 378V378C50.7614 378 53 380.239 53 383V384" stroke="#000321" stroke-width="1.5" stroke-linecap="round"/>
<path d="M48 378C49.6569 378 51 376.657 51 375C51 373.343 49.6569 372 48 372C46.3431 372 45 373.343 45 375C45 376.657 46.3431 378 48 378Z" stroke="#000321" stroke-width="1.5" stroke-linecap="round" stroke-linejoin="round"/>
<circle cx="48" cy="378" r="10" stroke="#000321" stroke-width="1.5"/>
<path d="M73.1431 382.675C72.5079 382.675 71.9148 382.558 71.3639 382.325C70.813 382.085 70.3269 381.758 69.9056 381.343C69.4907 380.922 69.1667 380.439 68.9333 379.895C68.7 379.344 68.5833 378.754 68.5833 378.125C68.5833 377.496 68.7 376.91 68.9333 376.365C69.1731 375.814 69.5005 375.332 69.9153 374.917C70.3366 374.495 70.8227 374.168 71.3736 373.935C71.9245 373.695 72.5176 373.575 73.1528 373.575C73.775 373.575 74.3583 373.692 74.9028 373.925C75.4472 374.152 75.9269 374.466 76.3417 374.868L76.0208 376.21C75.7227 375.73 75.3208 375.348 74.8153 375.063C74.3162 374.771 73.762 374.625 73.1528 374.625C72.5111 374.625 71.931 374.784 71.4125 375.101C70.9005 375.413 70.4921 375.834 70.1875 376.365C69.8829 376.89 69.7306 377.477 69.7306 378.125C69.7306 378.76 69.8796 379.344 70.1778 379.875C70.4824 380.407 70.8907 380.831 71.4028 381.149C71.9213 381.466 72.5014 381.625 73.1431 381.625C73.506 381.625 73.8495 381.583 74.1736 381.499C74.5042 381.408 74.8056 381.282 75.0778 381.12V378.825H72.6667V377.833H76.1472V381.683C75.7519 382.014 75.2917 382.263 74.7667 382.432C74.2481 382.594 73.7069 382.675 73.1431 382.675ZM80.5648 382.578C80.0333 382.578 79.5472 382.445 79.1064 382.179C78.6657 381.907 78.3124 381.544 78.0467 381.09C77.7874 380.637 77.6578 380.134 77.6578 379.583C77.6578 379.032 77.7874 378.53 78.0467 378.076C78.3124 377.623 78.6657 377.263 79.1064 376.997C79.5472 376.725 80.0333 376.589 80.5648 376.589C80.9666 376.589 81.3425 376.663 81.6925 376.813C82.049 376.962 82.3569 377.169 82.6161 377.435V376.667H83.5884V382.5H82.6161V381.732C82.3569 381.991 82.049 382.199 81.6925 382.354C81.3425 382.503 80.9666 382.578 80.5648 382.578ZM80.7009 381.625C81.0703 381.625 81.4041 381.534 81.7023 381.353C82.0069 381.165 82.2467 380.919 82.4217 380.614C82.6032 380.303 82.6939 379.959 82.6939 379.583C82.6939 379.207 82.6032 378.867 82.4217 378.563C82.2467 378.251 82.0069 378.005 81.7023 377.824C81.4041 377.636 81.0703 377.542 80.7009 377.542C80.3314 377.542 79.9944 377.636 79.6898 377.824C79.3916 378.005 79.1518 378.251 78.9703 378.563C78.7953 378.867 78.7078 379.207 78.7078 379.583C78.7078 379.959 78.7953 380.303 78.9703 380.614C79.1518 380.919 79.3916 381.165 79.6898 381.353C79.9944 381.534 80.3314 381.625 80.7009 381.625ZM85.449 382.5V376.667H86.4212V377.736C86.6286 377.393 86.9041 377.12 87.2476 376.92C87.5911 376.712 87.9994 376.608 88.4726 376.608L88.7351 377.658C88.6119 377.62 88.4693 377.6 88.3073 377.6C87.7628 377.6 87.3253 377.775 86.9948 378.125C86.6642 378.469 86.499 378.961 86.499 379.603V382.5H85.449ZM89.824 382.5V376.667H90.7962V377.736C91.0036 377.393 91.2791 377.12 91.6226 376.92C91.9661 376.712 92.3744 376.608 92.8476 376.608L93.1101 377.658C92.9869 377.62 92.8443 377.6 92.6823 377.6C92.1378 377.6 91.7003 377.775 91.3698 378.125C91.0392 378.469 90.874 378.961 90.874 379.603V382.5H89.824ZM96.7881 382.617C96.1788 382.617 95.6312 382.481 95.1451 382.208C94.6654 381.936 94.2863 381.567 94.0076 381.1C93.7353 380.627 93.5992 380.102 93.5992 379.525C93.5992 378.974 93.7321 378.475 93.9978 378.028C94.2636 377.574 94.6201 377.214 95.0673 376.949C95.521 376.683 96.0201 376.55 96.5645 376.55C97.1025 376.55 97.5951 376.68 98.0423 376.939C98.4895 377.192 98.846 377.535 99.1117 377.97C99.3775 378.404 99.5103 378.896 99.5103 379.447V379.875H95.6992C95.5307 379.875 95.3589 379.869 95.1839 379.856C95.0089 379.843 94.8372 379.823 94.6687 379.797C94.74 380.316 94.9733 380.75 95.3687 381.1C95.7705 381.45 96.2469 381.625 96.7978 381.625C97.1673 381.625 97.5108 381.541 97.8284 381.372C98.146 381.204 98.402 380.98 98.5964 380.701L98.8881 381.897C98.6094 382.124 98.2886 382.302 97.9256 382.432C97.5691 382.555 97.19 382.617 96.7881 382.617ZM94.6395 379.088C94.9895 379.029 95.3427 379 95.6992 379H97.6339C97.7765 379 97.9159 379.007 98.052 379.02C98.1946 379.026 98.3372 379.036 98.4798 379.049C98.389 378.595 98.1622 378.222 97.7992 377.931C97.4363 377.632 97.0247 377.483 96.5645 377.483C96.0913 377.483 95.6765 377.642 95.3201 377.96C94.9636 378.271 94.7367 378.647 94.6395 379.088ZM101.592 382.5V377.542H100.27V376.667H101.622V374.722H102.613V376.667H104.062V377.542H102.642V382.5H101.592ZM108.491 382.5V373.75H110.941C111.498 373.75 111.939 373.86 112.263 374.081C112.593 374.301 112.83 374.57 112.973 374.888C113.115 375.199 113.186 375.494 113.186 375.772C113.186 376.09 113.112 376.382 112.963 376.647C112.82 376.907 112.626 377.12 112.38 377.289C112.853 377.503 113.235 377.824 113.527 378.251C113.825 378.679 113.974 379.165 113.974 379.71C113.974 380.17 113.857 380.614 113.624 381.042C113.397 381.47 113.057 381.82 112.603 382.092C112.156 382.364 111.602 382.5 110.941 382.5H108.491ZM109.599 381.508H110.863C111.342 381.508 111.728 381.414 112.02 381.226C112.311 381.038 112.525 380.802 112.661 380.517C112.798 380.232 112.866 379.95 112.866 379.671C112.866 379.399 112.801 379.12 112.671 378.835C112.542 378.55 112.331 378.313 112.039 378.125C111.748 377.931 111.355 377.833 110.863 377.833H109.599V381.508ZM109.599 376.9H110.853C111.236 376.9 111.543 376.809 111.777 376.628C112.017 376.44 112.136 376.174 112.136 375.831C112.136 375.474 112.02 375.205 111.786 375.024C111.553 374.836 111.255 374.742 110.892 374.742H109.599V376.9ZM115.486 382.5V373.167H116.536V382.5H115.486ZM121.062 382.617C120.498 382.617 119.983 382.481 119.516 382.208C119.05 381.936 118.677 381.57 118.398 381.11C118.126 380.65 117.99 380.141 117.99 379.583C117.99 379.02 118.126 378.511 118.398 378.057C118.677 377.597 119.05 377.231 119.516 376.958C119.983 376.686 120.498 376.55 121.062 376.55C121.632 376.55 122.148 376.686 122.608 376.958C123.075 377.231 123.444 377.597 123.716 378.057C123.995 378.511 124.134 379.02 124.134 379.583C124.134 380.141 123.995 380.65 123.716 381.11C123.444 381.57 123.075 381.936 122.608 382.208C122.148 382.481 121.632 382.617 121.062 382.617ZM121.062 381.625C121.438 381.625 121.778 381.534 122.083 381.353C122.388 381.165 122.631 380.919 122.812 380.614C122.994 380.303 123.084 379.959 123.084 379.583C123.084 379.207 122.994 378.867 122.812 378.563C122.631 378.251 122.388 378.005 122.083 377.824C121.778 377.636 121.438 377.542 121.062 377.542C120.686 377.542 120.346 377.636 120.041 377.824C119.737 378.005 119.494 378.251 119.312 378.563C119.131 378.867 119.04 379.207 119.04 379.583C119.04 379.959 119.131 380.303 119.312 380.614C119.494 380.919 119.737 381.165 120.041 381.353C120.346 381.534 120.686 381.625 121.062 381.625ZM128.253 382.617C127.69 382.617 127.174 382.481 126.708 382.208C126.241 381.936 125.868 381.57 125.59 381.11C125.317 380.65 125.181 380.141 125.181 379.583C125.181 379.02 125.317 378.511 125.59 378.057C125.868 377.597 126.241 377.231 126.708 376.958C127.174 376.686 127.69 376.55 128.253 376.55C128.824 376.55 129.339 376.686 129.799 376.958C130.266 377.231 130.635 377.597 130.908 378.057C131.186 378.511 131.326 379.02 131.326 379.583C131.326 380.141 131.186 380.65 130.908 381.11C130.635 381.57 130.266 381.936 129.799 382.208C129.339 382.481 128.824 382.617 128.253 382.617ZM128.253 381.625C128.629 381.625 128.97 381.534 129.274 381.353C129.579 381.165 129.822 380.919 130.003 380.614C130.185 380.303 130.276 379.959 130.276 379.583C130.276 379.207 130.185 378.867 130.003 378.563C129.822 378.251 129.579 378.005 129.274 377.824C128.97 377.636 128.629 377.542 128.253 377.542C127.878 377.542 127.537 377.636 127.233 377.824C126.928 378.005 126.685 378.251 126.503 378.563C126.322 378.867 126.231 379.207 126.231 379.583C126.231 379.959 126.322 380.303 126.503 380.614C126.685 380.919 126.928 381.165 127.233 381.353C127.537 381.534 127.878 381.625 128.253 381.625ZM132.781 382.5V376.667H133.753V377.503C133.967 377.185 134.236 376.949 134.56 376.793C134.891 376.631 135.237 376.55 135.6 376.55C135.996 376.55 136.359 376.644 136.689 376.832C137.02 377.013 137.286 377.27 137.487 377.6C137.713 377.25 138.005 376.988 138.362 376.813C138.725 376.638 139.107 376.55 139.509 376.55C139.95 376.55 140.351 376.654 140.714 376.861C141.084 377.069 141.375 377.36 141.589 377.736C141.81 378.106 141.92 378.543 141.92 379.049V382.5H140.87V379.175C140.87 378.644 140.718 378.242 140.413 377.97C140.115 377.691 139.768 377.551 139.373 377.551C139.126 377.551 138.887 377.607 138.653 377.717C138.426 377.827 138.238 377.999 138.089 378.232C137.947 378.465 137.875 378.77 137.875 379.146V382.5H136.825V379.175C136.825 378.806 136.751 378.501 136.602 378.261C136.459 378.021 136.271 377.843 136.038 377.726C135.811 377.603 135.575 377.542 135.328 377.542C135.088 377.542 134.852 377.597 134.618 377.707C134.392 377.817 134.204 377.989 134.055 378.222C133.906 378.456 133.831 378.763 133.831 379.146V382.5H132.781Z" fill="#000321"/>
<rect x="20.5" y="418.5" width="352" height="55" rx="4.5" fill="#E6EBF3"/>
<rect x="20.5" y="418.5" width="352" height="55" rx="4.5" stroke="#AABBD6"/>
<path d="M43 452V451C43 448.239 45.2386 446 48 446V446C50.7614 446 53 448.239 53 451V452" stroke="#000321" stroke-width="1.5" stroke-linecap="round"/>
<path d="M48 446C49.6569 446 51 444.657 51 443C51 441.343 49.6569 440 48 440C46.3431 440 45 441.343 45 443C45 444.657 46.3431 446 48 446Z" stroke="#000321" stroke-width="1.5" stroke-linecap="round" stroke-linejoin="round"/>
<circle cx="48" cy="446" r="10" stroke="#000321" stroke-width="1.5"/>
<path d="M68.175 450.5L71.8792 441.458H71.8986L75.6028 450.5H74.4264L73.3958 447.904H70.3333L69.2931 450.5H68.175ZM70.7028 446.981H73.0264L72.3361 445.25C72.2519 445.03 72.1708 444.813 72.0931 444.599C72.0153 444.385 71.9375 444.129 71.8597 443.831C71.7819 444.129 71.7074 444.385 71.6361 444.599C71.5648 444.806 71.4838 445.023 71.3931 445.25L70.7028 446.981ZM76.7126 450.5V441.167H77.7626V450.5H76.7126ZM79.6247 450.5V441.167H80.6747V450.5H79.6247ZM82.5368 450.5V444.667H83.5868V450.5H82.5368ZM83.0618 443.617C82.8674 443.617 82.7021 443.549 82.566 443.413C82.4299 443.276 82.3618 443.111 82.3618 442.917C82.3618 442.716 82.4299 442.551 82.566 442.421C82.7021 442.285 82.8674 442.217 83.0618 442.217C83.2628 442.217 83.4281 442.285 83.5577 442.421C83.6938 442.551 83.7618 442.716 83.7618 442.917C83.7618 443.111 83.6938 443.276 83.5577 443.413C83.4281 443.549 83.2628 443.617 83.0618 443.617ZM86.9559 450.617C86.6578 450.617 86.3369 450.562 85.9934 450.451C85.6564 450.335 85.3647 450.144 85.1184 449.878L85.4101 448.731C85.5916 449.035 85.8249 449.278 86.1101 449.46C86.3953 449.635 86.6999 449.722 87.024 449.722C87.3351 449.722 87.5684 449.648 87.724 449.499C87.8795 449.343 87.9573 449.155 87.9573 448.935C87.9573 448.682 87.873 448.497 87.7045 448.381C87.5425 448.264 87.3966 448.183 87.267 448.138L86.4795 447.836C86.3369 447.778 86.1652 447.694 85.9642 447.583C85.7633 447.467 85.5883 447.301 85.4392 447.088C85.2902 446.874 85.2156 446.595 85.2156 446.251C85.2156 445.94 85.2902 445.655 85.4392 445.396C85.5883 445.137 85.799 444.932 86.0712 444.783C86.3434 444.628 86.6642 444.55 87.0337 444.55C87.3253 444.55 87.63 444.602 87.9476 444.706C88.2652 444.809 88.5341 444.984 88.7545 445.231L88.4628 446.378C88.3073 446.093 88.0966 445.866 87.8309 445.697C87.5652 445.529 87.2897 445.445 87.0045 445.445C86.7388 445.445 86.5281 445.519 86.3726 445.668C86.2235 445.817 86.149 445.989 86.149 446.183C86.149 446.339 86.2008 446.478 86.3045 446.601C86.4082 446.725 86.5638 446.825 86.7712 446.903L87.5587 447.204C87.7013 447.256 87.8763 447.34 88.0837 447.457C88.2976 447.574 88.4855 447.742 88.6476 447.963C88.8096 448.183 88.8906 448.481 88.8906 448.857C88.8906 449.382 88.7059 449.807 88.3365 450.131C87.9735 450.455 87.5133 450.617 86.9559 450.617ZM93.0757 450.617C92.5118 450.617 91.9966 450.481 91.5299 450.208C91.0632 449.936 90.6906 449.57 90.4118 449.11C90.1396 448.65 90.0035 448.141 90.0035 447.583C90.0035 447.02 90.1396 446.511 90.4118 446.057C90.6906 445.597 91.0632 445.231 91.5299 444.958C91.9966 444.686 92.5118 444.55 93.0757 444.55C93.6461 444.55 94.1614 444.686 94.6216 444.958C95.0882 445.231 95.4577 445.597 95.7299 446.057C96.0086 446.511 96.148 447.02 96.148 447.583C96.148 448.141 96.0086 448.65 95.7299 449.11C95.4577 449.57 95.0882 449.936 94.6216 450.208C94.1614 450.481 93.6461 450.617 93.0757 450.617ZM93.0757 449.625C93.4517 449.625 93.7919 449.534 94.0966 449.353C94.4012 449.165 94.6443 448.919 94.8257 448.614C95.0072 448.303 95.098 447.959 95.098 447.583C95.098 447.207 95.0072 446.867 94.8257 446.563C94.6443 446.251 94.4012 446.005 94.0966 445.824C93.7919 445.636 93.4517 445.542 93.0757 445.542C92.6998 445.542 92.3595 445.636 92.0549 445.824C91.7503 446.005 91.5072 446.251 91.3257 446.563C91.1443 446.867 91.0535 447.207 91.0535 447.583C91.0535 447.959 91.1443 448.303 91.3257 448.614C91.5072 448.919 91.7503 449.165 92.0549 449.353C92.3595 449.534 92.6998 449.625 93.0757 449.625ZM97.6033 450.5V444.667H98.5755V445.61C98.7894 445.266 99.0648 445.004 99.4019 444.822C99.7454 444.641 100.115 444.55 100.51 444.55C100.925 444.55 101.307 444.654 101.657 444.861C102.014 445.062 102.302 445.357 102.523 445.746C102.743 446.128 102.853 446.595 102.853 447.146V450.5H101.803V447.292C101.803 446.832 101.664 446.426 101.385 446.076C101.113 445.72 100.727 445.542 100.228 445.542C99.8199 445.542 99.4537 445.691 99.1296 445.989C98.8121 446.281 98.6533 446.705 98.6533 447.263V450.5H97.6033ZM107.807 450.5V441.75H110.257C110.814 441.75 111.255 441.86 111.579 442.081C111.91 442.301 112.146 442.57 112.289 442.888C112.432 443.199 112.503 443.494 112.503 443.772C112.503 444.09 112.428 444.382 112.279 444.647C112.137 444.907 111.942 445.12 111.696 445.289C112.169 445.503 112.551 445.824 112.843 446.251C113.141 446.679 113.29 447.165 113.29 447.71C113.29 448.17 113.174 448.614 112.94 449.042C112.714 449.47 112.373 449.82 111.92 450.092C111.472 450.364 110.918 450.5 110.257 450.5H107.807ZM108.915 449.508H110.179C110.659 449.508 111.045 449.414 111.336 449.226C111.628 449.038 111.842 448.802 111.978 448.517C112.114 448.232 112.182 447.95 112.182 447.671C112.182 447.399 112.117 447.12 111.988 446.835C111.858 446.55 111.647 446.313 111.356 446.125C111.064 445.931 110.672 445.833 110.179 445.833H108.915V449.508ZM108.915 444.9H110.17C110.552 444.9 110.86 444.809 111.093 444.628C111.333 444.44 111.453 444.174 111.453 443.831C111.453 443.474 111.336 443.205 111.103 443.024C110.87 442.836 110.571 442.742 110.208 442.742H108.915V444.9ZM114.802 450.5V444.667H115.775V445.736C115.982 445.393 116.258 445.12 116.601 444.92C116.945 444.712 117.353 444.608 117.826 444.608L118.089 445.658C117.965 445.62 117.823 445.6 117.661 445.6C117.116 445.6 116.679 445.775 116.348 446.125C116.018 446.469 115.852 446.961 115.852 447.603V450.5H114.802ZM121.65 450.617C121.086 450.617 120.571 450.481 120.104 450.208C119.637 449.936 119.265 449.57 118.986 449.11C118.714 448.65 118.578 448.141 118.578 447.583C118.578 447.02 118.714 446.511 118.986 446.057C119.265 445.597 119.637 445.231 120.104 444.958C120.571 444.686 121.086 444.55 121.65 444.55C122.22 444.55 122.736 444.686 123.196 444.958C123.662 445.231 124.032 445.597 124.304 446.057C124.583 446.511 124.722 447.02 124.722 447.583C124.722 448.141 124.583 448.65 124.304 449.11C124.032 449.57 123.662 449.936 123.196 450.208C122.736 450.481 122.22 450.617 121.65 450.617ZM121.65 449.625C122.026 449.625 122.366 449.534 122.671 449.353C122.975 449.165 123.218 448.919 123.4 448.614C123.581 448.303 123.672 447.959 123.672 447.583C123.672 447.207 123.581 446.867 123.4 446.563C123.218 446.251 122.975 446.005 122.671 445.824C122.366 445.636 122.026 445.542 121.65 445.542C121.274 445.542 120.934 445.636 120.629 445.824C120.324 446.005 120.081 446.251 119.9 446.563C119.718 446.867 119.628 447.207 119.628 447.583C119.628 447.959 119.718 448.303 119.9 448.614C120.081 448.919 120.324 449.165 120.629 449.353C120.934 449.534 121.274 449.625 121.65 449.625ZM128.115 450.792L125.169 444.667H126.365L127.542 447.195C127.652 447.434 127.756 447.668 127.853 447.895C127.956 448.121 128.057 448.407 128.154 448.75C128.258 448.413 128.362 448.128 128.465 447.895C128.575 447.661 128.679 447.428 128.776 447.195L129.953 444.395L131.119 447.195C131.217 447.434 131.317 447.668 131.421 447.895C131.524 448.121 131.625 448.407 131.722 448.75C131.819 448.407 131.92 448.121 132.024 447.895C132.127 447.661 132.234 447.428 132.344 447.195L133.54 444.667H134.658L131.712 450.792L130.526 448.186C130.423 447.953 130.319 447.723 130.215 447.496C130.118 447.263 130.018 446.984 129.914 446.66C129.817 446.984 129.716 447.263 129.612 447.496C129.509 447.723 129.402 447.953 129.292 448.186L128.115 450.792ZM135.707 450.5V444.667H136.679V445.61C136.893 445.266 137.168 445.004 137.505 444.822C137.849 444.641 138.218 444.55 138.614 444.55C139.029 444.55 139.411 444.654 139.761 444.861C140.117 445.062 140.406 445.357 140.626 445.746C140.847 446.128 140.957 446.595 140.957 447.146V450.5H139.907V447.292C139.907 446.832 139.767 446.426 139.489 446.076C139.216 445.72 138.831 445.542 138.332 445.542C137.923 445.542 137.557 445.691 137.233 445.989C136.916 446.281 136.757 446.705 136.757 447.263V450.5H135.707Z" fill="#000321"/>
<path d="M28.0972 508.275C27.1093 508.275 26.1773 508.092 25.3014 507.725C24.4356 507.348 23.6718 506.834 23.0097 506.182C22.3579 505.53 21.8435 504.771 21.4667 503.906C21.1 503.04 20.9167 502.113 20.9167 501.125C20.9167 500.137 21.1 499.21 21.4667 498.345C21.8435 497.479 22.3579 496.72 23.0097 496.068C23.6718 495.416 24.4356 494.907 25.3014 494.54C26.1773 494.163 27.1093 493.975 28.0972 493.975C29.075 493.975 29.9917 494.158 30.8472 494.525C31.7028 494.882 32.4565 495.376 33.1083 496.007L32.6042 498.115C32.1356 497.362 31.5042 496.761 30.7097 496.313C29.9255 495.854 29.0546 495.625 28.0972 495.625C27.0889 495.625 26.1773 495.875 25.3625 496.374C24.5579 496.863 23.9162 497.525 23.4375 498.36C22.9588 499.185 22.7194 500.107 22.7194 501.125C22.7194 502.133 22.9588 503.055 23.4375 503.89C23.9162 504.726 24.5579 505.393 25.3625 505.892C26.1773 506.381 27.0889 506.625 28.0972 506.625C29.0648 506.625 29.9407 506.396 30.725 505.938C31.5093 505.479 32.1356 504.878 32.6042 504.135L33.1083 506.243C32.4565 506.864 31.7028 507.358 30.8472 507.725C29.9917 508.092 29.075 508.275 28.0972 508.275Z" fill="#000321"/>
<line x1="20" y1="526.5" x2="373" y2="526.5" stroke="#000321"/>
<rect x="20.5" y="539.5" width="352" height="55" rx="4.5" fill="#E6EBF3"/>
<rect x="20.5" y="539.5" width="352" height="55" rx="4.5" stroke="#AABBD6"/>
<path d="M43 573V572C43 569.239 45.2386 567 48 567V567C50.7614 567 53 569.239 53 572V573" stroke="#000321" stroke-width="1.5" stroke-linecap="round"/>
<path d="M48 567C49.6569 567 51 565.657 51 564C51 562.343 49.6569 561 48 561C46.3431 561 45 562.343 45 564C45 565.657 46.3431 567 48 567Z" stroke="#000321" stroke-width="1.5" stroke-linecap="round" stroke-linejoin="round"/>
<circle cx="48" cy="567" r="10" stroke="#000321" stroke-width="1.5"/>
<path d="M68.175 571.5L71.8792 562.458H71.8986L75.6028 571.5H74.4264L73.3958 568.904H70.3333L69.2931 571.5H68.175ZM70.7028 567.981H73.0264L72.3361 566.25C72.2519 566.03 72.1708 565.813 72.0931 565.599C72.0153 565.385 71.9375 565.129 71.8597 564.831C71.7819 565.129 71.7074 565.385 71.6361 565.599C71.5648 565.806 71.4838 566.023 71.3931 566.25L70.7028 567.981ZM76.7126 571.5V562.167H77.7626V571.5H76.7126ZM79.6247 571.5V565.667H80.6747V571.5H79.6247ZM80.1497 564.617C79.9553 564.617 79.79 564.549 79.6539 564.413C79.5178 564.277 79.4497 564.111 79.4497 563.917C79.4497 563.716 79.5178 563.551 79.6539 563.421C79.79 563.285 79.9553 563.217 80.1497 563.217C80.3507 563.217 80.5159 563.285 80.6456 563.421C80.7817 563.551 80.8497 563.716 80.8497 563.917C80.8497 564.111 80.7817 564.277 80.6456 564.413C80.5159 564.549 80.3507 564.617 80.1497 564.617ZM85.2202 571.617C84.6498 571.617 84.1313 571.481 83.6646 571.208C83.198 570.936 82.8253 570.57 82.5466 570.11C82.2679 569.65 82.1285 569.141 82.1285 568.583C82.1285 568.026 82.2679 567.517 82.5466 567.057C82.8253 566.597 83.198 566.231 83.6646 565.958C84.1313 565.686 84.6498 565.55 85.2202 565.55C85.6415 565.55 86.0368 565.625 86.4063 565.774C86.7757 565.923 87.0998 566.12 87.3785 566.367L87.0577 567.689C86.8956 567.365 86.6493 567.093 86.3188 566.872C85.9947 566.652 85.6253 566.542 85.2105 566.542C84.8345 566.542 84.491 566.636 84.1799 566.824C83.8753 567.005 83.6322 567.252 83.4507 567.563C83.2693 567.867 83.1785 568.208 83.1785 568.583C83.1785 568.953 83.2693 569.293 83.4507 569.604C83.6322 569.915 83.8753 570.165 84.1799 570.353C84.491 570.534 84.8345 570.625 85.2105 570.625C85.6253 570.625 85.9947 570.518 86.3188 570.304C86.6493 570.09 86.8956 569.815 87.0577 569.478L87.3785 570.8C87.0998 571.046 86.7757 571.244 86.4063 571.393C86.0368 571.542 85.6415 571.617 85.2202 571.617ZM91.4424 571.617C90.8331 571.617 90.2855 571.481 89.7993 571.208C89.3197 570.936 88.9406 570.567 88.6618 570.1C88.3896 569.627 88.2535 569.102 88.2535 568.525C88.2535 567.974 88.3864 567.475 88.6521 567.028C88.9179 566.574 89.2743 566.214 89.7216 565.949C90.1753 565.683 90.6743 565.55 91.2188 565.55C91.7568 565.55 92.2493 565.68 92.6966 565.939C93.1438 566.192 93.5003 566.535 93.766 566.97C94.0318 567.404 94.1646 567.896 94.1646 568.447V568.875H90.3535C90.185 568.875 90.0132 568.869 89.8382 568.856C89.6632 568.843 89.4915 568.823 89.323 568.797C89.3943 569.316 89.6276 569.75 90.023 570.1C90.4248 570.45 90.9012 570.625 91.4521 570.625C91.8216 570.625 92.1651 570.541 92.4827 570.372C92.8003 570.204 93.0563 569.98 93.2507 569.702L93.5424 570.897C93.2637 571.124 92.9429 571.302 92.5799 571.432C92.2234 571.555 91.8443 571.617 91.4424 571.617ZM89.2938 568.088C89.6438 568.029 89.997 568 90.3535 568H92.2882C92.4308 568 92.5702 568.007 92.7063 568.02C92.8489 568.026 92.9915 568.036 93.1341 568.049C93.0433 567.595 92.8165 567.222 92.4535 566.931C92.0906 566.633 91.679 566.483 91.2188 566.483C90.7456 566.483 90.3308 566.642 89.9743 566.96C89.6179 567.271 89.391 567.647 89.2938 568.088ZM102.698 571.675C102.069 571.675 101.476 571.558 100.919 571.325C100.368 571.085 99.8815 570.758 99.4602 570.343C99.0454 569.928 98.7181 569.445 98.4783 568.895C98.2449 568.344 98.1283 567.754 98.1283 567.125C98.1283 566.496 98.2449 565.907 98.4783 565.356C98.7181 564.805 99.0454 564.322 99.4602 563.907C99.8815 563.492 100.368 563.168 100.919 562.935C101.476 562.695 102.069 562.575 102.698 562.575C103.32 562.575 103.903 562.692 104.448 562.925C104.992 563.152 105.472 563.466 105.887 563.868L105.566 565.21C105.268 564.73 104.866 564.348 104.36 564.063C103.861 563.771 103.307 563.625 102.698 563.625C102.056 563.625 101.476 563.784 100.957 564.102C100.445 564.413 100.037 564.834 99.7324 565.365C99.4278 565.89 99.2755 566.477 99.2755 567.125C99.2755 567.767 99.4278 568.353 99.7324 568.885C100.037 569.416 100.445 569.841 100.957 570.158C101.476 570.47 102.056 570.625 102.698 570.625C103.313 570.625 103.871 570.479 104.37 570.188C104.869 569.896 105.268 569.514 105.566 569.04L105.887 570.382C105.472 570.777 104.992 571.092 104.448 571.325C103.903 571.558 103.32 571.675 102.698 571.675ZM107.228 571.5V562.167H108.278V566.493C108.499 566.189 108.771 565.955 109.095 565.793C109.419 565.631 109.766 565.55 110.135 565.55C110.55 565.55 110.932 565.654 111.282 565.861C111.639 566.062 111.927 566.357 112.148 566.746C112.368 567.128 112.478 567.595 112.478 568.146V571.5H111.428V568.292C111.428 567.832 111.289 567.427 111.01 567.077C110.738 566.72 110.352 566.542 109.853 566.542C109.445 566.542 109.079 566.691 108.755 566.989C108.437 567.281 108.278 567.705 108.278 568.263V571.5H107.228ZM116.727 571.578C116.195 571.578 115.709 571.445 115.269 571.179C114.828 570.907 114.475 570.544 114.209 570.09C113.95 569.637 113.82 569.134 113.82 568.583C113.82 568.033 113.95 567.53 114.209 567.077C114.475 566.623 114.828 566.263 115.269 565.997C115.709 565.725 116.195 565.589 116.727 565.589C117.129 565.589 117.505 565.664 117.855 565.813C118.211 565.962 118.519 566.169 118.778 566.435V565.667H119.75V571.5H118.778V570.732C118.519 570.991 118.211 571.199 117.855 571.354C117.505 571.503 117.129 571.578 116.727 571.578ZM116.863 570.625C117.232 570.625 117.566 570.534 117.864 570.353C118.169 570.165 118.409 569.919 118.584 569.614C118.765 569.303 118.856 568.959 118.856 568.583C118.856 568.208 118.765 567.867 118.584 567.563C118.409 567.252 118.169 567.005 117.864 566.824C117.566 566.636 117.232 566.542 116.863 566.542C116.494 566.542 116.156 566.636 115.852 566.824C115.554 567.005 115.314 567.252 115.132 567.563C114.957 567.867 114.87 568.208 114.87 568.583C114.87 568.959 114.957 569.303 115.132 569.614C115.314 569.919 115.554 570.165 115.852 570.353C116.156 570.534 116.494 570.625 116.863 570.625ZM121.611 571.5V565.667H122.583V566.736C122.791 566.393 123.066 566.12 123.41 565.92C123.753 565.712 124.162 565.608 124.635 565.608L124.897 566.658C124.774 566.62 124.631 566.6 124.469 566.6C123.925 566.6 123.487 566.775 123.157 567.125C122.826 567.469 122.661 567.961 122.661 568.603V571.5H121.611ZM125.986 571.5V562.167H127.036V571.5H125.986ZM131.679 571.617C131.069 571.617 130.522 571.481 130.036 571.208C129.556 570.936 129.177 570.567 128.898 570.1C128.626 569.627 128.49 569.102 128.49 568.525C128.49 567.974 128.623 567.475 128.888 567.028C129.154 566.574 129.511 566.214 129.958 565.949C130.412 565.683 130.911 565.55 131.455 565.55C131.993 565.55 132.486 565.68 132.933 565.939C133.38 566.192 133.737 566.535 134.002 566.97C134.268 567.404 134.401 567.896 134.401 568.447V568.875H130.59C130.421 568.875 130.25 568.869 130.075 568.856C129.9 568.843 129.728 568.823 129.559 568.797C129.631 569.316 129.864 569.75 130.259 570.1C130.661 570.45 131.138 570.625 131.688 570.625C132.058 570.625 132.401 570.541 132.719 570.372C133.037 570.204 133.293 569.98 133.487 569.702L133.779 570.897C133.5 571.124 133.179 571.302 132.816 571.432C132.46 571.555 132.081 571.617 131.679 571.617ZM129.53 568.088C129.88 568.029 130.233 568 130.59 568H132.525C132.667 568 132.807 568.007 132.943 568.02C133.085 568.026 133.228 568.036 133.37 568.049C133.28 567.595 133.053 567.222 132.69 566.931C132.327 566.633 131.915 566.483 131.455 566.483C130.982 566.483 130.567 566.642 130.211 566.96C129.854 567.271 129.627 567.647 129.53 568.088ZM137.309 571.617C137.011 571.617 136.69 571.562 136.347 571.452C136.01 571.335 135.718 571.144 135.472 570.878L135.764 569.731C135.945 570.035 136.178 570.278 136.464 570.46C136.749 570.635 137.053 570.722 137.377 570.722C137.689 570.722 137.922 570.648 138.077 570.499C138.233 570.343 138.311 570.155 138.311 569.935C138.311 569.682 138.227 569.497 138.058 569.381C137.896 569.264 137.75 569.183 137.621 569.138L136.833 568.836C136.69 568.778 136.519 568.694 136.318 568.583C136.117 568.467 135.942 568.302 135.793 568.088C135.644 567.874 135.569 567.595 135.569 567.252C135.569 566.94 135.644 566.655 135.793 566.396C135.942 566.137 136.152 565.933 136.425 565.783C136.697 565.628 137.018 565.55 137.387 565.55C137.679 565.55 137.983 565.602 138.301 565.706C138.619 565.809 138.888 565.984 139.108 566.231L138.816 567.378C138.661 567.093 138.45 566.866 138.184 566.697C137.919 566.529 137.643 566.445 137.358 566.445C137.092 566.445 136.882 566.519 136.726 566.668C136.577 566.817 136.502 566.989 136.502 567.183C136.502 567.339 136.554 567.478 136.658 567.602C136.762 567.725 136.917 567.825 137.125 567.903L137.912 568.204C138.055 568.256 138.23 568.34 138.437 568.457C138.651 568.574 138.839 568.742 139.001 568.963C139.163 569.183 139.244 569.481 139.244 569.857C139.244 570.382 139.059 570.807 138.69 571.131C138.327 571.455 137.867 571.617 137.309 571.617Z" fill="#000321"/>
<rect x="20.5" y="607.5" width="352" height="55" rx="4.5" fill="#E6EBF3"/>
<rect x="20.5" y="607.5" width="352" height="55" rx="4.5" stroke="#AABBD6"/>
<path d="M43 641V640C43 637.239 45.2386 635 48 635V635C50.7614 635 53 637.239 53 640V641" stroke="#000321" stroke-width="1.5" stroke-linecap="round"/>
<path d="M48 635C49.6569 635 51 633.657 51 632C51 630.343 49.6569 629 48 629C46.3431 629 45 630.343 45 632C45 633.657 46.3431 635 48 635Z" stroke="#000321" stroke-width="1.5" stroke-linecap="round" stroke-linejoin="round"/>
<circle cx="48" cy="635" r="10" stroke="#000321" stroke-width="1.5"/>
<path d="M71.1111 639.617C70.5926 639.617 70.1227 639.513 69.7014 639.306C69.2866 639.098 68.956 638.845 68.7097 638.547L69.0306 637.206C69.212 637.569 69.4843 637.896 69.8472 638.188C70.2102 638.479 70.6444 638.625 71.15 638.625C71.6102 638.625 71.9894 638.479 72.2875 638.188C72.5921 637.896 72.7444 637.536 72.7444 637.108C72.7444 636.797 72.6699 636.541 72.5208 636.34C72.3718 636.139 72.2032 635.981 72.0153 635.864C71.8273 635.747 71.6782 635.663 71.5681 635.611L70.4986 635.067C70.3301 634.976 70.1194 634.85 69.8667 634.688C69.6204 634.526 69.4032 634.302 69.2153 634.017C69.0273 633.732 68.9333 633.362 68.9333 632.908C68.9333 632.468 69.0338 632.076 69.2347 631.732C69.4421 631.389 69.7273 631.12 70.0903 630.925C70.4597 630.731 70.881 630.633 71.3542 630.633C71.8208 630.633 72.2324 630.718 72.5889 630.886C72.9454 631.048 73.2241 631.217 73.425 631.392L73.1042 632.733C72.9421 632.461 72.7023 632.205 72.3847 631.965C72.0671 631.726 71.7074 631.606 71.3056 631.606C70.9167 631.606 70.6056 631.722 70.3722 631.956C70.1389 632.183 70.0222 632.464 70.0222 632.802C70.0222 633.061 70.0806 633.275 70.1972 633.443C70.3204 633.612 70.4565 633.745 70.6056 633.842C70.7611 633.939 70.8875 634.014 70.9847 634.065L72.0736 634.61C72.2032 634.675 72.3653 634.765 72.5597 634.882C72.7606 634.999 72.9583 635.154 73.1528 635.349C73.3472 635.537 73.5093 635.77 73.6389 636.049C73.7685 636.321 73.8333 636.652 73.8333 637.04C73.8333 637.539 73.7134 637.983 73.4736 638.372C73.2403 638.761 72.9194 639.066 72.5111 639.286C72.1028 639.507 71.6361 639.617 71.1111 639.617ZM75.3454 642.417V633.667H76.3177V634.435C76.5834 634.169 76.8913 633.962 77.2413 633.813C77.5913 633.664 77.9672 633.589 78.3691 633.589C78.907 633.589 79.3931 633.725 79.8274 633.997C80.2681 634.263 80.6181 634.623 80.8774 635.077C81.1431 635.53 81.276 636.033 81.276 636.583C81.276 637.134 81.1431 637.637 80.8774 638.09C80.6181 638.544 80.2681 638.907 79.8274 639.179C79.3931 639.445 78.907 639.578 78.3691 639.578C77.9866 639.578 77.6269 639.51 77.2899 639.374C76.9529 639.238 76.6547 639.05 76.3954 638.81V642.417H75.3454ZM78.2329 638.625C78.6024 638.625 78.9362 638.534 79.2343 638.353C79.539 638.165 79.7788 637.919 79.9538 637.614C80.1353 637.303 80.226 636.959 80.226 636.583C80.226 636.208 80.1353 635.867 79.9538 635.563C79.7788 635.252 79.539 635.005 79.2343 634.824C78.9362 634.636 78.6024 634.542 78.2329 634.542C77.8635 634.542 77.5265 634.636 77.2218 634.824C76.9237 635.005 76.6839 635.252 76.5024 635.563C76.3274 635.867 76.2399 636.208 76.2399 636.583C76.2399 636.959 76.3274 637.303 76.5024 637.614C76.6839 637.919 76.9237 638.165 77.2218 638.353C77.5265 638.534 77.8635 638.625 78.2329 638.625ZM85.5088 639.617C84.8996 639.617 84.3519 639.481 83.8658 639.208C83.3861 638.936 83.007 638.567 82.7283 638.1C82.456 637.627 82.3199 637.102 82.3199 636.525C82.3199 635.974 82.4528 635.475 82.7185 635.028C82.9843 634.574 83.3408 634.214 83.788 633.949C84.2417 633.683 84.7408 633.55 85.2852 633.55C85.8232 633.55 86.3158 633.68 86.763 633.939C87.2102 634.192 87.5667 634.535 87.8324 634.97C88.0982 635.404 88.231 635.896 88.231 636.447V636.875H84.4199C84.2514 636.875 84.0796 636.869 83.9046 636.856C83.7296 636.843 83.5579 636.823 83.3894 636.797C83.4607 637.316 83.694 637.75 84.0894 638.1C84.4912 638.45 84.9676 638.625 85.5185 638.625C85.888 638.625 86.2315 638.541 86.5491 638.372C86.8667 638.204 87.1227 637.98 87.3171 637.702L87.6088 638.897C87.3301 639.124 87.0093 639.302 86.6463 639.432C86.2898 639.555 85.9107 639.617 85.5088 639.617ZM83.3602 636.088C83.7102 636.029 84.0634 636 84.4199 636H86.3546C86.4972 636 86.6366 636.007 86.7727 636.02C86.9153 636.026 87.0579 636.036 87.2005 636.049C87.1097 635.595 86.8829 635.222 86.5199 634.931C86.157 634.633 85.7454 634.483 85.2852 634.483C84.8121 634.483 84.3972 634.642 84.0408 634.96C83.6843 635.271 83.4574 635.647 83.3602 636.088ZM89.6326 639.5V633.667H90.6048V634.61C90.8187 634.266 91.0941 634.004 91.4312 633.822C91.7747 633.641 92.1441 633.55 92.5395 633.55C92.9543 633.55 93.3367 633.654 93.6867 633.861C94.0432 634.062 94.3316 634.357 94.552 634.746C94.7724 635.128 94.8826 635.595 94.8826 636.146V639.5H93.8326V636.292C93.8326 635.832 93.6932 635.427 93.4145 635.077C93.1423 634.72 92.7566 634.542 92.2576 634.542C91.8492 634.542 91.483 634.691 91.1589 634.989C90.8413 635.281 90.6826 635.705 90.6826 636.263V639.5H89.6326ZM99.3159 639.617C98.7455 639.617 98.227 639.481 97.7603 639.208C97.2937 638.936 96.921 638.57 96.6423 638.11C96.3636 637.65 96.2242 637.141 96.2242 636.583C96.2242 636.026 96.3636 635.517 96.6423 635.057C96.921 634.597 97.2937 634.231 97.7603 633.958C98.227 633.686 98.7455 633.55 99.3159 633.55C99.7372 633.55 100.133 633.625 100.502 633.774C100.871 633.923 101.196 634.12 101.474 634.367L101.153 635.689C100.991 635.365 100.745 635.093 100.414 634.872C100.09 634.652 99.721 634.542 99.3062 634.542C98.9302 634.542 98.5867 634.636 98.2756 634.824C97.971 635.005 97.7279 635.252 97.5464 635.563C97.365 635.867 97.2742 636.208 97.2742 636.583C97.2742 636.953 97.365 637.293 97.5464 637.604C97.7279 637.915 97.971 638.165 98.2756 638.353C98.5867 638.534 98.9302 638.625 99.3062 638.625C99.721 638.625 100.09 638.518 100.414 638.304C100.745 638.09 100.991 637.815 101.153 637.478L101.474 638.8C101.196 639.046 100.871 639.244 100.502 639.393C100.133 639.542 99.7372 639.617 99.3159 639.617ZM105.538 639.617C104.929 639.617 104.381 639.481 103.895 639.208C103.415 638.936 103.036 638.567 102.758 638.1C102.485 637.627 102.349 637.102 102.349 636.525C102.349 635.974 102.482 635.475 102.748 635.028C103.014 634.574 103.37 634.214 103.817 633.949C104.271 633.683 104.77 633.55 105.314 633.55C105.852 633.55 106.345 633.68 106.792 633.939C107.239 634.192 107.596 634.535 107.862 634.97C108.127 635.404 108.26 635.896 108.26 636.447V636.875H104.449C104.281 636.875 104.109 636.869 103.934 636.856C103.759 636.843 103.587 636.823 103.419 636.797C103.49 637.316 103.723 637.75 104.119 638.1C104.521 638.45 104.997 638.625 105.548 638.625C105.917 638.625 106.261 638.541 106.578 638.372C106.896 638.204 107.152 637.98 107.346 637.702L107.638 638.897C107.359 639.124 107.039 639.302 106.676 639.432C106.319 639.555 105.94 639.617 105.538 639.617ZM103.389 636.088C103.739 636.029 104.093 636 104.449 636H106.384C106.527 636 106.666 636.007 106.802 636.02C106.945 636.026 107.087 636.036 107.23 636.049C107.139 635.595 106.912 635.222 106.549 634.931C106.186 634.633 105.775 634.483 105.314 634.483C104.841 634.483 104.427 634.642 104.07 634.96C103.714 635.271 103.487 635.647 103.389 636.088ZM109.662 639.5V633.667H110.634V634.736C110.841 634.393 111.117 634.12 111.46 633.92C111.804 633.712 112.212 633.608 112.685 633.608L112.948 634.658C112.825 634.62 112.682 634.6 112.52 634.6C111.976 634.6 111.538 634.775 111.208 635.125C110.877 635.469 110.712 635.961 110.712 636.603V639.5H109.662ZM121.168 639.675C120.54 639.675 119.947 639.558 119.389 639.325C118.838 639.085 118.352 638.758 117.931 638.343C117.516 637.928 117.189 637.445 116.949 636.895C116.716 636.344 116.599 635.754 116.599 635.125C116.599 634.496 116.716 633.907 116.949 633.356C117.189 632.805 117.516 632.322 117.931 631.907C118.352 631.492 118.838 631.168 119.389 630.935C119.947 630.695 120.54 630.575 121.168 630.575C121.791 630.575 122.374 630.692 122.918 630.925C123.463 631.152 123.942 631.466 124.357 631.868L124.036 633.21C123.738 632.73 123.336 632.348 122.831 632.063C122.332 631.771 121.778 631.625 121.168 631.625C120.527 631.625 119.947 631.784 119.428 632.102C118.916 632.413 118.508 632.834 118.203 633.365C117.898 633.89 117.746 634.477 117.746 635.125C117.746 635.767 117.898 636.353 118.203 636.885C118.508 637.416 118.916 637.841 119.428 638.158C119.947 638.47 120.527 638.625 121.168 638.625C121.784 638.625 122.342 638.479 122.841 638.188C123.34 637.896 123.738 637.514 124.036 637.04L124.357 638.382C123.942 638.777 123.463 639.092 122.918 639.325C122.374 639.558 121.791 639.675 121.168 639.675ZM125.699 639.5V630.167H126.749V634.493C126.969 634.189 127.242 633.955 127.566 633.793C127.89 633.631 128.236 633.55 128.606 633.55C129.021 633.55 129.403 633.654 129.753 633.861C130.11 634.062 130.398 634.357 130.618 634.746C130.839 635.128 130.949 635.595 130.949 636.146V639.5H129.899V636.292C129.899 635.832 129.76 635.427 129.481 635.077C129.209 634.72 128.823 634.542 128.324 634.542C127.916 634.542 127.549 634.691 127.225 634.989C126.908 635.281 126.749 635.705 126.749 636.263V639.5H125.699ZM132.699 639.5V633.667H133.671V634.736C133.879 634.393 134.154 634.12 134.498 633.92C134.841 633.712 135.249 633.608 135.723 633.608L135.985 634.658C135.862 634.62 135.719 634.6 135.557 634.6C135.013 634.6 134.575 634.775 134.245 635.125C133.914 635.469 133.749 635.961 133.749 636.603V639.5H132.699ZM137.074 639.5V633.667H138.124V639.5H137.074ZM137.599 632.617C137.405 632.617 137.239 632.549 137.103 632.413C136.967 632.277 136.899 632.111 136.899 631.917C136.899 631.716 136.967 631.551 137.103 631.421C137.239 631.285 137.405 631.217 137.599 631.217C137.8 631.217 137.965 631.285 138.095 631.421C138.231 631.551 138.299 631.716 138.299 631.917C138.299 632.111 138.231 632.277 138.095 632.413C137.965 632.549 137.8 632.617 137.599 632.617ZM141.493 639.617C141.195 639.617 140.874 639.562 140.531 639.452C140.193 639.335 139.902 639.144 139.656 638.878L139.947 637.731C140.129 638.035 140.362 638.278 140.647 638.46C140.932 638.635 141.237 638.722 141.561 638.722C141.872 638.722 142.106 638.648 142.261 638.499C142.417 638.343 142.494 638.155 142.494 637.935C142.494 637.682 142.41 637.497 142.242 637.381C142.08 637.264 141.934 637.183 141.804 637.138L141.017 636.836C140.874 636.778 140.702 636.694 140.501 636.583C140.3 636.467 140.125 636.302 139.976 636.088C139.827 635.874 139.753 635.595 139.753 635.252C139.753 634.94 139.827 634.655 139.976 634.396C140.125 634.137 140.336 633.933 140.608 633.783C140.881 633.628 141.201 633.55 141.571 633.55C141.862 633.55 142.167 633.602 142.485 633.706C142.802 633.809 143.071 633.984 143.292 634.231L143 635.378C142.844 635.093 142.634 634.866 142.368 634.697C142.102 634.529 141.827 634.445 141.542 634.445C141.276 634.445 141.065 634.519 140.91 634.668C140.761 634.817 140.686 634.989 140.686 635.183C140.686 635.339 140.738 635.478 140.842 635.602C140.945 635.725 141.101 635.825 141.308 635.903L142.096 636.204C142.238 636.256 142.413 636.34 142.621 636.457C142.835 636.574 143.023 636.742 143.185 636.963C143.347 637.183 143.428 637.481 143.428 637.857C143.428 638.382 143.243 638.807 142.874 639.131C142.511 639.455 142.05 639.617 141.493 639.617Z" fill="#000321"/>
<path d="M21.925 697V683.25H26.4319C27.6745 683.25 28.7542 683.454 29.6708 683.861C30.5977 684.269 31.3616 684.808 31.9625 685.481C32.5634 686.153 33.0116 686.896 33.3069 687.711C33.6023 688.516 33.75 689.32 33.75 690.125C33.75 690.93 33.6023 691.739 33.3069 692.554C33.0116 693.359 32.5634 694.097 31.9625 694.77C31.3616 695.442 30.5977 695.982 29.6708 696.389C28.7542 696.796 27.6745 697 26.4319 697H21.925ZM23.6667 695.442H26.2486C27.3079 695.442 28.1991 695.279 28.9222 694.953C29.6454 694.617 30.231 694.184 30.6792 693.654C31.1273 693.114 31.4481 692.534 31.6417 691.913C31.8454 691.291 31.9472 690.695 31.9472 690.125C31.9472 689.555 31.8454 688.959 31.6417 688.338C31.4481 687.716 31.1273 687.141 30.6792 686.611C30.231 686.071 29.6454 685.639 28.9222 685.313C28.1991 684.977 27.3079 684.808 26.2486 684.808H23.6667V695.442Z" fill="#000321"/>
<line x1="20" y1="715.5" x2="373" y2="715.5" stroke="#000321"/>
<rect x="20.5" y="728.5" width="352" height="55" rx="4.5" fill="#E6EBF3"/>
<rect x="20.5" y="728.5" width="352" height="55" rx="4.5" stroke="#AABBD6"/>
<path d="M48 756C49.6569 756 51 754.657 51 753C51 751.343 49.6569 750 48 750C46.3431 750 45 751.343 45 753C45 754.657 46.3431 756 48 756Z" stroke="#000321" stroke-width="1.5" stroke-linecap="round" stroke-linejoin="round"/>
<circle cx="48" cy="756" r="10" stroke="#000321" stroke-width="1.5"/>
<path d="M68.175 760.5L71.8792 751.458H71.8986L75.6028 760.5H74.4264L73.3958 757.904H70.3333L69.2931 760.5H68.175ZM70.7028 756.981H73.0264L72.3361 755.25C72.2519 755.03 72.1708 754.813 72.0931 754.599C72.0153 754.385 71.9375 754.129 71.8597 753.831C71.7819 754.129 71.7074 754.385 71.6361 754.599C71.5648 754.806 71.4838 755.023 71.3931 755.25L70.7028 756.981ZM76.7126 760.5V754.667H77.6849V755.503C77.8987 755.185 78.1677 754.949 78.4918 754.793C78.8224 754.631 79.1691 754.55 79.5321 754.55C79.9274 754.55 80.2904 754.644 80.621 754.832C80.9515 755.014 81.2173 755.27 81.4182 755.6C81.645 755.25 81.9367 754.988 82.2932 754.813C82.6561 754.638 83.0386 754.55 83.4404 754.55C83.8811 754.55 84.283 754.654 84.646 754.861C85.0154 755.069 85.3071 755.36 85.521 755.736C85.7413 756.106 85.8515 756.543 85.8515 757.049V760.5H84.8015V757.175C84.8015 756.644 84.6492 756.242 84.3446 755.97C84.0464 755.691 83.6997 755.552 83.3043 755.552C83.058 755.552 82.8182 755.607 82.5849 755.717C82.358 755.827 82.17 755.999 82.021 756.232C81.8784 756.465 81.8071 756.77 81.8071 757.146V760.5H80.7571V757.175C80.7571 756.806 80.6825 756.501 80.5335 756.261C80.3909 756.021 80.2029 755.843 79.9696 755.727C79.7427 755.603 79.5061 755.542 79.2599 755.542C79.02 755.542 78.7835 755.597 78.5501 755.707C78.3233 755.817 78.1353 755.989 77.9862 756.222C77.8372 756.456 77.7626 756.764 77.7626 757.146V760.5H76.7126ZM87.5954 760.5V754.667H88.6454V760.5H87.5954ZM88.1204 753.617C87.926 753.617 87.7607 753.549 87.6246 753.413C87.4885 753.277 87.4204 753.111 87.4204 752.917C87.4204 752.716 87.4885 752.551 87.6246 752.421C87.7607 752.285 87.926 752.217 88.1204 752.217C88.3214 752.217 88.4866 752.285 88.6163 752.421C88.7524 752.551 88.8204 752.716 88.8204 752.917C88.8204 753.111 88.7524 753.277 88.6163 753.413C88.4866 753.549 88.3214 753.617 88.1204 753.617ZM90.5076 760.5V754.667H91.4798V755.736C91.6872 755.393 91.9626 755.12 92.3062 754.92C92.6497 754.712 93.058 754.608 93.5312 754.608L93.7937 755.658C93.6705 755.62 93.5279 755.6 93.3659 755.6C92.8214 755.6 92.3839 755.775 92.0534 756.125C91.7228 756.469 91.5576 756.961 91.5576 757.603V760.5H90.5076ZM98.0863 760.5V751.75H100.954C101.745 751.75 102.432 751.88 103.015 752.139C103.605 752.398 104.091 752.742 104.474 753.17C104.856 753.597 105.141 754.07 105.329 754.589C105.517 755.101 105.611 755.613 105.611 756.125C105.611 756.637 105.517 757.152 105.329 757.671C105.141 758.183 104.856 758.653 104.474 759.081C104.091 759.508 103.605 759.852 103.015 760.111C102.432 760.37 101.745 760.5 100.954 760.5H98.0863ZM99.1947 759.508H100.838C101.512 759.508 102.079 759.405 102.539 759.197C102.999 758.983 103.372 758.708 103.657 758.371C103.942 758.027 104.147 757.658 104.27 757.263C104.399 756.867 104.464 756.488 104.464 756.125C104.464 755.762 104.399 755.383 104.27 754.988C104.147 754.592 103.942 754.226 103.657 753.889C103.372 753.545 102.999 753.27 102.539 753.063C102.079 752.849 101.512 752.742 100.838 752.742H99.1947V759.508ZM109.359 760.617C108.951 760.617 108.568 760.516 108.212 760.315C107.855 760.108 107.567 759.81 107.346 759.421C107.126 759.032 107.016 758.565 107.016 758.021V754.667H108.066V757.875C108.066 758.335 108.202 758.744 108.474 759.1C108.753 759.45 109.142 759.625 109.641 759.625C110.049 759.625 110.412 759.479 110.73 759.188C111.054 758.889 111.216 758.462 111.216 757.904V754.667H112.266V760.5H111.294V759.557C111.08 759.901 110.801 760.163 110.458 760.345C110.121 760.526 109.754 760.617 109.359 760.617ZM114.133 760.5V754.667H115.105V755.503C115.319 755.185 115.588 754.949 115.912 754.793C116.242 754.631 116.589 754.55 116.952 754.55C117.347 754.55 117.71 754.644 118.041 754.832C118.371 755.014 118.637 755.27 118.838 755.6C119.065 755.25 119.357 754.988 119.713 754.813C120.076 754.638 120.458 754.55 120.86 754.55C121.301 754.55 121.703 754.654 122.066 754.861C122.435 755.069 122.727 755.36 122.941 755.736C123.161 756.106 123.271 756.543 123.271 757.049V760.5H122.221V757.175C122.221 756.644 122.069 756.242 121.764 755.97C121.466 755.691 121.12 755.552 120.724 755.552C120.478 755.552 120.238 755.607 120.005 755.717C119.778 755.827 119.59 755.999 119.441 756.232C119.298 756.465 119.227 756.77 119.227 757.146V760.5H118.177V757.175C118.177 756.806 118.102 756.501 117.953 756.261C117.811 756.021 117.623 755.843 117.389 755.727C117.163 755.603 116.926 755.542 116.68 755.542C116.44 755.542 116.203 755.597 115.97 755.707C115.743 755.817 115.555 755.989 115.406 756.222C115.257 756.456 115.183 756.764 115.183 757.146V760.5H114.133ZM127.514 760.578C126.982 760.578 126.496 760.445 126.056 760.179C125.615 759.907 125.262 759.544 124.996 759.09C124.737 758.637 124.607 758.134 124.607 757.583C124.607 757.033 124.737 756.53 124.996 756.077C125.262 755.623 125.615 755.263 126.056 754.997C126.496 754.725 126.982 754.589 127.514 754.589C127.916 754.589 128.292 754.664 128.642 754.813C128.998 754.962 129.306 755.169 129.565 755.435V754.667H130.538V760.5H129.565V759.732C129.306 759.991 128.998 760.199 128.642 760.354C128.292 760.503 127.916 760.578 127.514 760.578ZM127.65 759.625C128.02 759.625 128.353 759.534 128.651 759.353C128.956 759.165 129.196 758.919 129.371 758.614C129.552 758.303 129.643 757.959 129.643 757.583C129.643 757.208 129.552 756.867 129.371 756.563C129.196 756.252 128.956 756.005 128.651 755.824C128.353 755.636 128.02 755.542 127.65 755.542C127.281 755.542 126.944 755.636 126.639 755.824C126.341 756.005 126.101 756.252 125.92 756.563C125.745 756.867 125.657 757.208 125.657 757.583C125.657 757.959 125.745 758.303 125.92 758.614C126.101 758.919 126.341 759.165 126.639 759.353C126.944 759.534 127.281 759.625 127.65 759.625ZM133.905 760.617C133.607 760.617 133.286 760.562 132.943 760.452C132.606 760.335 132.314 760.144 132.068 759.878L132.359 758.731C132.541 759.035 132.774 759.278 133.059 759.46C133.344 759.635 133.649 759.722 133.973 759.722C134.284 759.722 134.518 759.648 134.673 759.499C134.829 759.343 134.907 759.155 134.907 758.935C134.907 758.682 134.822 758.497 134.654 758.381C134.492 758.264 134.346 758.183 134.216 758.138L133.429 757.836C133.286 757.778 133.114 757.694 132.913 757.583C132.713 757.467 132.538 757.302 132.388 757.088C132.239 756.874 132.165 756.595 132.165 756.252C132.165 755.94 132.239 755.655 132.388 755.396C132.538 755.137 132.748 754.933 133.02 754.783C133.293 754.628 133.613 754.55 133.983 754.55C134.275 754.55 134.579 754.602 134.897 754.706C135.214 754.809 135.483 754.984 135.704 755.231L135.412 756.378C135.257 756.093 135.046 755.866 134.78 755.697C134.514 755.529 134.239 755.445 133.954 755.445C133.688 755.445 133.477 755.519 133.322 755.668C133.173 755.817 133.098 755.989 133.098 756.183C133.098 756.339 133.15 756.478 133.254 756.602C133.357 756.725 133.513 756.825 133.72 756.903L134.508 757.204C134.65 757.256 134.825 757.34 135.033 757.457C135.247 757.574 135.435 757.742 135.597 757.963C135.759 758.183 135.84 758.481 135.84 758.857C135.84 759.382 135.655 759.807 135.286 760.131C134.923 760.455 134.463 760.617 133.905 760.617Z" fill="#000321"/>
<rect x="329" y="688" width="44" height="44" rx="5" fill="#2B35AA"/>
<path d="M345 710H351M357 710H351M351 710V704M351 710V716" stroke="white" stroke-width="1.5" stroke-linecap="round" stroke-linejoin="round"/>
</g>
<rect width="393" height="100" transform="translate(0 752)" fill="#7079D8"/>
<path d="M44 782L53.7317 777.134C53.9006 777.05 54.0994 777.05 54.2683 777.134L64 782" stroke="white" stroke-width="1.5" stroke-linecap="round" stroke-linejoin="round"/>
<path d="M62 785V793C62 794.105 61.1046 795 60 795H48C46.8954 795 46 794.105 46 793V785" stroke="white" stroke-width="1.5" stroke-linecap="round" stroke-linejoin="round"/>
<path d="M152 778V776M152 778V780M152 778H147.5M140 784V793C140 794.105 140.895 795 142 795H156C157.105 795 158 794.105 158 793V784H140Z" stroke="white" stroke-width="1.5" stroke-linecap="round" stroke-linejoin="round"/>
<path d="M140 784V780C140 778.895 140.895 778 142 778H144" stroke="white" stroke-width="1.5" stroke-linecap="round" stroke-linejoin="round"/>
<path d="M144 776V780" stroke="white" stroke-width="1.5" stroke-linecap="round" stroke-linejoin="round"/>
<path d="M158 784V780C158 778.895 157.105 778 156 778H155.5" stroke="white" stroke-width="1.5" stroke-linecap="round" stroke-linejoin="round"/>
<rect x="222" y="764" width="44" height="44" rx="5" fill="#2B35AA"/>
<path d="M233 794V793C233 789.134 236.134 786 240 786V786C243.866 786 247 789.134 247 793V794" stroke="white" stroke-width="1.5" stroke-linecap="round"/>
<path d="M245 788V788C245 785.239 247.239 783 250 783V783C252.761 783 255 785.239 255 788V788.5" stroke="white" stroke-width="1.5" stroke-linecap="round"/>
<path d="M240 786C242.209 786 244 784.209 244 782C244 779.791 242.209 778 240 778C237.791 778 236 779.791 236 782C236 784.209 237.791 786 240 786Z" stroke="white" stroke-width="1.5" stroke-linecap="round" stroke-linejoin="round"/>
<path d="M250 783C251.657 783 253 781.657 253 780C253 778.343 251.657 777 250 777C248.343 777 247 778.343 247 780C247 781.657 248.343 783 250 783Z" stroke="white" stroke-width="1.5" stroke-linecap="round" stroke-linejoin="round"/>
<path d="M330 794.29V779C330 777.895 330.895 777 332 777H346C347.105 777 348 777.895 348 779V789C348 790.105 347.105 791 346 791H334.961C334.354 791 333.779 791.276 333.4 791.751L331.069 794.664C330.714 795.107 330 794.857 330 794.29Z" stroke="white" stroke-width="1.5"/>
</g>
<rect x="130" y="838" width="134" height="5" rx="2.5" fill="black"/>
<path fill-rule="evenodd" clip-rule="evenodd" d="M0 0H40C17.9086 0 1.02597e-05 17.9086 9.98798e-06 40L0 812V0ZM0 812C0 834.091 17.9086 852 40 852H0V812ZM393 40C393 17.9086 375.091 0 353 0H393V40ZM353 852C375.091 852 393 834.091 393 812V852H353ZM150.5 10C140.283 10 132 18.2827 132 28.5C132 38.7173 140.283 47 150.5 47H239.5C249.717 47 258 38.7173 258 28.5C258 18.2827 249.717 10 239.5 10H150.5Z" fill="black"/>
<path opacity="0.35" fill-rule="evenodd" clip-rule="evenodd" d="M352.091 22.3333C353.698 22.3333 355 23.5272 355 25V31C355 32.4728 353.698 33.6667 352.091 33.6667H333.909C332.302 33.6667 331 32.4728 331 31V25C331 23.5272 332.302 22.3333 333.909 22.3333H352.091ZM352.091 23.3333H333.909C332.958 23.3333 332.177 24.003 332.098 24.8562L332.091 25V31C332.091 31.872 332.821 32.5876 333.752 32.6605L333.909 32.6667H352.091C353.042 32.6667 353.823 31.9969 353.902 31.1438L353.909 31V25C353.909 24.128 353.178 23.4124 352.248 23.3394L352.091 23.3333ZM357.328 28C357.328 28.8731 356.805 29.6612 356 30V26C356.805 26.3388 357.328 27.1269 357.328 28Z" fill="black"/>
<path fill-rule="evenodd" clip-rule="evenodd" d="M64.0994 27.8346C64.0994 31.8079 62.3171 34.1543 59.3167 34.1543C57.1583 34.1543 55.5151 32.8789 55.1635 30.9413H57.2646C57.5344 31.8324 58.3193 32.3884 59.333 32.3884C61.0581 32.3884 62.08 30.7778 62.08 28.0799H61.941C61.3851 29.1999 60.265 29.8458 58.8834 29.8458C56.6351 29.8458 55 28.1943 55 25.9215C55 23.5016 56.815 21.7765 59.3821 21.7765C61.1071 21.7765 62.4724 22.5941 63.2655 24.1065C63.8132 25.0794 64.0994 26.3385 64.0994 27.8346ZM57.0684 25.8561C57.0684 27.2051 58.0331 28.1698 59.3902 28.1698C60.7392 28.1698 61.7284 27.2051 61.7284 25.8888C61.7284 24.5562 60.7147 23.5342 59.3984 23.5342C58.0821 23.5342 57.0684 24.5398 57.0684 25.8561ZM67.468 26.4856C68.2447 26.4856 68.7761 25.9378 68.7761 25.2021C68.7761 24.4581 68.2447 23.9103 67.468 23.9103C66.6995 23.9103 66.1599 24.4581 66.1599 25.2021C66.1599 25.9378 66.6995 26.4856 67.468 26.4856ZM68.7761 31.3255C68.7761 32.0613 68.2447 32.6173 67.468 32.6173C66.6995 32.6173 66.1599 32.0613 66.1599 31.3255C66.1599 30.5816 66.6995 30.0338 67.468 30.0338C68.2447 30.0338 68.7761 30.5816 68.7761 31.3255ZM78.6115 33.8681V31.6689H80.2058V29.8866H78.6115V22.0708H75.6356C73.5509 25.2102 71.8913 27.8346 70.8284 29.7885V31.6689H76.5922V33.8681H78.6115ZM72.7824 29.9357H76.6249V23.7877H76.5104C75.3822 25.4555 74.1559 27.3931 72.7824 29.8131V29.9357ZM87 33.8681V22.0708H84.8989L81.8167 24.2292V26.2567L84.7517 24.1965H84.8907V33.8681H87ZM320.283 26.9863C318.677 25.4595 316.546 24.6081 314.33 24.608C312.114 24.608 309.983 25.4594 308.377 26.9863C308.256 27.1044 308.062 27.1029 307.943 26.983L306.787 25.8163C306.727 25.7556 306.693 25.6733 306.694 25.5877C306.694 25.5021 306.729 25.4203 306.79 25.3603C311.005 21.3208 317.655 21.3208 321.87 25.3603C321.931 25.4203 321.965 25.5022 321.966 25.5878C321.966 25.6734 321.933 25.7556 321.873 25.8163L320.717 26.983C320.597 27.1027 320.404 27.1042 320.283 26.9863ZM317.624 29.6733C316.722 28.8561 315.548 28.4036 314.33 28.4037C313.114 28.4042 311.94 28.8567 311.039 29.6733C310.916 29.7893 310.724 29.7868 310.605 29.6677L309.451 28.501C309.39 28.4399 309.356 28.3569 309.357 28.2706C309.358 28.1843 309.393 28.1019 309.455 28.042C312.203 25.4856 316.459 25.4856 319.208 28.042C319.27 28.1019 319.305 28.1843 319.306 28.2705C319.307 28.3568 319.273 28.4398 319.212 28.501L318.058 29.6677C317.939 29.7868 317.746 29.7893 317.624 29.6733ZM316.549 31.188C316.611 31.1274 316.645 31.044 316.643 30.9575C316.641 30.871 316.604 30.789 316.54 30.731C315.264 29.6521 313.396 29.6521 312.121 30.731C312.056 30.789 312.019 30.8709 312.017 30.9574C312.015 31.0439 312.049 31.1274 312.111 31.188L314.109 33.2037C314.167 33.2629 314.247 33.2962 314.33 33.2962C314.414 33.2962 314.493 33.2629 314.552 33.2037L316.549 31.188ZM334.333 24.3333C333.597 24.3333 333 24.9303 333 25.6667V30.3333C333 31.0697 333.597 31.6667 334.333 31.6667H351.667C352.403 31.6667 353 31.0697 353 30.3333V25.6667C353 24.9303 352.403 24.3333 351.667 24.3333H334.333ZM296.667 22.6667H295.667C295.114 22.6667 294.667 23.1144 294.667 23.6667V32.3333C294.667 32.8856 295.114 33.3333 295.667 33.3333H296.667C297.219 33.3333 297.667 32.8856 297.667 32.3333V23.6667C297.667 23.1144 297.219 22.6667 296.667 22.6667ZM291 25H292C292.552 25 293 25.4477 293 26V32.3333C293 32.8856 292.552 33.3333 292 33.3333H291C290.448 33.3333 290 32.8856 290 32.3333V26C290 25.4477 290.448 25 291 25ZM287.333 27.3333H286.333C285.781 27.3333 285.333 27.7811 285.333 28.3333V32.3333C285.333 32.8856 285.781 33.3333 286.333 33.3333H287.333C287.885 33.3333 288.333 32.8856 288.333 32.3333V28.3333C288.333 27.7811 287.885 27.3333 287.333 27.3333ZM282.667 29.3333H281.667C281.114 29.3333 280.667 29.7811 280.667 30.3333V32.3333C280.667 32.8856 281.114 33.3333 281.667 33.3333H282.667C283.219 33.3333 283.667 32.8856 283.667 32.3333V30.3333C283.667 29.7811 283.219 29.3333 282.667 29.3333Z" fill="black"/>
</g>
<defs>
<clipPath id="clip0_53_719">
<rect width="393" height="852" fill="white"/>
</clipPath>
<clipPath id="clip1_53_719">
<rect width="393" height="852" fill="white"/>
</clipPath>
<clipPath id="clip2_53_719">
<rect width="393" height="652" fill="white" transform="translate(0 100)"/>
</clipPath>
</defs>
</svg>
